<?xml version="1.0" encoding="UTF-8"?>
<svg id="Layer_1" xmlns="http://www.w3.org/2000/svg" version="1.1" viewBox="0 0 500 286.1">
  <!-- Generator: Adobe Illustrator 29.6.1, SVG Export Plug-In . SVG Version: 2.1.1 Build 9)  -->
  <g style="isolation: isolate;">
    <g style="isolation: isolate;">
      <path d="M159.1,42.8c0,1.3-.2,2.5-.7,3.8-.5,1.3-1,2.6-1.7,3.8s-1.5,2.4-2.3,3.6c-.9,1.2-1.7,2.2-2.5,3.2l-2,1.5v.2l2.7-.5h7.1v4.1h-15.7v-2.5c.6-.6,1.3-1.3,2-2.2.7-.8,1.5-1.7,2.2-2.6.8-.9,1.5-1.9,2.2-2.9.7-1,1.4-2,1.9-3,.6-1,1-2,1.4-2.9s.5-1.8.5-2.7-.3-1.9-.9-2.5c-.6-.7-1.5-1-2.8-1s-1.6.2-2.4.5-1.5.8-2.1,1.3l-1.9-3.4c1-.8,2.1-1.4,3.3-1.9s2.7-.7,4.3-.7,2,.1,2.9.4c.9.3,1.7.7,2.3,1.3.6.6,1.2,1.3,1.5,2.1.4.9.6,1.9.6,3Z"/>
      <path d="M168.8,53l-5.6-9.1h5.8l2.4,4,1,2.6,1.1-2.6,2.5-4h5.2l-5.6,8.9,6,9.7h-5.6l-2.9-4.5-1.1-2.8-1.2,2.8-2.9,4.5h-5.3l6-9.5Z"/>
    </g>
    <g style="isolation: isolate;">
      <path d="M200.7,60.3c.8,0,1.6-.1,2.3-.4.7-.2,1.3-.6,1.9-1.1.5-.5.9-1.1,1.2-1.7.3-.7.4-1.4.4-2.2,0-1.7-.5-3-1.5-3.9-1-.8-2.4-1.3-4.3-1.3h-2.8v-1.1l5.4-8.3,1.7-1.6-2.4.4h-7.4v-2.8h13.3v1.1l-5.9,8.9-1.3,1.1h0c0,0,1.3-.2,1.3-.2,1,0,1.9.2,2.8.5.8.3,1.6.8,2.2,1.5.6.6,1.1,1.4,1.5,2.3.3.9.5,1.9.5,3s-.2,2.5-.7,3.6c-.5,1-1.1,1.9-1.9,2.6-.8.7-1.8,1.2-2.8,1.6s-2.2.6-3.5.6-2.1,0-3-.3-1.7-.4-2.3-.7l.8-2.6c.6.3,1.2.5,2,.7.8.2,1.7.3,2.6.3Z"/>
      <path d="M225.1,43.9h2l.6,2.2h.1c.6-.9,1.3-1.5,2.2-2,.9-.5,1.9-.7,3.1-.7,2.5,0,4.3.7,5.5,2.2,1.2,1.5,1.8,3.9,1.8,7.2s-.2,3-.6,4.2c-.4,1.3-1,2.3-1.7,3.2-.7.9-1.6,1.5-2.7,2-1.1.5-2.2.7-3.5.7s-1.6,0-2.2-.2c-.5-.1-1.1-.3-1.7-.6v7.7h-3v-26ZM232.6,46.1c-1.3,0-2.3.3-3,1-.7.7-1.2,1.7-1.5,3v9.2c.4.3,1,.6,1.5.8.6.2,1.3.3,2.3.3,1.7,0,3.1-.6,4.1-1.9s1.5-3.2,1.5-5.6,0-1.9-.3-2.8c-.2-.8-.5-1.5-.8-2.1-.4-.6-.9-1-1.5-1.4-.6-.3-1.4-.5-2.3-.5Z"/>
      <path d="M244.9,45.3c.9-.6,2-1,3.3-1.3,1.3-.3,2.6-.4,3.9-.4s2.3.2,3.1.5c.8.3,1.4.8,1.8,1.4.4.6.7,1.2.8,1.8.1.7.2,1.3.2,2,0,1.5,0,2.9-.1,4.4,0,1.4-.1,2.8-.1,4s0,1.8.1,2.6c0,.8.2,1.6.4,2.3h-2.2l-.8-2.6h-.2c-.2.3-.5.7-.8,1s-.7.6-1.2.9c-.5.3-1,.5-1.6.7-.6.2-1.3.3-2.1.3s-1.5-.1-2.2-.4c-.7-.2-1.3-.6-1.8-1.1-.5-.5-.9-1-1.2-1.7-.3-.6-.4-1.4-.4-2.2s.2-2,.7-2.7c.4-.7,1.1-1.3,1.9-1.7.8-.4,1.8-.7,2.9-.9,1.1-.2,2.4-.3,3.7-.3h1c.3,0,.7,0,1,0,0-.7.1-1.4.1-2,0-1.4-.3-2.3-.8-2.9-.5-.5-1.5-.8-3-.8s-.9,0-1.4,0c-.5,0-1,.2-1.5.3-.5.1-1,.3-1.5.4s-.9.4-1.2.6l-.9-2.3ZM250.2,60.2c.7,0,1.3,0,1.9-.3.5-.2,1-.4,1.4-.7s.7-.6,1-.9c.3-.3.5-.7.6-1v-3.1c-.3,0-.7,0-1.1,0-.4,0-.7,0-1.1,0-.8,0-1.5,0-2.3.1-.7,0-1.4.2-1.9.5s-1,.6-1.3,1-.5.9-.5,1.5.3,1.6.9,2.1c.6.6,1.4.8,2.4.8Z"/>
      <path d="M272.5,46.8c-.7-.2-1.5-.4-2.1-.4-1.1,0-1.9.3-2.5.9-.6.6-1,1.3-1.2,2.2v13h-3v-18.6h2.1l.6,2.3h.1c.5-.8,1-1.5,1.7-2,.7-.5,1.5-.7,2.5-.7s1.5.1,2.4.4l-.6,2.9Z"/>
      <path d="M289.9,61c-.7.6-1.7,1.1-2.8,1.4-1.1.3-2.3.5-3.6.5s-2.6-.2-3.7-.7c-1-.5-1.9-1.1-2.6-2-.7-.9-1.2-1.9-1.5-3.1-.3-1.2-.5-2.5-.5-4,0-3.2.7-5.6,2.1-7.3,1.4-1.7,3.4-2.5,6.1-2.5s1.7,0,2.5.3c.8.2,1.6.5,2.3,1.1.7.5,1.2,1.3,1.6,2.2.4,1,.6,2.2.6,3.8s0,1.7-.2,2.7h-11.9c0,1.1.1,2.1.3,2.9.2.8.6,1.6,1,2.1.5.6,1.1,1,1.8,1.3.8.3,1.7.5,2.8.5s1.7-.1,2.5-.4c.8-.3,1.5-.6,1.9-1l1.1,2.2ZM283.5,46.1c-1.5,0-2.6.4-3.5,1.2-.9.8-1.4,2.1-1.6,3.9h9.2c0-1.9-.4-3.2-1.1-4-.7-.8-1.7-1.1-3-1.1Z"/>
      <path d="M295.2,38.2c0-.6.2-1.1.6-1.5s.9-.6,1.5-.6,1.1.2,1.5.6c.4.4.6.9.6,1.5s-.2,1-.6,1.4c-.4.4-.9.6-1.5.6s-1.1-.2-1.5-.6-.6-.8-.6-1.4ZM295.9,43.9h3v18.6h-3v-18.6Z"/>
      <path d="M308.5,57.9c0,.9.1,1.5.4,1.9s.7.6,1.3.6.7,0,1,0c.4,0,.8-.2,1.3-.3l.3,2.3c-.4.2-.9.4-1.7.5-.7.1-1.3.2-1.8.2-1.1,0-2-.3-2.8-.9-.7-.6-1.1-1.7-1.1-3.2v-22.3h3v21.5Z"/>
      <path d="M319.4,57.9c0,.9.1,1.5.4,1.9.3.4.7.6,1.3.6s.7,0,1,0c.4,0,.8-.2,1.3-.3l.3,2.3c-.4.2-.9.4-1.7.5-.7.1-1.3.2-1.8.2-1.1,0-2-.3-2.8-.9-.7-.6-1.1-1.7-1.1-3.2v-22.3h3v21.5Z"/>
      <path d="M340.5,61c-.7.6-1.7,1.1-2.8,1.4-1.1.3-2.3.5-3.6.5s-2.6-.2-3.7-.7c-1-.5-1.9-1.1-2.6-2-.7-.9-1.2-1.9-1.5-3.1-.3-1.2-.5-2.5-.5-4,0-3.2.7-5.6,2.1-7.3,1.4-1.7,3.4-2.5,6.1-2.5s1.7,0,2.5.3c.8.2,1.6.5,2.3,1.1.7.5,1.2,1.3,1.6,2.2.4,1,.6,2.2.6,3.8s0,1.7-.2,2.7h-11.9c0,1.1.1,2.1.3,2.9.2.8.6,1.6,1,2.1.5.6,1.1,1,1.8,1.3.8.3,1.7.5,2.8.5s1.7-.1,2.5-.4c.8-.3,1.5-.6,1.9-1l1.1,2.2ZM334.1,46.1c-1.5,0-2.6.4-3.5,1.2-.9.8-1.4,2.1-1.6,3.9h9.2c0-1.9-.4-3.2-1.1-4-.7-.8-1.7-1.1-3-1.1Z"/>
      <path d="M354,57.4c0-.7-.2-1.3-.7-1.7s-1-.8-1.7-1.1c-.7-.3-1.4-.6-2.2-.8-.8-.3-1.5-.6-2.2-1-.7-.4-1.2-.9-1.7-1.6-.4-.6-.7-1.5-.7-2.6,0-1.8.5-3.1,1.5-3.9,1-.8,2.4-1.2,4.2-1.2s2.5.1,3.4.4c.9.2,1.7.5,2.4.8l-.7,2.5c-.6-.3-1.3-.5-2.1-.7-.8-.2-1.7-.3-2.6-.3s-1.9.2-2.4.6c-.5.4-.8,1-.8,1.9s.2,1.1.7,1.5,1,.7,1.7,1c.7.3,1.4.6,2.2.8.8.3,1.5.6,2.2,1.1s1.2,1,1.7,1.7c.4.7.7,1.6.7,2.7s-.1,1.5-.4,2.2c-.3.7-.7,1.3-1.2,1.8-.5.5-1.2.9-2,1.2-.8.3-1.8.4-2.8.4s-2.6-.1-3.6-.4c-1-.3-1.8-.6-2.5-1l.9-2.5c.6.3,1.3.6,2.2.9.9.3,1.8.4,2.8.4s1.9-.2,2.6-.6c.7-.4,1-1.2,1-2.3Z"/>
    </g>
  </g>
  <g>
    <g>
      <path d="M291.1,196.2c-2.4-4.1-5.4-8.2-8.6-11.8-10.3-11.8-29-23.5-23.3-41.9,3.2-10.6,15-15.7,24.7-9.8,9.7,5.9,5.8,6,7.6,9.8,2-5.4,5.4-9.7,11-11.5,14-4.3,24,8.8,21.8,21.8s-18.2,24.1-26.4,34.3c-1.9,2.4-4.2,6.5-6,8.4-1.8,1.9-.4.6-.8.5h0Z" style="fill: #f75750;"/>
      <path d="M376.3,196.2c-6.5-12.2-15.7-22.7-25-32.9,9.6-9.8,18.2-20.6,25.1-32.6.5,0,.5.2.7.5,1.9,2.3,4.1,6.7,6,9.4,3.6,5.2,7.6,10.3,11.8,15.1,2.4,2.8,5.2,5.2,7.3,7.9-9.7,9.6-18.1,20.5-25.2,32.4l-.7.4h0Z" style="fill: #f75750;"/>
    </g>
    <g>
      <rect x="97.8" y="104.4" width="87.8" height="117.9" rx="7" ry="7" style="fill: #fff; stroke: #231f20; stroke-miterlimit: 10; stroke-width: .8px;"/>
      <rect x="120.3" y="104.4" width="87.8" height="117.9" rx="7" ry="7" style="fill: #fff; stroke: #231f20; stroke-miterlimit: 10; stroke-width: .8px;"/>
      <rect x="142.9" y="104.4" width="87.8" height="117.9" rx="7" ry="7" style="fill: #fff; stroke: #231f20; stroke-miterlimit: 10; stroke-width: .8px;"/>
    </g>
  </g>
</svg>