<?xml version="1.0" encoding="UTF-8"?>
<svg id="Layer_1" xmlns="http://www.w3.org/2000/svg" version="1.1" viewBox="0 0 500 549.8">
  <!-- Generator: Adobe Illustrator 29.6.1, SVG Export Plug-In . SVG Version: 2.1.1 Build 9)  -->
  <g style="isolation: isolate;">
    <g style="isolation: isolate;">
      <path d="M148.5,58.4h5.2v-14.7l.6-2.5-1.8,2.2-3.3,2.3-2-2.8,8.5-6.8h2.7v22.4h5.1v4.1h-14.8v-4.1Z"/>
      <path d="M172.1,53l-5.6-9.1h5.8l2.4,4,1,2.6,1.1-2.6,2.5-4h5.2l-5.6,8.9,6,9.7h-5.6l-2.9-4.5-1.1-2.8-1.2,2.8-2.9,4.5h-5.3l6-9.5Z"/>
    </g>
    <g style="isolation: isolate;">
      <path d="M210.3,55.9c0-1-.3-1.9-.9-2.5-.6-.7-1.4-1.2-2.3-1.7-.9-.5-1.9-1-3-1.4-1.1-.4-2.1-1-3-1.6-.9-.6-1.7-1.4-2.3-2.3-.6-.9-.9-2.1-.9-3.6s.7-3.6,2.1-4.8c1.4-1.2,3.4-1.8,6-1.8s2.9.1,4.1.3c1.2.2,2.2.5,2.9.9l-.9,2.8c-.6-.3-1.4-.6-2.5-.8s-2.3-.4-3.7-.4-2.9.4-3.7,1.1-1.2,1.6-1.2,2.6.3,1.8.9,2.4c.6.6,1.4,1.2,2.3,1.7.9.5,1.9,1,3,1.5,1.1.5,2.1,1.1,3,1.7.9.7,1.7,1.4,2.3,2.4.6.9.9,2.1.9,3.4s-.2,2.1-.6,3c-.4.9-1,1.7-1.7,2.3-.8.6-1.7,1.1-2.8,1.5-1.1.3-2.3.5-3.7.5s-3.4-.1-4.6-.4c-1.2-.3-2.2-.6-2.8-.9l1-2.8c.6.3,1.4.6,2.5.9,1.1.3,2.4.5,3.8.5s1.6,0,2.3-.2c.7-.2,1.3-.4,1.9-.8s.9-.8,1.2-1.4c.3-.5.5-1.2.5-1.9Z"/>
      <path d="M220.7,43.9v10.6c0,1,0,1.8.2,2.5.1.7.3,1.3.6,1.8.3.5.6.8,1.1,1.1.5.2,1.1.4,1.8.4s1.3-.1,1.8-.3c.5-.2,1-.5,1.4-.9s.8-.8,1.1-1.3c.3-.5.6-1,.8-1.5v-12.4h3v13.3c0,.9,0,1.8,0,2.8s.2,1.8.3,2.5h-2l-.7-2.9h-.2c-.6,1-1.3,1.8-2.3,2.4s-2.2,1-3.7,1-1.9-.1-2.6-.4-1.4-.7-1.9-1.2c-.5-.6-.9-1.4-1.2-2.4-.3-1-.4-2.3-.4-3.8v-11.2h3Z"/>
      <path d="M238,38.2c0-.6.2-1.1.6-1.5s.9-.6,1.5-.6,1.1.2,1.5.6c.4.4.6.9.6,1.5s-.2,1-.6,1.4c-.4.4-.9.6-1.5.6s-1.1-.2-1.5-.6-.6-.8-.6-1.4ZM238.7,43.9h3v18.6h-3v-18.6Z"/>
      <path d="M245.5,43.9h2.9v-3.7l3-.9v4.5h5.1v2.6h-5.1v10.3c0,1.3.2,2.2.5,2.7s.9.8,1.6.8,1.2,0,1.6-.2c.4-.1.9-.3,1.5-.5l.7,2.3c-.7.3-1.4.6-2.2.8s-1.6.3-2.6.3c-1.5,0-2.6-.4-3.2-1.3-.6-.9-.9-2.3-.9-4.3v-10.9h-2.9v-2.6Z"/>
      <path d="M273.8,61c-.7.6-1.7,1.1-2.8,1.4-1.1.3-2.3.5-3.6.5s-2.6-.2-3.7-.7c-1-.5-1.9-1.1-2.6-2-.7-.9-1.2-1.9-1.5-3.1-.3-1.2-.5-2.5-.5-4,0-3.2.7-5.6,2.1-7.3,1.4-1.7,3.4-2.5,6.1-2.5s1.7,0,2.5.3c.8.2,1.6.5,2.3,1.1.7.5,1.2,1.3,1.6,2.2.4,1,.6,2.2.6,3.8s0,1.7-.2,2.7h-11.9c0,1.1.1,2.1.3,2.9.2.8.6,1.6,1,2.1.5.6,1.1,1,1.8,1.3.8.3,1.7.5,2.8.5s1.7-.1,2.5-.4c.8-.3,1.5-.6,1.9-1l1.1,2.2ZM267.4,46.1c-1.5,0-2.6.4-3.5,1.2-.9.8-1.4,2.1-1.6,3.9h9.2c0-1.9-.4-3.2-1.1-4-.7-.8-1.7-1.1-3-1.1Z"/>
      <path d="M303.3,56.1c0,1.3,0,2.4,0,3.4,0,1,.1,2,.3,3h-2l-.7-2.6h-.1c-.5.9-1.2,1.6-2.2,2.2-.9.6-2,.9-3.3.9-2.5,0-4.3-.8-5.5-2.3-1.2-1.6-1.8-4-1.8-7.3s.8-5.6,2.3-7.2c1.5-1.6,3.6-2.5,6.2-2.5s1.6,0,2.2.1c.5,0,1.1.3,1.7.5v-7.7h3v19.6ZM295.8,60.3c1.3,0,2.3-.3,3-1,.7-.7,1.3-1.7,1.5-3v-9.2c-.4-.3-1-.6-1.5-.7-.6-.1-1.3-.2-2.3-.2-1.7,0-3.1.6-4,1.7-1,1.1-1.5,2.9-1.5,5.4s0,2,.2,2.8c.2.9.4,1.6.8,2.2s.9,1.1,1.5,1.5c.6.4,1.3.5,2.2.5Z"/>
      <path d="M322.6,61c-.7.6-1.7,1.1-2.8,1.4-1.1.3-2.3.5-3.6.5s-2.6-.2-3.7-.7c-1-.5-1.9-1.1-2.6-2-.7-.9-1.2-1.9-1.5-3.1s-.5-2.5-.5-4c0-3.2.7-5.6,2.1-7.3,1.4-1.7,3.4-2.5,6.1-2.5s1.7,0,2.5.3c.8.2,1.6.5,2.3,1.1.7.5,1.2,1.3,1.6,2.2.4,1,.6,2.2.6,3.8s0,1.7-.2,2.7h-11.9c0,1.1.1,2.1.3,2.9.2.8.6,1.6,1,2.1.5.6,1.1,1,1.8,1.3.8.3,1.7.5,2.8.5s1.7-.1,2.5-.4c.8-.3,1.5-.6,1.9-1l1.1,2.2ZM316.2,46.1c-1.5,0-2.6.4-3.5,1.2-.9.8-1.4,2.1-1.6,3.9h9.2c0-1.9-.4-3.2-1.1-4-.7-.8-1.7-1.1-3.1-1.1Z"/>
      <path d="M354.5,54.5h-4.4v8h-2.9v-8h-11.5v-1.2l12.3-17.2h2v15.8h4.4v2.6ZM347.2,43.8l.4-3h-.1l-1.3,2.5-5.2,7.1-1.8,1.8,2.6-.3h5.5v-8.1Z"/>
    </g>
  </g>
  <g>
    <g>
      <path d="M299.9,206.3c-2.4-4.1-5.4-8.2-8.6-11.8-10.3-11.8-29-23.5-23.3-41.9,3.2-10.6,15-15.7,24.7-9.8,9.7,5.9,5.8,6,7.6,9.8,2-5.4,5.4-9.7,11-11.5,14-4.3,24,8.8,21.8,21.8-2.2,13.1-18.2,24.1-26.4,34.3-8.2,10.2-4.2,6.5-6,8.4s-.4.6-.8.5h0Z" style="fill: #f75750;"/>
      <path d="M385.1,206.3c-6.5-12.2-15.7-22.7-25-32.9,9.6-9.8,18.2-20.6,25.1-32.6.5,0,.5.2.7.5,1.9,2.3,4.1,6.7,6,9.4,3.6,5.2,7.6,10.3,11.8,15.1s5.2,5.2,7.3,7.9c-9.7,9.6-18.1,20.5-25.2,32.4l-.7.4h0Z" style="fill: #f75750;"/>
    </g>
    <g>
      <rect x="89" y="128.8" width="87.8" height="117.9" rx="6.9" ry="6.9" style="fill: #fff; stroke: #231f20; stroke-miterlimit: 10; stroke-width: .8px;"/>
      <rect x="109.4" y="119.3" width="87.8" height="117.9" rx="6.9" ry="6.9" style="fill: #fff; stroke: #231f20; stroke-miterlimit: 10; stroke-width: .8px;"/>
      <rect x="129.8" y="109.9" width="87.8" height="117.9" rx="6.9" ry="6.9" style="fill: #fff; stroke: #231f20; stroke-miterlimit: 10; stroke-width: .8px;"/>
      <rect x="150.2" y="100.4" width="87.8" height="117.9" rx="6.9" ry="6.9" style="fill: #fff; stroke: #231f20; stroke-miterlimit: 10; stroke-width: .8px;"/>
    </g>
  </g>
  <g style="isolation: isolate;">
    <g style="isolation: isolate;">
      <path d="M148.5,320h5.2v-14.7l.6-2.5-1.8,2.2-3.3,2.3-2-2.8,8.5-6.8h2.7v22.4h5.1v4.1h-14.8v-4.1Z"/>
      <path d="M172.1,314.5l-5.6-9.1h5.8l2.4,4,1,2.6,1.1-2.6,2.5-4h5.2l-5.6,8.9,6,9.7h-5.6l-2.9-4.5-1.1-2.8-1.2,2.8-2.9,4.5h-5.3l6-9.5Z"/>
    </g>
    <g style="isolation: isolate;">
      <path d="M210.3,317.4c0-1-.3-1.9-.9-2.5-.6-.7-1.4-1.2-2.3-1.7-.9-.5-1.9-1-3-1.4-1.1-.4-2.1-1-3-1.6-.9-.6-1.7-1.4-2.3-2.3-.6-.9-.9-2.1-.9-3.6s.7-3.6,2.1-4.8c1.4-1.2,3.4-1.8,6-1.8s2.9.1,4.1.3c1.2.2,2.2.5,2.9.9l-.9,2.8c-.6-.3-1.4-.6-2.5-.8s-2.3-.4-3.7-.4-2.9.4-3.7,1.1-1.2,1.6-1.2,2.6.3,1.8.9,2.4c.6.6,1.4,1.2,2.3,1.7.9.5,1.9,1,3,1.5,1.1.5,2.1,1.1,3,1.7.9.7,1.7,1.4,2.3,2.4.6.9.9,2.1.9,3.4s-.2,2.1-.6,3c-.4.9-1,1.7-1.7,2.3-.8.6-1.7,1.1-2.8,1.5-1.1.3-2.3.5-3.7.5s-3.4-.1-4.6-.4c-1.2-.3-2.2-.6-2.8-.9l1-2.8c.6.3,1.4.6,2.5.9,1.1.3,2.4.5,3.8.5s1.6,0,2.3-.2c.7-.2,1.3-.4,1.9-.8s.9-.8,1.2-1.4c.3-.5.5-1.2.5-1.9Z"/>
      <path d="M220.7,305.5v10.6c0,1,0,1.8.2,2.5.1.7.3,1.3.6,1.8.3.5.6.8,1.1,1.1.5.2,1.1.4,1.8.4s1.3-.1,1.8-.3c.5-.2,1-.5,1.4-.9s.8-.8,1.1-1.3c.3-.5.6-1,.8-1.5v-12.4h3v13.3c0,.9,0,1.8,0,2.8s.2,1.8.3,2.5h-2l-.7-2.9h-.2c-.6,1-1.3,1.8-2.3,2.4s-2.2,1-3.7,1-1.9-.1-2.6-.4-1.4-.7-1.9-1.2c-.5-.6-.9-1.4-1.2-2.4-.3-1-.4-2.3-.4-3.8v-11.2h3Z"/>
      <path d="M238,299.8c0-.6.2-1.1.6-1.5s.9-.6,1.5-.6,1.1.2,1.5.6c.4.4.6.9.6,1.5s-.2,1-.6,1.4c-.4.4-.9.6-1.5.6s-1.1-.2-1.5-.6-.6-.8-.6-1.4ZM238.7,305.5h3v18.6h-3v-18.6Z"/>
      <path d="M245.5,305.5h2.9v-3.7l3-.9v4.5h5.1v2.6h-5.1v10.3c0,1.3.2,2.2.5,2.7s.9.8,1.6.8,1.2,0,1.6-.2c.4-.1.9-.3,1.5-.5l.7,2.3c-.7.3-1.4.6-2.2.8s-1.6.3-2.6.3c-1.5,0-2.6-.4-3.2-1.3-.6-.9-.9-2.3-.9-4.3v-10.9h-2.9v-2.6Z"/>
      <path d="M273.8,322.6c-.7.6-1.7,1.1-2.8,1.4-1.1.3-2.3.5-3.6.5s-2.6-.2-3.7-.7c-1-.5-1.9-1.1-2.6-2-.7-.9-1.2-1.9-1.5-3.1-.3-1.2-.5-2.5-.5-4,0-3.2.7-5.6,2.1-7.3,1.4-1.7,3.4-2.5,6.1-2.5s1.7,0,2.5.3c.8.2,1.6.5,2.3,1.1.7.5,1.2,1.3,1.6,2.2.4,1,.6,2.2.6,3.8s0,1.7-.2,2.7h-11.9c0,1.1.1,2.1.3,2.9.2.8.6,1.6,1,2.1.5.6,1.1,1,1.8,1.3.8.3,1.7.5,2.8.5s1.7-.1,2.5-.4c.8-.3,1.5-.6,1.9-1l1.1,2.2ZM267.4,307.6c-1.5,0-2.6.4-3.5,1.2-.9.8-1.4,2.1-1.6,3.9h9.2c0-1.9-.4-3.2-1.1-4-.7-.8-1.7-1.1-3-1.1Z"/>
      <path d="M303.3,317.7c0,1.3,0,2.4,0,3.4,0,1,.1,2,.3,3h-2l-.7-2.6h-.1c-.5.9-1.2,1.6-2.2,2.2-.9.6-2,.9-3.3.9-2.5,0-4.3-.8-5.5-2.3-1.2-1.6-1.8-4-1.8-7.3s.8-5.6,2.3-7.2c1.5-1.6,3.6-2.5,6.2-2.5s1.6,0,2.2.1c.5,0,1.1.3,1.7.5v-7.7h3v19.6ZM295.8,321.9c1.3,0,2.3-.3,3-1,.7-.7,1.3-1.7,1.5-3v-9.2c-.4-.3-1-.6-1.5-.7-.6-.1-1.3-.2-2.3-.2-1.7,0-3.1.6-4,1.7-1,1.1-1.5,2.9-1.5,5.4s0,2,.2,2.8c.2.9.4,1.6.8,2.2s.9,1.1,1.5,1.5c.6.4,1.3.5,2.2.5Z"/>
      <path d="M322.6,322.6c-.7.6-1.7,1.1-2.8,1.4-1.1.3-2.3.5-3.6.5s-2.6-.2-3.7-.7c-1-.5-1.9-1.1-2.6-2-.7-.9-1.2-1.9-1.5-3.1s-.5-2.5-.5-4c0-3.2.7-5.6,2.1-7.3,1.4-1.7,3.4-2.5,6.1-2.5s1.7,0,2.5.3c.8.2,1.6.5,2.3,1.1.7.5,1.2,1.3,1.6,2.2.4,1,.6,2.2.6,3.8s0,1.7-.2,2.7h-11.9c0,1.1.1,2.1.3,2.9.2.8.6,1.6,1,2.1.5.6,1.1,1,1.8,1.3.8.3,1.7.5,2.8.5s1.7-.1,2.5-.4c.8-.3,1.5-.6,1.9-1l1.1,2.2ZM316.2,307.6c-1.5,0-2.6.4-3.5,1.2-.9.8-1.4,2.1-1.6,3.9h9.2c0-1.9-.4-3.2-1.1-4-.7-.8-1.7-1.1-3.1-1.1Z"/>
      <path d="M354.5,316.1h-4.4v8h-2.9v-8h-11.5v-1.2l12.3-17.2h2v15.8h4.4v2.6ZM347.2,305.3l.4-3h-.1l-1.3,2.5-5.2,7.1-1.8,1.8,2.6-.3h5.5v-8.1Z"/>
    </g>
  </g>
  <g>
    <g>
      <rect x="87.2" y="390.4" width="87.8" height="117.9" rx="6.9" ry="6.9" style="fill: #fff; stroke: #231f20; stroke-miterlimit: 10; stroke-width: .8px;"/>
      <rect x="107.6" y="380.9" width="87.8" height="117.9" rx="6.9" ry="6.9" style="fill: #fff; stroke: #231f20; stroke-miterlimit: 10; stroke-width: .8px;"/>
      <rect x="128" y="371.5" width="87.8" height="117.9" rx="6.9" ry="6.9" style="fill: #fff; stroke: #231f20; stroke-miterlimit: 10; stroke-width: .8px;"/>
      <rect x="148.4" y="362" width="87.8" height="117.9" rx="6.9" ry="6.9" style="fill: #fff; stroke: #231f20; stroke-miterlimit: 10; stroke-width: .8px;"/>
    </g>
    <g>
      <path d="M371.3,468.1l-.5-.7c4.1-3.5,7-7.8,7.4-13.3.5-5.5.2-4.7-.6-4-3,9.8-15.5,12.6-23.3,6.4-13.7-10.9-1.7-32.2,14.6-26.8l-2.3-3.4c-7.7-13.1,5.2-28.6,19.6-23.4,10.9,4,13.8,17.8,6.2,26.4,12.6-3.5,24.1,8.5,19.1,21-5,12.5-23.6,12.8-28.1-.2-1.1-.8-.2,5.5-.1,6,.5,2.5,2,5.8,3.6,7.8s2.6,2,3.4,3.5l-.4.7h-18.7Z" style="fill: #292929;"/>
      <path d="M285.7,468.1l-.4-.7c0-.6,2.6-2.6,3.2-3.4,3.2-3.8,4.8-9.2,4.2-14.3-1.8,2.5-2.8,5.2-5.5,7-9.6,6.4-21.7-1-22.6-11.9-.8-10.9,14.3-23.9,23-33.5,2.6-2.9,4.9-6,7.2-9,.4,0,.7.4.8.6,1.7,1.7,3.8,5,5.5,7.1,8.6,9.7,24.7,19.2,24.4,34-.4,14.3-18.7,21.5-26.5,8.5s-1.2-3.2-1.8-2.6c-.2,4.8.8,9.8,4,13.7s3.6,2.8,3.6,4.7h-19.4.2Z" style="fill: #292929;"/>
    </g>
  </g>
</svg>