<?xml version="1.0" encoding="UTF-8"?>
<svg id="Layer_1" xmlns="http://www.w3.org/2000/svg" version="1.1" viewBox="0 0 500 286.1">
  <!-- Generator: Adobe Illustrator 29.6.1, SVG Export Plug-In . SVG Version: 2.1.1 Build 9)  -->
  <g style="isolation: isolate;">
    <g style="isolation: isolate;">
      <path d="M153.4,58.9c1.5,0,2.7-.4,3.5-1.2.8-.8,1.2-1.8,1.2-3s-.4-2.5-1.3-3.1c-.8-.7-2.2-1-4-1h-2.7v-2.6l4.5-6.1,2.1-1.7-2.9.3h-6.2v-4.1h14.2v2.6l-5.2,7-1.6,1v.2l1.6-.2c.9,0,1.7.3,2.5.6s1.5.8,2,1.4c.6.6,1,1.4,1.4,2.2.3.9.5,1.9.5,3.1s-.2,2.7-.7,3.8c-.5,1.1-1.2,2-2,2.7-.9.7-1.9,1.3-3,1.6-1.1.3-2.4.5-3.7.5s-2.2,0-3.4-.3c-1.2-.2-2.1-.5-2.8-.9l1.3-4c.6.3,1.4.6,2.1.8.8.2,1.7.3,2.6.3Z"/>
      <path d="M171.8,53l-5.6-9.1h5.8l2.4,4,1,2.6,1.1-2.6,2.5-4h5.2l-5.6,8.9,6,9.7h-5.6l-2.9-4.5-1.1-2.8-1.2,2.8-2.9,4.5h-5.3l6-9.5Z"/>
    </g>
    <g style="isolation: isolate;">
      <path d="M209.9,55.9c0-1-.3-1.9-.9-2.5-.6-.7-1.4-1.2-2.3-1.7-.9-.5-1.9-1-3-1.4-1.1-.4-2.1-1-3-1.6-.9-.6-1.7-1.4-2.3-2.3-.6-.9-.9-2.1-.9-3.6s.7-3.6,2.1-4.8c1.4-1.2,3.4-1.8,6-1.8s2.9.1,4.1.3c1.2.2,2.2.5,2.9.9l-.9,2.8c-.6-.3-1.4-.6-2.5-.8s-2.4-.4-3.7-.4-2.9.4-3.7,1.1-1.2,1.6-1.2,2.6.3,1.8.9,2.4c.6.6,1.4,1.2,2.3,1.7.9.5,1.9,1,3,1.5s2.1,1.1,3,1.7c.9.7,1.7,1.4,2.3,2.4.6.9.9,2.1.9,3.4s-.2,2.1-.6,3c-.4.9-1,1.7-1.7,2.3-.8.6-1.7,1.1-2.8,1.5-1.1.3-2.3.5-3.7.5s-3.4-.1-4.6-.4c-1.2-.3-2.2-.6-2.8-.9l1-2.8c.6.3,1.4.6,2.5.9,1.1.3,2.4.5,3.8.5s1.6,0,2.3-.2c.7-.2,1.3-.4,1.9-.8.5-.4.9-.8,1.2-1.4.3-.5.5-1.2.5-1.9Z"/>
      <path d="M220.3,43.9v10.6c0,1,0,1.8.2,2.5.1.7.3,1.3.6,1.8s.6.8,1.1,1.1c.5.2,1.1.4,1.8.4s1.3-.1,1.8-.3c.5-.2,1-.5,1.4-.9s.8-.8,1.1-1.3c.3-.5.6-1,.8-1.5v-12.4h3v13.3c0,.9,0,1.8,0,2.8,0,1,.2,1.8.3,2.5h-2l-.7-2.9h-.2c-.6,1-1.3,1.8-2.3,2.4-1,.6-2.2,1-3.7,1s-1.9-.1-2.6-.4c-.8-.2-1.4-.7-1.9-1.2-.5-.6-.9-1.4-1.2-2.4-.3-1-.4-2.3-.4-3.8v-11.2h3Z"/>
      <path d="M237.7,38.2c0-.6.2-1.1.6-1.5.4-.4.9-.6,1.5-.6s1.1.2,1.5.6c.4.4.6.9.6,1.5s-.2,1-.6,1.4c-.4.4-.9.6-1.5.6s-1.1-.2-1.5-.6c-.4-.4-.6-.8-.6-1.4ZM238.3,43.9h3v18.6h-3v-18.6Z"/>
      <path d="M245.2,43.9h2.9v-3.7l3-.9v4.5h5.1v2.6h-5.1v10.3c0,1.3.2,2.2.5,2.7.3.5.9.8,1.6.8s1.2,0,1.6-.2c.4-.1.9-.3,1.5-.5l.7,2.3c-.7.3-1.4.6-2.2.8-.8.2-1.6.3-2.6.3-1.5,0-2.6-.4-3.2-1.3-.6-.9-.9-2.3-.9-4.3v-10.9h-2.9v-2.6Z"/>
      <path d="M273.4,61c-.7.6-1.7,1.1-2.8,1.4-1.1.3-2.3.5-3.6.5s-2.6-.2-3.7-.7c-1-.5-1.9-1.1-2.6-2-.7-.9-1.2-1.9-1.5-3.1s-.5-2.5-.5-4c0-3.2.7-5.6,2.1-7.3,1.4-1.7,3.4-2.5,6.1-2.5s1.7,0,2.5.3c.8.2,1.6.5,2.3,1.1.7.5,1.2,1.3,1.6,2.2.4,1,.6,2.2.6,3.8s0,1.7-.2,2.7h-11.9c0,1.1.1,2.1.3,2.9.2.8.6,1.6,1,2.1.5.6,1.1,1,1.8,1.3.8.3,1.7.5,2.8.5s1.7-.1,2.5-.4c.8-.3,1.5-.6,1.9-1l1.1,2.2ZM267,46.1c-1.5,0-2.6.4-3.5,1.2-.9.8-1.4,2.1-1.6,3.9h9.2c0-1.9-.4-3.2-1.1-4-.7-.8-1.7-1.1-3.1-1.1Z"/>
      <path d="M303,56.1c0,1.3,0,2.4,0,3.4s.1,2,.3,3h-2l-.7-2.6h-.1c-.5.9-1.2,1.6-2.2,2.2s-2,.9-3.3.9c-2.5,0-4.3-.8-5.5-2.3s-1.8-4-1.8-7.3.8-5.6,2.2-7.2c1.5-1.6,3.6-2.5,6.2-2.5s1.6,0,2.2.1c.5,0,1.1.3,1.7.5v-7.7h3v19.6ZM295.5,60.3c1.3,0,2.3-.3,3-1,.7-.7,1.3-1.7,1.5-3v-9.2c-.4-.3-1-.6-1.5-.7-.6-.1-1.3-.2-2.3-.2-1.7,0-3,.6-4,1.7-1,1.1-1.5,2.9-1.5,5.4s0,2,.2,2.8.4,1.6.8,2.2.9,1.1,1.5,1.5c.6.4,1.3.5,2.2.5Z"/>
      <path d="M322.3,61c-.7.6-1.7,1.1-2.8,1.4-1.1.3-2.3.5-3.6.5s-2.6-.2-3.7-.7c-1-.5-1.9-1.1-2.6-2-.7-.9-1.2-1.9-1.5-3.1-.3-1.2-.5-2.5-.5-4,0-3.2.7-5.6,2.1-7.3,1.4-1.7,3.4-2.5,6.1-2.5s1.7,0,2.5.3c.8.2,1.6.5,2.3,1.1.7.5,1.2,1.3,1.6,2.2.4,1,.6,2.2.6,3.8s0,1.7-.2,2.7h-11.9c0,1.1.1,2.1.3,2.9.2.8.6,1.6,1,2.1.5.6,1.1,1,1.8,1.3.8.3,1.7.5,2.8.5s1.7-.1,2.5-.4c.8-.3,1.5-.6,1.9-1l1.1,2.2ZM315.9,46.1c-1.5,0-2.6.4-3.5,1.2-.9.8-1.4,2.1-1.6,3.9h9.2c0-1.9-.4-3.2-1.1-4-.7-.8-1.7-1.1-3-1.1Z"/>
      <path d="M343.4,60.3c.8,0,1.6-.1,2.3-.4.7-.2,1.3-.6,1.9-1.1.5-.5.9-1.1,1.2-1.7.3-.7.4-1.4.4-2.2,0-1.7-.5-3-1.5-3.9-1-.8-2.4-1.3-4.3-1.3h-2.8v-1.1l5.4-8.3,1.7-1.6-2.4.4h-7.4v-2.8h13.3v1.1l-5.9,8.9-1.3,1.1h0c0,0,1.3-.2,1.3-.2,1,0,1.9.2,2.8.5.8.3,1.6.8,2.2,1.5.6.6,1.1,1.4,1.5,2.3.3.9.5,1.9.5,3s-.2,2.5-.7,3.6c-.5,1-1.1,1.9-1.9,2.6-.8.7-1.8,1.2-2.8,1.6-1.1.4-2.2.6-3.5.6s-2.1,0-3-.3-1.7-.4-2.3-.7l.8-2.6c.6.3,1.2.5,2,.7.8.2,1.7.3,2.6.3Z"/>
    </g>
  </g>
  <g>
    <rect x="185.7" y="128.8" width="87.8" height="117.9" rx="6.9" ry="6.9" style="fill: #fff; stroke: #231f20; stroke-miterlimit: 10; stroke-width: .8px;"/>
    <rect x="206.1" y="119.3" width="87.8" height="117.9" rx="6.9" ry="6.9" style="fill: #fff; stroke: #231f20; stroke-miterlimit: 10; stroke-width: .8px;"/>
    <rect x="226.5" y="109.9" width="87.8" height="117.9" rx="6.9" ry="6.9" style="fill: #fff; stroke: #231f20; stroke-miterlimit: 10; stroke-width: .8px;"/>
  </g>
</svg>