<?xml version="1.0" encoding="UTF-8"?>
<svg id="Layer_1" xmlns="http://www.w3.org/2000/svg" version="1.1" viewBox="0 0 500 316.4">
  <!-- Generator: Adobe Illustrator 29.6.1, SVG Export Plug-In . SVG Version: 2.1.1 Build 9)  -->
  <g style="isolation: isolate;">
    <g style="isolation: isolate;">
      <path d="M148.2,58.4h5.2v-14.7l.6-2.5-1.8,2.2-3.3,2.3-2-2.8,8.5-6.8h2.7v22.4h5.1v4.1h-14.8v-4.1Z"/>
      <path d="M171.8,53l-5.6-9.1h5.8l2.4,4,1,2.6,1.1-2.6,2.5-4h5.2l-5.6,8.9,6,9.7h-5.6l-2.9-4.5-1.1-2.8-1.2,2.8-2.9,4.5h-5.3l6-9.5Z"/>
    </g>
    <g style="isolation: isolate;">
      <path d="M209.9,55.9c0-1-.3-1.9-.9-2.5-.6-.7-1.4-1.2-2.3-1.7-.9-.5-1.9-1-3-1.4s-2.1-1-3-1.6c-.9-.6-1.7-1.4-2.3-2.3-.6-.9-.9-2.1-.9-3.6s.7-3.6,2.1-4.8,3.4-1.8,6-1.8,2.9.1,4.1.3c1.2.2,2.2.5,2.9.9l-.9,2.8c-.6-.3-1.4-.6-2.5-.8s-2.4-.4-3.7-.4-2.9.4-3.7,1.1-1.2,1.6-1.2,2.6.3,1.8.9,2.4c.6.6,1.4,1.2,2.3,1.7.9.5,1.9,1,3,1.5s2.1,1.1,3,1.7c.9.7,1.7,1.4,2.3,2.4.6.9.9,2.1.9,3.4s-.2,2.1-.6,3c-.4.9-1,1.7-1.7,2.3-.8.6-1.7,1.1-2.8,1.5-1.1.3-2.3.5-3.7.5s-3.4-.1-4.6-.4-2.2-.6-2.8-.9l1-2.8c.6.3,1.4.6,2.5.9,1.1.3,2.4.5,3.8.5s1.6,0,2.3-.2c.7-.2,1.3-.4,1.9-.8.5-.4.9-.8,1.2-1.4.3-.5.5-1.2.5-1.9Z"/>
      <path d="M220.3,43.9v10.6c0,1,0,1.8.2,2.5.1.7.3,1.3.6,1.8.3.5.6.8,1.1,1.1s1.1.4,1.8.4,1.3-.1,1.8-.3c.5-.2,1-.5,1.4-.9s.8-.8,1.1-1.3c.3-.5.6-1,.8-1.5v-12.4h3v13.3c0,.9,0,1.8,0,2.8,0,1,.2,1.8.3,2.5h-2l-.7-2.9h-.2c-.6,1-1.3,1.8-2.3,2.4-1,.6-2.2,1-3.7,1s-1.9-.1-2.6-.4c-.8-.2-1.4-.7-1.9-1.2-.5-.6-.9-1.4-1.2-2.4-.3-1-.4-2.3-.4-3.8v-11.2h3Z"/>
      <path d="M237.7,38.2c0-.6.2-1.1.6-1.5.4-.4.9-.6,1.5-.6s1.1.2,1.5.6c.4.4.6.9.6,1.5s-.2,1-.6,1.4c-.4.4-.9.6-1.5.6s-1.1-.2-1.5-.6c-.4-.4-.6-.8-.6-1.4ZM238.3,43.9h3v18.6h-3v-18.6Z"/>
      <path d="M245.2,43.9h2.9v-3.7l3-.9v4.5h5.1v2.6h-5.1v10.3c0,1.3.2,2.2.5,2.7.3.5.9.8,1.6.8s1.2,0,1.6-.2c.4-.1.9-.3,1.5-.5l.7,2.3c-.7.3-1.4.6-2.2.8s-1.6.3-2.6.3c-1.5,0-2.6-.4-3.2-1.3-.6-.9-.9-2.3-.9-4.3v-10.9h-2.9v-2.6Z"/>
      <path d="M273.4,61c-.7.6-1.7,1.1-2.8,1.4-1.1.3-2.3.5-3.6.5s-2.6-.2-3.7-.7c-1-.5-1.9-1.1-2.6-2-.7-.9-1.2-1.9-1.5-3.1s-.5-2.5-.5-4c0-3.2.7-5.6,2.1-7.3,1.4-1.7,3.4-2.5,6.1-2.5s1.7,0,2.5.3c.8.2,1.6.5,2.3,1.1.7.5,1.2,1.3,1.6,2.2.4,1,.6,2.2.6,3.8s0,1.7-.2,2.7h-11.9c0,1.1.1,2.1.3,2.9.2.8.6,1.6,1,2.1.5.6,1.1,1,1.8,1.3.8.3,1.7.5,2.8.5s1.7-.1,2.5-.4c.8-.3,1.5-.6,1.9-1l1.1,2.2ZM267.1,46.1c-1.5,0-2.6.4-3.5,1.2-.9.8-1.4,2.1-1.6,3.9h9.2c0-1.9-.4-3.2-1.1-4s-1.7-1.1-3-1.1Z"/>
      <path d="M303,56.1c0,1.3,0,2.4,0,3.4,0,1,.1,2,.3,3h-2l-.7-2.6h-.1c-.5.9-1.2,1.6-2.2,2.2-.9.6-2,.9-3.3.9-2.5,0-4.3-.8-5.5-2.3s-1.8-4-1.8-7.3.8-5.6,2.3-7.2c1.5-1.6,3.6-2.5,6.2-2.5s1.6,0,2.2.1c.5,0,1.1.3,1.7.5v-7.7h3v19.6ZM295.5,60.3c1.3,0,2.3-.3,3-1,.7-.7,1.3-1.7,1.5-3v-9.2c-.4-.3-1-.6-1.5-.7-.6-.1-1.3-.2-2.3-.2-1.7,0-3,.6-4,1.7-1,1.1-1.5,2.9-1.5,5.4s0,2,.2,2.8.4,1.6.8,2.2c.4.6.9,1.1,1.5,1.5.6.4,1.3.5,2.2.5Z"/>
      <path d="M322.3,61c-.7.6-1.7,1.1-2.8,1.4-1.1.3-2.3.5-3.6.5s-2.6-.2-3.7-.7c-1-.5-1.9-1.1-2.6-2-.7-.9-1.2-1.9-1.5-3.1s-.5-2.5-.5-4c0-3.2.7-5.6,2.1-7.3s3.4-2.5,6.1-2.5,1.7,0,2.5.3c.8.2,1.6.5,2.3,1.1s1.2,1.3,1.6,2.2c.4,1,.6,2.2.6,3.8s0,1.7-.2,2.7h-11.9c0,1.1.1,2.1.3,2.9s.6,1.6,1,2.1c.5.6,1.1,1,1.8,1.3.8.3,1.7.5,2.8.5s1.7-.1,2.5-.4c.8-.3,1.5-.6,1.9-1l1.1,2.2ZM315.9,46.1c-1.5,0-2.6.4-3.5,1.2-.9.8-1.4,2.1-1.6,3.9h9.2c0-1.9-.4-3.2-1.1-4-.7-.8-1.7-1.1-3-1.1Z"/>
      <path d="M353,54.6c0,1.1-.2,2.2-.5,3.2-.3,1-.9,1.9-1.5,2.6-.7.8-1.5,1.4-2.5,1.8-1,.4-2.1.7-3.4.7s-2.4-.2-3.3-.6c-1-.4-1.8-1-2.6-1.8-.7-.8-1.3-1.7-1.7-2.9-.4-1.1-.6-2.5-.6-3.9,0-2.5.3-4.7.9-6.8.6-2.1,1.5-3.9,2.6-5.4s2.4-2.8,4-3.7c1.5-1,3.2-1.6,5-1.8l.6,2.4c-1.4.2-2.7.7-3.8,1.4-1.1.7-2.1,1.6-3,2.6s-1.6,2.2-2.1,3.4c-.5,1.3-.9,2.6-1.1,3.9.4-.7,1.1-1.3,2-1.8.9-.6,2.1-.8,3.5-.8,2.3,0,4.2.7,5.5,2,1.3,1.3,2,3.2,2,5.6ZM349.9,54.9c0-1.8-.4-3.1-1.2-4s-2.1-1.3-3.8-1.3-2.3.3-3.1.9c-.9.6-1.5,1.3-1.8,2,0,.3,0,.6,0,.9v.7c0,.8.1,1.5.3,2.3s.5,1.4,1,2c.4.6,1,1.1,1.7,1.4.7.4,1.4.5,2.3.5s1.4-.1,2-.4c.6-.3,1.1-.6,1.5-1.1.4-.5.8-1,1-1.7.2-.7.4-1.4.4-2.2Z"/>
    </g>
  </g>
  <g>
    <rect x="145.8" y="168.3" width="87.8" height="117.9" rx="7" ry="7" style="fill: #fff; stroke: #231f20; stroke-miterlimit: 10; stroke-width: .8px;"/>
    <rect x="169.9" y="158.9" width="87.8" height="117.9" rx="7" ry="7" style="fill: #fff; stroke: #231f20; stroke-miterlimit: 10; stroke-width: .8px;"/>
    <rect x="194" y="149.4" width="87.8" height="117.9" rx="7" ry="7" style="fill: #fff; stroke: #231f20; stroke-miterlimit: 10; stroke-width: .8px;"/>
    <rect x="218.2" y="139.9" width="87.8" height="117.9" rx="7" ry="7" style="fill: #fff; stroke: #231f20; stroke-miterlimit: 10; stroke-width: .8px;"/>
    <rect x="242.3" y="130.5" width="87.8" height="117.9" rx="7" ry="7" style="fill: #fff; stroke: #231f20; stroke-miterlimit: 10; stroke-width: .8px;"/>
    <rect x="266.4" y="121" width="87.8" height="117.9" rx="7" ry="7" style="fill: #fff; stroke: #231f20; stroke-miterlimit: 10; stroke-width: .8px;"/>
  </g>
  <g>
    <path d="M162.9,95.4c-.5.4-1.2.7-1.9.8s-1.6.2-2.5.2-2.1-.2-3-.5c-.9-.4-1.7-.9-2.4-1.7-.7-.7-1.2-1.7-1.7-2.9-.4-1.2-.6-2.5-.6-4.1s.2-3.1.7-4.2c.4-1.2,1-2.1,1.8-2.8s1.6-1.3,2.5-1.6c.9-.3,1.8-.5,2.8-.5s1.8,0,2.5.2,1.2.3,1.7.4l-.5,1.9c-.8-.4-2-.6-3.5-.6s-1.4.1-2.1.4c-.7.3-1.3.7-1.8,1.2-.5.6-1,1.3-1.3,2.3-.3.9-.5,2.1-.5,3.4s.2,2.3.5,3.2c.3.9.7,1.7,1.3,2.3s1.2,1.1,1.9,1.4c.7.3,1.5.5,2.4.5s1.4,0,2-.2c.6-.2,1-.3,1.4-.6l.5,1.7Z"/>
    <path d="M164.2,89.8c0-2.2.5-3.8,1.4-4.9,1-1.1,2.3-1.7,4.1-1.7s1.8.2,2.5.5c.7.3,1.3.8,1.7,1.3s.8,1.3,1,2.1c.2.8.3,1.7.3,2.7,0,2.2-.5,3.8-1.4,4.9-1,1.1-2.3,1.7-4.1,1.7s-1.8-.2-2.5-.5c-.7-.3-1.3-.8-1.7-1.3s-.8-1.3-1-2.1c-.2-.8-.3-1.7-.3-2.7ZM166.3,89.8c0,.6,0,1.3.2,1.9.1.6.3,1.1.6,1.6.3.4.6.8,1.1,1.1.4.3,1,.4,1.6.4,2.3,0,3.5-1.6,3.5-4.9s0-1.3-.2-1.9c-.1-.6-.3-1.1-.6-1.6s-.6-.8-1.1-1.1-1-.4-1.6-.4c-2.3,0-3.5,1.6-3.5,4.9Z"/>
    <path d="M180.4,83.5v7.3c0,.7,0,1.2.1,1.7,0,.5.2.9.4,1.2s.4.6.8.8c.3.2.7.3,1.2.3s.9,0,1.2-.2c.4-.1.7-.3,1-.6.3-.3.5-.5.7-.9.2-.3.4-.7.5-1.1v-8.5h2v9.1c0,.6,0,1.2,0,1.9,0,.7.1,1.2.2,1.7h-1.4l-.5-2h-.1c-.4.7-.9,1.2-1.6,1.7-.7.4-1.5.7-2.5.7s-1.3,0-1.8-.2-.9-.4-1.3-.9c-.3-.4-.6-1-.8-1.6-.2-.7-.3-1.6-.3-2.6v-7.7h2Z"/>
    <path d="M194.5,93.1c0,.6.1,1,.3,1.3.2.3.5.4.9.4s.5,0,.7,0c.3,0,.5-.1.9-.2l.2,1.6c-.3.1-.6.2-1.1.3s-.9.1-1.3.1c-.8,0-1.4-.2-1.9-.6s-.7-1.2-.7-2.2v-15.3h2v14.7Z"/>
    <path d="M209,95.2c-.5.4-1.1.7-1.9,1s-1.6.4-2.5.4-1.8-.2-2.5-.5c-.7-.3-1.3-.8-1.8-1.3s-.8-1.3-1-2.1c-.2-.8-.3-1.7-.3-2.7,0-2.2.5-3.8,1.5-5s2.3-1.7,4.1-1.7,1.2,0,1.7.2c.6.1,1.1.4,1.6.7s.8.9,1.1,1.5c.3.7.4,1.5.4,2.6s0,1.2-.2,1.9h-8.2c0,.7,0,1.4.2,2,.2.6.4,1.1.7,1.5.3.4.7.7,1.3.9.5.2,1.1.3,1.9.3s1.2-.1,1.7-.3c.6-.2,1-.4,1.3-.7l.8,1.5ZM204.6,84.9c-1,0-1.8.3-2.4.8-.6.5-1,1.4-1.1,2.7h6.3c0-1.3-.2-2.2-.7-2.7s-1.2-.8-2.1-.8Z"/>
    <path d="M214.4,83.5v7.3c0,.7,0,1.2.1,1.7,0,.5.2.9.4,1.2s.4.6.8.8c.3.2.7.3,1.2.3s.9,0,1.2-.2c.4-.1.7-.3,1-.6.3-.3.5-.5.7-.9.2-.3.4-.7.5-1.1v-8.5h2v9.1c0,.6,0,1.2,0,1.9,0,.7.1,1.2.2,1.7h-1.4l-.5-2h-.1c-.4.7-.9,1.2-1.6,1.7-.7.4-1.5.7-2.5.7s-1.3,0-1.8-.2-.9-.4-1.3-.9c-.3-.4-.6-1-.8-1.6-.2-.7-.3-1.6-.3-2.6v-7.7h2Z"/>
    <path d="M232.3,85.4c-.5-.2-1-.3-1.5-.3-.7,0-1.3.2-1.7.6-.4.4-.7.9-.8,1.5v8.9h-2v-12.7h1.4l.4,1.6h.1c.3-.6.7-1,1.2-1.3.4-.3,1-.5,1.7-.5s1,0,1.7.3l-.4,2Z"/>
    <path d="M240.6,92.7c0-.5-.2-.9-.5-1.2-.3-.3-.7-.5-1.1-.7s-.9-.4-1.5-.6c-.5-.2-1-.4-1.5-.7-.4-.3-.8-.6-1.1-1.1-.3-.4-.5-1-.5-1.8,0-1.2.3-2.1,1-2.7s1.7-.9,2.9-.9,1.7,0,2.3.2,1.2.4,1.6.6l-.5,1.7c-.4-.2-.9-.4-1.4-.5-.6-.1-1.1-.2-1.8-.2s-1.3.1-1.6.4c-.3.3-.5.7-.5,1.3s.2.8.5,1,.7.5,1.1.7.9.4,1.5.6,1,.4,1.5.7c.4.3.8.7,1.1,1.2.3.5.5,1.1.5,1.8s0,1.1-.3,1.5-.5.9-.8,1.2c-.4.3-.8.6-1.4.8-.6.2-1.2.3-1.9.3s-1.8,0-2.5-.3c-.7-.2-1.2-.4-1.7-.7l.6-1.7c.4.2.9.4,1.5.6.6.2,1.3.3,1.9.3s1.3-.1,1.8-.4c.5-.3.7-.8.7-1.6Z"/>
    <path d="M252.3,84.4c.6-.4,1.4-.7,2.3-.9s1.8-.3,2.7-.3,1.6.1,2.1.4c.5.2.9.5,1.2.9.3.4.5.8.6,1.3,0,.5.1.9.1,1.4,0,1,0,2,0,3s0,1.9,0,2.7,0,1.2,0,1.8.1,1.1.3,1.6h-1.5l-.5-1.8h-.1c-.2.2-.3.5-.6.7-.2.2-.5.4-.8.6-.3.2-.7.3-1.1.4s-.9.2-1.5.2-1,0-1.5-.3c-.5-.2-.9-.4-1.2-.7-.3-.3-.6-.7-.8-1.1-.2-.4-.3-.9-.3-1.5s.2-1.4.5-1.9c.3-.5.7-.9,1.3-1.2.6-.3,1.2-.5,2-.6.8-.1,1.6-.2,2.6-.2h.7c.2,0,.5,0,.7,0,0-.5,0-1,0-1.4,0-.9-.2-1.6-.6-2-.4-.4-1.1-.6-2-.6s-.6,0-.9,0c-.3,0-.7.1-1,.2-.3,0-.7.2-1,.3-.3.1-.6.2-.8.4l-.6-1.6ZM255.9,94.6c.5,0,.9,0,1.3-.2.4-.1.7-.3,1-.5.3-.2.5-.4.7-.6s.3-.5.4-.7v-2.1c-.2,0-.5,0-.7,0-.2,0-.5,0-.7,0-.5,0-1,0-1.5,0-.5,0-.9.2-1.3.3s-.7.4-.9.7c-.2.3-.3.6-.3,1.1s.2,1.1.6,1.5c.4.4,1,.6,1.6.6Z"/>
    <path d="M267.4,93.1c0,.6.1,1,.3,1.3.2.3.5.4.9.4s.5,0,.7,0c.3,0,.5-.1.9-.2l.2,1.6c-.3.1-.6.2-1.1.3s-.9.1-1.3.1c-.8,0-1.4-.2-1.9-.6s-.7-1.2-.7-2.2v-15.3h2v14.7Z"/>
    <path d="M270.8,83.5h2v-2.5l2-.6v3.1h3.5v1.8h-3.5v7c0,.9.1,1.5.3,1.9.2.4.6.5,1.1.5s.8,0,1.1-.1c.3,0,.6-.2,1-.4l.5,1.6c-.5.2-1,.4-1.5.5s-1.1.2-1.8.2c-1,0-1.8-.3-2.2-.9s-.6-1.6-.6-2.9v-7.4h-2v-1.8Z"/>
    <path d="M290.2,95.2c-.5.4-1.1.7-1.9,1s-1.6.4-2.5.4-1.8-.2-2.5-.5c-.7-.3-1.3-.8-1.8-1.3s-.8-1.3-1-2.1c-.2-.8-.3-1.7-.3-2.7,0-2.2.5-3.8,1.5-5s2.3-1.7,4.1-1.7,1.2,0,1.7.2c.6.1,1.1.4,1.6.7s.8.9,1.1,1.5c.3.7.4,1.5.4,2.6s0,1.2-.2,1.9h-8.2c0,.7,0,1.4.2,2,.2.6.4,1.1.7,1.5.3.4.7.7,1.3.9.5.2,1.1.3,1.9.3s1.2-.1,1.7-.3c.6-.2,1-.4,1.3-.7l.8,1.5ZM285.8,84.9c-1,0-1.8.3-2.4.8-.6.5-1,1.4-1.1,2.7h6.3c0-1.3-.2-2.2-.7-2.7s-1.2-.8-2.1-.8Z"/>
    <path d="M299.8,85.4c-.5-.2-1-.3-1.5-.3-.7,0-1.3.2-1.7.6-.4.4-.7.9-.8,1.5v8.9h-2v-12.7h1.4l.4,1.6h.1c.3-.6.7-1,1.2-1.3.4-.3,1-.5,1.7-.5s1,0,1.7.3l-.4,2Z"/>
    <path d="M310.6,96.2v-7.3c0-1.3-.2-2.3-.6-3-.4-.7-1.1-1-2.1-1s-1.6.2-2.2.7-1,1.1-1.2,1.8v8.7h-2v-12.7h1.4l.4,1.6h.1c.4-.5,1-1,1.6-1.3.7-.3,1.5-.5,2.5-.5s1.3,0,1.8.2,1,.4,1.3.9c.3.4.6,1,.8,1.6.2.7.3,1.6.3,2.6v7.7h-2Z"/>
    <path d="M325.7,95.2c-.5.4-1.1.7-1.9,1s-1.6.4-2.5.4-1.8-.2-2.5-.5c-.7-.3-1.3-.8-1.8-1.3s-.8-1.3-1-2.1c-.2-.8-.3-1.7-.3-2.7,0-2.2.5-3.8,1.5-5s2.3-1.7,4.1-1.7,1.2,0,1.7.2c.6.1,1.1.4,1.6.7s.8.9,1.1,1.5c.3.7.4,1.5.4,2.6s0,1.2-.2,1.9h-8.2c0,.7,0,1.4.2,2,.2.6.4,1.1.7,1.5.3.4.7.7,1.3.9.5.2,1.1.3,1.9.3s1.2-.1,1.7-.3c.6-.2,1-.4,1.3-.7l.8,1.5ZM321.3,84.9c-1,0-1.8.3-2.4.8-.6.5-1,1.4-1.1,2.7h6.3c0-1.3-.2-2.2-.7-2.7s-1.2-.8-2.1-.8ZM321.8,77.9h2.3v.5l-2.6,3.3h-1.2l1.5-3.8Z"/>
    <path d="M338.3,95.2c-.5.4-1.1.7-1.9,1s-1.6.4-2.5.4-1.8-.2-2.5-.5c-.7-.3-1.3-.8-1.8-1.3s-.8-1.3-1-2.1c-.2-.8-.3-1.7-.3-2.7,0-2.2.5-3.8,1.5-5s2.3-1.7,4.1-1.7,1.2,0,1.7.2c.6.1,1.1.4,1.6.7s.8.9,1.1,1.5c.3.7.4,1.5.4,2.6s0,1.2-.2,1.9h-8.2c0,.7,0,1.4.2,2,.2.6.4,1.1.7,1.5.3.4.7.7,1.3.9.5.2,1.1.3,1.9.3s1.2-.1,1.7-.3c.6-.2,1-.4,1.3-.7l.8,1.5ZM333.9,84.9c-1,0-1.8.3-2.4.8-.6.5-1,1.4-1.1,2.7h6.3c0-1.3-.2-2.2-.7-2.7s-1.2-.8-2.1-.8Z"/>
    <path d="M347.5,92.7c0-.5-.2-.9-.5-1.2-.3-.3-.7-.5-1.1-.7s-.9-.4-1.5-.6c-.5-.2-1-.4-1.5-.7-.4-.3-.8-.6-1.1-1.1-.3-.4-.5-1-.5-1.8,0-1.2.3-2.1,1-2.7s1.7-.9,2.9-.9,1.7,0,2.3.2,1.2.4,1.6.6l-.5,1.7c-.4-.2-.9-.4-1.4-.5-.6-.1-1.1-.2-1.8-.2s-1.3.1-1.6.4c-.3.3-.5.7-.5,1.3s.2.8.5,1,.7.5,1.1.7.9.4,1.5.6,1,.4,1.5.7c.4.3.8.7,1.1,1.2.3.5.5,1.1.5,1.8s0,1.1-.3,1.5-.5.9-.8,1.2c-.4.3-.8.6-1.4.8-.6.2-1.2.3-1.9.3s-1.8,0-2.5-.3c-.7-.2-1.2-.4-1.7-.7l.6-1.7c.4.2.9.4,1.5.6.6.2,1.3.3,1.9.3s1.3-.1,1.8-.4c.5-.3.7-.8.7-1.6Z"/>
  </g>
  <g>
    <path d="M180.3,181.4v-.2c.8-.8,1.5-1.8,1.6-3s0-1.1-.1-.9c-.7,2.2-3.5,2.9-5.3,1.4-2.9-2.3-.8-6.5,2.5-6.2s.5-.3.3-.6h0s0,0,0,0c-1.7-3,1.2-6.5,4.4-5.3,2.2.8,3,3.4,1.9,5.3s0,.6.3.5c2.5-.1,4.5,2.3,3.5,4.9-1.1,2.8-5.4,2.9-6.4,0-.2-.2,0,1.3,0,1.4.1.6.5,1.3.8,1.8s.6.5.8.8v.2h-4.3Z" style="fill: #292929;"/>
    <path d="M180.2,198.8v-.2c0-.1.5-.6.7-.8.4-.5.7-1.2.9-1.9s-.4-.6-.6-.3-.3.4-.5.5c-2.2,1.4-4.9-.2-5.1-2.7s3.2-5.4,5.2-7.6c.6-.7,1.1-1.4,1.6-2,0,0,.2,0,.2.1.4.4.9,1.1,1.3,1.6,2,2.2,5.6,4.4,5.5,7.7,0,3.2-4.2,4.9-6,1.9s-.3-.7-.4-.6c0,1.1.2,2.2.9,3.1s.3.3.4.4c.2.2,0,.6-.3.6h-3.7,0Z" style="fill: #292929;"/>
  </g>
  <g>
    <path d="M228.5,162.5v-.2c.8-.8,1.5-1.8,1.6-3s0-1.1-.1-.9c-.7,2.2-3.5,2.9-5.3,1.4-2.9-2.3-.8-6.5,2.5-6.2s.5-.3.3-.6h0s0,0,0,0c-1.7-3,1.2-6.5,4.4-5.3,2.2.8,3,3.4,1.9,5.3s0,.6.3.5c2.5-.1,4.5,2.3,3.5,4.9-1.1,2.8-5.4,2.9-6.4,0-.2-.2,0,1.3,0,1.4.1.6.5,1.3.8,1.8s.6.5.8.8v.2h-4.3Z" style="fill: #292929;"/>
    <path d="M228.5,179.9v-.2c0-.1.5-.6.7-.8.4-.5.7-1.2.9-1.9s-.4-.6-.6-.3-.3.4-.5.5c-2.2,1.4-4.9-.2-5.1-2.7s3.2-5.4,5.2-7.6c.6-.7,1.1-1.4,1.6-2,0,0,.2,0,.2.1.4.4.9,1.1,1.3,1.6,2,2.2,5.6,4.4,5.5,7.7,0,3.2-4.2,4.9-6,1.9s-.3-.7-.4-.6c0,1.1.2,2.2.9,3.1s.3.3.4.4c.2.2,0,.6-.3.6h-3.7,0Z" style="fill: #292929;"/>
  </g>
  <g>
    <path d="M276.8,142.4v-.2c.8-.8,1.5-1.8,1.6-3s0-1.1-.1-.9c-.7,2.2-3.5,2.9-5.3,1.4-2.9-2.3-.8-6.5,2.5-6.2s.5-.3.3-.6h0s0,0,0,0c-1.7-3,1.2-6.5,4.4-5.3,2.2.8,3,3.4,1.9,5.3s0,.6.3.5c2.5-.1,4.5,2.3,3.5,4.9-1.1,2.8-5.4,2.9-6.4,0-.2-.2,0,1.3,0,1.4.1.6.5,1.3.8,1.8s.6.5.8.8v.2h-4.3Z" style="fill: #292929;"/>
    <path d="M276.7,159.8v-.2c0-.1.5-.6.7-.8.4-.5.7-1.2.9-1.9s-.4-.6-.6-.3-.3.4-.5.5c-2.2,1.4-4.9-.2-5.1-2.7s3.2-5.4,5.2-7.6c.6-.7,1.1-1.4,1.6-2,0,0,.2,0,.2.1.4.4.9,1.1,1.3,1.6,2,2.2,5.6,4.4,5.5,7.7,0,3.2-4.2,4.9-6,1.9s-.3-.7-.4-.6c0,1.1.2,2.2.9,3.1s.3.3.4.4c.2.2,0,.6-.3.6h-3.7,0Z" style="fill: #292929;"/>
  </g>
  <g>
    <path d="M158.4,192.5c-.5-.9-1.2-1.8-2-2.7-2.3-2.7-6.6-5.3-5.3-9.5.7-2.4,3.4-3.6,5.6-2.2s1.3,1.4,1.7,2.2c.5-1.2,1.2-2.2,2.5-2.6,3.2-1,5.4,2,5,5s-4.1,5.5-6,7.8c-.4.5-1,1.5-1.4,1.9-.4.4,0,.1-.2.1h0Z" style="fill: #f75750;"/>
    <path d="M158.3,209.7c-1.5-2.8-3.6-5.1-5.7-7.5,2.2-2.2,4.1-4.7,5.7-7.4.1,0,.1,0,.2.1.4.5.9,1.5,1.4,2.1.8,1.2,1.7,2.3,2.7,3.4.5.6,1.2,1.2,1.7,1.8-2.2,2.2-4.1,4.7-5.7,7.3h-.2c0,0,0,0,0,0Z" style="fill: #f75750;"/>
  </g>
  <g>
    <path d="M206.2,172.8c-.5-.9-1.2-1.8-2-2.7-2.3-2.7-6.6-5.3-5.3-9.5.7-2.4,3.4-3.6,5.6-2.2s1.3,1.4,1.7,2.2c.5-1.2,1.2-2.2,2.5-2.6,3.2-1,5.4,2,5,5s-4.1,5.5-6,7.8c-.4.5-1,1.5-1.4,1.9-.4.4,0,.1-.2.1h0Z" style="fill: #f75750;"/>
    <path d="M206.2,190c-1.5-2.8-3.6-5.1-5.7-7.5,2.2-2.2,4.1-4.7,5.7-7.4.1,0,.1,0,.2.1.4.5.9,1.5,1.4,2.1.8,1.2,1.7,2.3,2.7,3.4.5.6,1.2,1.2,1.7,1.8-2.2,2.2-4.1,4.7-5.7,7.3h-.2c0,0,0,0,0,0Z" style="fill: #f75750;"/>
  </g>
  <g>
    <path d="M254.5,151c-.5-.9-1.2-1.8-2-2.7-2.3-2.7-6.6-5.3-5.3-9.5.7-2.4,3.4-3.6,5.6-2.2s1.3,1.4,1.7,2.2c.5-1.2,1.2-2.2,2.5-2.6,3.2-1,5.4,2,5,5s-4.1,5.5-6,7.8c-.4.5-1,1.5-1.4,1.9-.4.4,0,.1-.2.1h0Z" style="fill: #f75750;"/>
    <path d="M254.4,168.2c-1.5-2.8-3.6-5.1-5.7-7.5,2.2-2.2,4.1-4.7,5.7-7.4.1,0,.1,0,.2.1.4.5.9,1.5,1.4,2.1.8,1.2,1.7,2.3,2.7,3.4.5.6,1.2,1.2,1.7,1.8-2.2,2.2-4.1,4.7-5.7,7.3h-.2c0,0,0,0,0,0Z" style="fill: #f75750;"/>
  </g>
</svg>