<?xml version="1.0" encoding="UTF-8"?>
<svg id="Layer_1" xmlns="http://www.w3.org/2000/svg" version="1.1" viewBox="0 0 500 262.7">
  <!-- Generator: Adobe Illustrator 29.6.1, SVG Export Plug-In . SVG Version: 2.1.1 Build 9)  -->
  <g style="isolation: isolate;">
    <g style="isolation: isolate;">
      <path d="M217.9,58.7c1.6,0,2.9-.4,3.8-1.2s1.3-1.9,1.3-3.3-.5-2.6-1.5-3.3c-1-.7-2.5-1-4.4-1h-2.9c0,.1,0-13.5,0-13.5h12.8v4.5h-8.6v5h1.5c1.2,0,2.3.1,3.3.5,1,.4,1.8.9,2.5,1.7.7.7,1.2,1.6,1.6,2.6.4,1,.6,2.1.6,3.4s-.2,2.8-.7,3.9-1.2,2-2.1,2.8c-.9.7-1.9,1.3-3.1,1.7s-2.5.6-3.9.6-2.2,0-3.2-.3c-1-.2-1.9-.4-2.5-.8l1.3-4c.6.2,1.2.4,1.9.6.7.1,1.5.2,2.5.2Z"/>
      <path d="M237.1,53l-5.6-9.1h5.8l2.4,4,1,2.6,1.1-2.6,2.5-4h5.2l-5.6,8.9,6,9.7h-5.6l-2.9-4.5-1.1-2.8-1.2,2.8-2.9,4.5h-5.3l6-9.5Z"/>
    </g>
    <g style="isolation: isolate;">
      <path d="M274.7,55.3h-9.5l-2.6,7.2h-3.1l9.9-26.4h1.4l9.9,26.4h-3.3l-2.7-7.2ZM266.1,52.6h7.6l-2.9-7.9-.9-3.9h0l-.9,4-2.9,7.8Z"/>
      <path d="M292,57.4c0-.7-.2-1.3-.7-1.7-.4-.4-1-.8-1.7-1.1-.7-.3-1.4-.6-2.2-.8-.8-.3-1.5-.6-2.2-1-.7-.4-1.2-.9-1.7-1.6-.4-.6-.7-1.5-.7-2.6,0-1.8.5-3.1,1.5-3.9,1-.8,2.4-1.2,4.2-1.2s2.5.1,3.4.4c.9.2,1.7.5,2.4.8l-.7,2.5c-.6-.3-1.3-.5-2.1-.7-.8-.2-1.7-.3-2.6-.3s-1.9.2-2.4.6c-.5.4-.8,1-.8,1.9s.2,1.1.7,1.5c.4.4,1,.7,1.7,1,.7.3,1.4.6,2.2.8.8.3,1.5.6,2.2,1.1.7.4,1.2,1,1.7,1.7.4.7.7,1.6.7,2.7s-.1,1.5-.4,2.2c-.3.7-.7,1.3-1.2,1.8-.5.5-1.2.9-2,1.2-.8.3-1.8.4-2.8.4s-2.6-.1-3.6-.4c-1-.3-1.8-.6-2.5-1l.9-2.5c.6.3,1.3.6,2.2.9.9.3,1.8.4,2.8.4s1.9-.2,2.6-.6c.7-.4,1-1.2,1-2.3Z"/>
    </g>
  </g>
  <g>
    <rect x="164.2" y="105.2" width="87.8" height="117.9" rx="7" ry="7" style="fill: #fff; stroke: #231f20; stroke-miterlimit: 10; stroke-width: .8px;"/>
    <rect x="186.7" y="105.2" width="87.8" height="117.9" rx="7" ry="7" style="fill: #fff; stroke: #231f20; stroke-miterlimit: 10; stroke-width: .8px;"/>
    <rect x="209.3" y="105.2" width="87.8" height="117.9" rx="7" ry="7" style="fill: #fff; stroke: #231f20; stroke-miterlimit: 10; stroke-width: .8px;"/>
    <rect x="231.8" y="105.2" width="87.8" height="117.9" rx="7" ry="7" style="fill: #fff; stroke: #231f20; stroke-miterlimit: 10; stroke-width: .8px;"/>
    <rect x="254.3" y="105.2" width="87.8" height="117.9" rx="7" ry="7" style="fill: #fff; stroke: #231f20; stroke-miterlimit: 10; stroke-width: .8px;"/>
  </g>
  <path d="M178.5,126h-5.8l-1.6,4.4h-1.9l6-16.1h.9l6,16.1h-2l-1.6-4.4ZM173.3,124.4h4.6l-1.8-4.8-.6-2.4h0l-.6,2.4-1.7,4.8Z"/>
  <path d="M200.9,126h-5.8l-1.6,4.4h-1.9l6-16.1h.9l6,16.1h-2l-1.6-4.4ZM195.7,124.4h4.6l-1.8-4.8-.6-2.4h0l-.6,2.4-1.7,4.8Z"/>
  <path d="M223.3,126h-5.8l-1.6,4.4h-1.9l6-16.1h.9l6,16.1h-2l-1.6-4.4ZM218.1,124.4h4.6l-1.8-4.8-.6-2.4h0l-.6,2.4-1.7,4.8Z"/>
  <path d="M245.7,126h-5.8l-1.6,4.4h-1.9l6-16.1h.9l6,16.1h-2l-1.6-4.4ZM240.5,124.4h4.6l-1.8-4.8-.6-2.4h0l-.6,2.4-1.7,4.8Z"/>
  <path d="M268.1,126h-5.8l-1.6,4.4h-1.9l6-16.1h.9l6,16.1h-2l-1.6-4.4ZM262.9,124.4h4.6l-1.8-4.8-.6-2.4h0l-.6,2.4-1.7,4.8Z"/>
</svg>