<?xml version="1.0" encoding="UTF-8"?>
<svg id="Layer_1" xmlns="http://www.w3.org/2000/svg" version="1.1" viewBox="0 0 500 286.1">
  <!-- Generator: Adobe Illustrator 29.6.1, SVG Export Plug-In . SVG Version: 2.1.1 Build 9)  -->
  <g style="isolation: isolate;">
    <g style="isolation: isolate;">
      <path d="M145.2,58.4h5.2v-14.7l.6-2.5-1.8,2.2-3.3,2.3-2-2.8,8.5-6.8h2.7v22.4h5.1v4.1h-14.8v-4.1Z"/>
      <path d="M168.8,53l-5.6-9.1h5.8l2.4,4,1,2.6,1.1-2.6,2.5-4h5.2l-5.6,8.9,6,9.7h-5.6l-2.9-4.5-1.1-2.8-1.2,2.8-2.9,4.5h-5.3l6-9.5Z"/>
    </g>
    <g style="isolation: isolate;">
      <path d="M200,60.3c1.7,0,3.1-.5,4.2-1.5,1.1-1,1.7-2.4,1.7-4.3s-.6-3.2-1.7-4.1c-1.1-.9-2.6-1.3-4.6-1.3l-3.1.2v-12.9h11.6v2.8h-8.8v7.4h1.6c2.5,0,4.4.6,5.8,2,1.4,1.3,2.1,3.3,2.1,5.8s-.2,2.6-.7,3.7-1.1,2-1.9,2.7c-.8.7-1.8,1.3-2.8,1.6-1.1.4-2.3.6-3.5.6s-2.1,0-2.8-.2c-.8-.1-1.5-.3-2.2-.6l.8-2.5c.6.2,1.2.4,1.8.5s1.5.2,2.4.2Z"/>
      <path d="M225.1,43.9h2l.6,2.2h.1c.6-.9,1.3-1.5,2.2-2,.9-.5,1.9-.7,3.1-.7,2.5,0,4.3.7,5.5,2.2,1.2,1.5,1.8,3.9,1.8,7.2s-.2,3-.6,4.2c-.4,1.3-1,2.3-1.7,3.2-.7.9-1.6,1.5-2.7,2-1.1.5-2.2.7-3.5.7s-1.6,0-2.2-.2c-.5-.1-1.1-.3-1.7-.6v7.7h-3v-26ZM232.6,46.1c-1.3,0-2.3.3-3,1-.7.7-1.2,1.7-1.5,3v9.2c.4.3,1,.6,1.5.8.6.2,1.3.3,2.3.3,1.7,0,3.1-.6,4.1-1.9s1.5-3.2,1.5-5.6,0-1.9-.3-2.8c-.2-.8-.5-1.5-.8-2.1-.4-.6-.9-1-1.5-1.4-.6-.3-1.4-.5-2.3-.5Z"/>
      <path d="M244.9,45.3c.9-.6,2-1,3.3-1.3,1.3-.3,2.6-.4,3.9-.4s2.3.2,3.1.5c.8.3,1.4.8,1.8,1.4.4.6.7,1.2.8,1.8.1.7.2,1.3.2,2,0,1.5,0,2.9-.1,4.4s-.1,2.8-.1,4,0,1.8.1,2.6c0,.8.2,1.6.4,2.3h-2.2l-.8-2.6h-.2c-.2.3-.5.7-.8,1s-.7.6-1.2.9c-.5.3-1,.5-1.6.7s-1.3.3-2.1.3-1.5-.1-2.2-.4c-.7-.2-1.3-.6-1.8-1.1-.5-.5-.9-1-1.2-1.7-.3-.6-.4-1.4-.4-2.2s.2-2,.7-2.7c.4-.7,1.1-1.3,1.9-1.7.8-.4,1.8-.7,2.9-.9,1.1-.2,2.4-.3,3.7-.3h1c.3,0,.7,0,1,0,0-.7.1-1.4.1-2,0-1.4-.3-2.3-.8-2.9-.5-.5-1.5-.8-3-.8s-.9,0-1.4,0c-.5,0-1,.2-1.5.3-.5.1-1,.3-1.5.4s-.9.4-1.2.6l-.9-2.3ZM250.2,60.2c.7,0,1.3,0,1.9-.3.5-.2,1-.4,1.4-.7.4-.3.7-.6,1-.9.3-.3.5-.7.6-1v-3.1c-.3,0-.7,0-1.1,0-.4,0-.7,0-1.1,0-.8,0-1.5,0-2.3.1-.7,0-1.4.2-1.9.5s-1,.6-1.3,1-.5.9-.5,1.5.3,1.6.9,2.1c.6.6,1.4.8,2.4.8Z"/>
      <path d="M272.5,46.8c-.7-.2-1.5-.4-2.1-.4-1.1,0-1.9.3-2.5.9-.6.6-1,1.3-1.2,2.2v13h-3v-18.6h2.1l.6,2.3h.1c.5-.8,1-1.5,1.7-2,.7-.5,1.5-.7,2.5-.7s1.5.1,2.4.4l-.6,2.9Z"/>
      <path d="M289.9,61c-.7.6-1.7,1.1-2.8,1.4-1.1.3-2.3.5-3.6.5s-2.6-.2-3.7-.7c-1-.5-1.9-1.1-2.6-2-.7-.9-1.2-1.9-1.5-3.1s-.5-2.5-.5-4c0-3.2.7-5.6,2.1-7.3,1.4-1.7,3.4-2.5,6.1-2.5s1.7,0,2.5.3c.8.2,1.6.5,2.3,1.1.7.5,1.2,1.3,1.6,2.2.4,1,.6,2.2.6,3.8s0,1.7-.2,2.7h-11.9c0,1.1.1,2.1.3,2.9.2.8.6,1.6,1,2.1.5.6,1.1,1,1.8,1.3.8.3,1.7.5,2.8.5s1.7-.1,2.5-.4c.8-.3,1.5-.6,1.9-1l1.1,2.2ZM283.5,46.1c-1.5,0-2.6.4-3.5,1.2-.9.8-1.4,2.1-1.6,3.9h9.2c0-1.9-.4-3.2-1.1-4-.7-.8-1.7-1.1-3.1-1.1Z"/>
      <path d="M295.2,38.2c0-.6.2-1.1.6-1.5.4-.4.9-.6,1.5-.6s1.1.2,1.5.6.6.9.6,1.5-.2,1-.6,1.4-.9.6-1.5.6-1.1-.2-1.5-.6c-.4-.4-.6-.8-.6-1.4ZM295.9,43.9h3v18.6h-3v-18.6Z"/>
      <path d="M308.5,57.9c0,.9.1,1.5.4,1.9.3.4.7.6,1.3.6s.7,0,1,0c.4,0,.8-.2,1.3-.3l.3,2.3c-.4.2-.9.4-1.7.5-.7.1-1.3.2-1.8.2-1.1,0-2-.3-2.8-.9-.7-.6-1.1-1.7-1.1-3.2v-22.3h3v21.5Z"/>
      <path d="M319.4,57.9c0,.9.1,1.5.4,1.9s.7.6,1.3.6.7,0,1,0c.4,0,.8-.2,1.3-.3l.3,2.3c-.4.2-.9.4-1.7.5-.7.1-1.3.2-1.8.2-1.1,0-2-.3-2.8-.9-.7-.6-1.1-1.7-1.1-3.2v-22.3h3v21.5Z"/>
      <path d="M340.5,61c-.7.6-1.7,1.1-2.8,1.4-1.1.3-2.3.5-3.6.5s-2.6-.2-3.7-.7c-1-.5-1.9-1.1-2.6-2-.7-.9-1.2-1.9-1.5-3.1s-.5-2.5-.5-4c0-3.2.7-5.6,2.1-7.3,1.4-1.7,3.4-2.5,6.1-2.5s1.7,0,2.5.3c.8.2,1.6.5,2.3,1.1.7.5,1.2,1.3,1.6,2.2.4,1,.6,2.2.6,3.8s0,1.7-.2,2.7h-11.9c0,1.1.1,2.1.3,2.9.2.8.6,1.6,1,2.1.5.6,1.1,1,1.8,1.3.8.3,1.7.5,2.8.5s1.7-.1,2.5-.4c.8-.3,1.5-.6,1.9-1l1.1,2.2ZM334.1,46.1c-1.5,0-2.6.4-3.5,1.2-.9.8-1.4,2.1-1.6,3.9h9.2c0-1.9-.4-3.2-1.1-4-.7-.8-1.7-1.1-3.1-1.1Z"/>
      <path d="M354,57.4c0-.7-.2-1.3-.7-1.7s-1-.8-1.7-1.1c-.7-.3-1.4-.6-2.2-.8-.8-.3-1.5-.6-2.2-1s-1.2-.9-1.7-1.6c-.4-.6-.7-1.5-.7-2.6,0-1.8.5-3.1,1.5-3.9s2.4-1.2,4.2-1.2,2.5.1,3.4.4c.9.2,1.7.5,2.4.8l-.7,2.5c-.6-.3-1.3-.5-2.1-.7s-1.7-.3-2.6-.3-1.9.2-2.4.6c-.5.4-.8,1-.8,1.9s.2,1.1.7,1.5c.4.4,1,.7,1.7,1,.7.3,1.4.6,2.2.8.8.3,1.5.6,2.2,1.1s1.2,1,1.7,1.7c.4.7.7,1.6.7,2.7s-.1,1.5-.4,2.2c-.3.7-.7,1.3-1.2,1.8s-1.2.9-2,1.2-1.8.4-2.8.4-2.6-.1-3.6-.4c-1-.3-1.8-.6-2.5-1l.9-2.5c.6.3,1.3.6,2.2.9.9.3,1.8.4,2.8.4s1.9-.2,2.6-.6c.7-.4,1-1.2,1-2.3Z"/>
    </g>
  </g>
  <g>
    <g>
      <circle cx="357.8" cy="163.5" r="31.8" style="fill: #fff;"/>
      <g>
        <path d="M361.8,150.8c2.9.7,6.1,3,7.9,5.4.6.7,1.2,2.2,1.6,3.1.2.7.4,1.6.6,2.4,1.2,0,2.4.2,3.4,1.1,1,.8.8.8,1.1,1.1s0,.7.5.7c.7,0,2.3-1.2,2.6-1.8s.2-.8.5-1.4c.5-1.3.7-1.6,1-3s.1-1.1.2-1.6c0,0,.1-.2.5,0q.2,0,.5.2c.6.7,0,3.6-.2,4.4-.7,2-2.2,3.5-4.1,4.4,2.6,3.1,1.2,8.4-2.3,10.1s-1.7.6-1.7.6c0,0-.2.8-.4,1.2-.7,1.4-2.4,2-3.8,1.8-.2,0-1.1-.4-1.2-.4-.2,0-.7.7-.8.8.5.6,1,1.3,1.2,2.2.4,1.1.4,4.1.2,5.3-.4,2.9-4.2,2.2-6,1.3-.5-.2-2.8-1.6-3-1.6s-.8.5-1.2.6h-1.3c-.4,0-1.2-.6-1.3-.6-.2,0-1.6,1-2,1.1-1.7.8-4.8,2-6.4.4-.2-.4-.6-.8-.6-1.3-.1-1-.1-3.6,0-4.6,0-1,.8-2,1.4-2.8-.2-.1-.7-.8-.8-.8s-1,.4-1.3.4c-1.4.1-2.8-.5-3.6-1.7-.2-.4-.4-1.2-.5-1.3s-1.2-.5-1.4-.6c-3.8-1.8-5.2-6.8-2.5-10.2-.5-.4-1-.6-1.4-.8-2.2-1.6-3.2-5-3-7.7,0-.6.4-.7,1-.7.1.7,0,1.1.2,1.9.1,1.1.8,2,1.2,3.1.5,1.9,1.1,2.2,2.9,2.9,0,0,.1.5.5,0s0-.4,0-.5.5-.5.6-.6c1.1-1.3,2.3-1.7,4-1.7.2-1.4.6-2.6,1.2-3.8.2-.5.7-1,.7-1.4h0c0-.1.8-.8,1.1-1,1.9-1.9,3.6-3.1,6.1-4.1s.5-.2.7-.4,1.7-.2,1.9-.4c1.9-.2,4.3,0,6.2.4h0l-.5-.2ZM355.5,151.6c-4.9,1.1-9.8,4.4-10.4,10-.4,4-.1,10.3,1.7,14,4.9,10,18.1,9.4,22.6-.7,1.6-3.5,1.7-9.4,1.3-13.2-.6-6.7-8.6-10.9-14.8-10.1h-.4ZM371.7,169.4c0,.6-.1,1.2,0,1.8.5.2.6-.2.7-.2h.5c4-1.6,3.8-8.3-1-8.2v1.8s.7,0,1.2.4c.7.5,2,2.4.5,2.5,0-.1-.6-1.1-.7-1.2s-.8-.6-1-.5v3.7h-.2ZM342.2,167.4c-1.2.1-.7-1.2-.2-1.8.4-.6,1.3-1.1,1.9-1v-1.7c-5.5-.5-4.8,8.2.2,8.2,0,0-.2-1.4-.2-1.7v-3.7c-.6,0-1.7,1.2-1.7,1.7h0ZM376.2,169.5c-.5.4-.8,1.1-1.3,1.6-1,.8-2.4,1.3-3.7,1.3-.2.5-.2,1-.4,1.4,0,.4-.7,1.7-.6,1.8s.5,0,.4.6-.6.4-1,.4-.1.1-.1.2c-.2.1-.7.7-.6,1s.5.4.6.4c.6,0,1.8-.5,2.2-.8s.1-.2.2-.5.2-.1.2-.4-.5-.6,0-1,.7-.2,1-.2c1.1-.2,1.7-.5,2.6-1.2,1.9-1.6,2.8-4.7,1.3-6.8,0,.8-.5,1.6-.6,2.4h-.2ZM342.3,175.2h.2c.4,0,1.2,0,1.2.6s-.4.5,0,1.1c.2,1,2,1.6,2.9,1.1.5-.2-.4-1.1-.7-1.2-.5-.2-1,0-.7-.8s.2,0,.2-.1c.1-.2-.5-1.6-.5-1.9s-.2-.8-.2-1.3c-1.3-.2-2.6-.5-3.7-1.4l-1.4-1.7c0-.7-.4-1.4-.5-2.2-.2,0-.1,0-.2.1-.7,1-.6,3-.2,4.1.6,1.8,2.2,3.2,4,3.6h-.2ZM348.9,181.5c-.5.7-.7,1.3-.7,2.2v2.4c0,1.4.2,2.2,1.8,2,1.7-.1,3.6-1.2,5-2v-.4h-2.6c-.4,0-.4-1.2,0-1.2h2.4v-.7s-1.9-.7-2.3-.8c-.6-.2-1.7-.8-2.2-1.2s-.5-.6-.7-.6c-.4,0-.4.4-.6.5h-.1ZM360.9,184.5h2.3c.5,0,.5.8,0,1.1-.5.2-2.3-.1-2.5.1s0,.2,0,.4,2.6,1.4,3,1.6c1.1.4,3.5,1.1,3.7-.6,0-.8.1-3.5,0-4.2s-.8-2-1.3-1.8c-.8.6-1.8,1.3-2.6,1.8s-2.3.7-2.4.8,0,.6,0,.8h-.1ZM356.1,183.9c-.4.8.2,2.2,1.2,2.4s2.2-.1,2.4-1.2c0-.2.2-1.1,0-1.2-1.2,0-2.3.2-3.5,0h-.1Z" style="fill: #3b2319;"/>
        <path d="M334.6,155.6s-.2-.2-.2-.5c-.2-1.8,1.8-3.7,3.4-4.3-.6-2.5.2-5,2.3-6.7,1-.7,1.9-.7,2.6-1.2.2,0,1-1.3,1.4-1.7,1.9-1.7,4.3-1.6,6.6-1,1.3-2.2,4.8-3.7,7.1-2.3.2.2.5.5.8.7-.5-1.3.4-1.3,1.4-1.2,1.9,0,3.7,1.3,4.9,2.8,2.6-1,5.3-.5,7.2,1.7.2.2.5,1,.7,1.1.4.2,1.1.2,1.6.5,2.8,1.3,4.1,4.4,3.2,7.3,1.6.4,3.8,2.5,3.4,4.3,0,.2-.2.4-.2.5-1.9.2-1-.8-1.3-1.8-.2-.5-1.1-1.2-1.6-1.4-.8-.5-1.1-.4-1.4.6-.2,0-.6,0-.8-.2.2-.7.4-1.8.5-2.6s.4-.8.4-1.4c0-1.9-1.6-4-3.5-4.3,0,.2-.1.6,0,.8-.4.1-.7.1-1.1,0,0-2.8-2.8-4.4-5.3-4.2-.7,0-1.9.7-2.5.6,0,0-.7-1-.8-1.2-.8-1-2-1.7-3.5-1.8s-1.3,0-1.1,1.1c0,0-.2.4-.4.5-.6.2-1.2-.5-1.9-.6-.1-.5.5-.8,0-1-1.8-.4-4.2.7-4.9,2.6-.2.7,0,.7.1,1.4v.2c-.4.2-.5.6-1.1.2s-.2-.2-.2-.2c-.4-.5-.1-1.3-.6-1.6-.6-.4-2.2-.5-2.9-.4-1.9.2-3.8,2.3-3.8,4.2-.4,0-.7,0-1.1-.2v-.7c-1.8.2-3.2,2.2-3.5,3.8,0,.7,0,1.1.2,1.8s.4,1.8.6,2.5c-.4.5-.6.2-1,.2-.4-.8-.5-1-1.3-.6s-1.4,1.1-1.6,1.6c-.1.5.5.8,0,1.4-.4.4-1,.2-1.3.1h0l.5.5Z" style="fill: #3b2319;"/>
        <path d="M338.9,153.1c-.7,0-1.8,1.7-1.9,2.4s0,1.2,0,1.3-1.1.4-1.2.6l-1,1c0-.7,0-1.1-.2-1.9s0-.7,0-.8c.5.1,1,.2,1.3-.1s0-1,0-1.4c.1-.5,1.2-1.4,1.6-1.6.8-.4,1-.4,1.3.6h.1Z" style="fill: #fbfbf9;"/>
        <path d="M376.6,153.2c.4-1,.5-1.1,1.4-.6s1.3,1,1.6,1.4c.4.8-.6,1.9,1.3,1.8,0,.1.1.6,0,1s-.1,1.1-.2,1.6c-.4-.2-.7-.7-1.1-1s-1-.4-1.1-.5,0-.7,0-1c0-1.1-1-2.3-2-2.6h.1Z" style="fill: #fbfbf9;"/>
        <path d="M350.7,143.2s0,.2.2.2c.5.4.6,0,1.1-.2,0,.8-.2,1.4-.2,2.4,0,1.9.6,3.6,1.9,5-.2,0-.2.2-.7.4-2.5,1-4.3,2.2-6.1,4.1s-.8.8-1,.8,0,0,0,0h-2l-1.2-.5c-1.1-.4-2.3-1.7-2.8-2.8-.2-.7-.5-1.8-.6-2.5.2-.5.2-1.1.5-1.6s.4-1,.5-1.1c.2-.4.8-.2,1-.4s0-.6.1-1c.2-.5,1.1-.4,1.1-1,.2.2.7.2,1.1.2,0,0,0,.6.1.6l.2.2s.5-1.3.5-1.6c.8-1.9,2.4-2.6,4.3-2.4.7,0,1,.4,1.6.6s.4,0,.4,0h0v.2Z" style="fill: #f08c06;"/>
        <path d="M363.8,147c1.2-.1,1.8-1.4,1.7-2.5,0-.2-.4-.8-.2-1s.8-.6,1.1-.6c2.6-1.1,5.4,1,5.5,3.7.2,0,.4-.7.4-1.1.4.1.7.1,1.1,0,0,.2,1.4,1.2,1.7,1.6.7.8,1.1,1.9,1.3,2.9,0,.1,0,.4.2.5-.1.7-.2,1.9-.5,2.6-.4,1.1-2.3,2.6-3.4,3-.8.2-1.8.2-2.6.2-1.7-2.4-5-4.6-7.9-5.4l1.2-1.6c.2-.4.7-1.9.7-2.3h-.2Z" style="fill: #f75650;"/>
        <path d="M351.6,145.6c1,1.6,2.5,2.3,4.2,1.2.2-.1.4-.5.6-.5s.6.2,1,.2c1.8.1,2.8-1.3,2.3-3,2.2,0,2,2.6,1,4s-.5.4-.6.6c1.4.2,2.4-.4,3.2-1.4s.2,0,.2,0c0,0,.2.2.2.4,0,.4-.5,1.9-.7,2.3l-1.2,1.6c-1.9-.5-4.3-.6-6.2-.4-.2,0-1.8.2-1.9.4-1.4-1.4-1.9-3-1.9-5h0v-.2Z" style="fill: #0f83b6;"/>
        <path d="M339.9,152.8c.5,1.1,1.7,2.4,2.8,2.8l1.2.5h-.7c-.5.1-1.2,1-1.3,1.4s0,1-.2,1.4c-.5.8-2,1.1-2.9.6s-1.1-1.2-1.2-1.2c-.2,0-.7,1.2-.7,1.4-.1.6,0,1.4,0,2-.5,0-.6-.2-1-.4-.2-1.1-1-2-1.2-3.1l1-1c.2-.2,1.1-.5,1.2-.6s0-1,0-1.3c0-.7,1.3-2.3,1.9-2.4s.6.2,1-.2h.2Z" style="fill: #47a5fe;"/>
        <path d="M343.8,156.2h2c0,.6-.5,1-.7,1.4-.6,1.3-1,2.5-1.2,3.8-1.7,0-2.9.4-4,1.7s-.6.6-.6.6c-1-.2-2.2-1.1-2.5-2s-.2-1.4,0-2,.5-1.3.7-1.4.8,1,1.2,1.2c.8.5,2.2.2,2.6-.6s.2-1.1.4-1.4,1-1.2,1.4-1.3.5,0,.7,0h-.1Z" style="fill: #0f83b6;"/>
        <path d="M372.4,156c.7.5,1.2.8,1.6,1.7.1.5.1,1,.4,1.3.7,1.2,2.6,1,3.5,0s.1-.7.5-.5c.7.5.8,2.6.6,3.4,0,0-.4.6-.5.7-.6.6-1.2,1.1-2,1.2-.1-.2-.8-.8-1.1-1.1-1-.8-2-1.1-3.4-1.1-.4-.7-.4-1.6-.6-2.4-.2-1-1-2.3-1.6-3.1.8,0,1.8,0,2.6-.2h0Z" style="fill: #0f83b6;"/>
        <path d="M376.6,153.2c1.1.4,1.9,1.6,2,2.6v1s.8.4,1.1.5c.4.2.7.7,1.1,1-.2,1.4-.5,1.7-1,3-.2.1-.4.4-.6.5s-.2,0-.2,0c.2-.7,0-2.8-.6-3.4l-.5.5c-.8,1.1-2.6,1.3-3.5,0s-.2-1-.4-1.3c-.2-.8-.8-1.2-1.6-1.7,1.1-.4,3-1.9,3.4-3,.2.2.6.1.8.2h-.1Z" style="fill: #47a5fe;"/>
        <path d="M360.9,184.5v-.8c0-.1,2-.7,2.4-.8,1-.5,1.8-1.2,2.6-1.8.5-.4,1.3,1.4,1.3,1.8v4.2c-.2,1.7-2.6,1-3.7.6s-3-1.4-3-1.6v-.4c.2-.2,2,0,2.5-.1.5-.2.4-1.1,0-1.1h-2.3.1Z" style="fill: #f75650;"/>
        <path d="M348.9,181.5c.1-.2.2-.6.6-.5s.5.5.7.6c.6.4,1.6,1,2.2,1.2s2.2.7,2.3.8c.2.2,0,.6,0,.7h-2.4c-.2,0-.2,1.2,0,1.2h2.6v.4c-1.4.8-3.4,1.9-5,2-1.6.1-1.7-.6-1.8-2v-2.4c.5.1.7,1.2,1.4.7.6-.4-.4-1.1-.4-1.4s.7-1.4-.4-1.4h.1Z" style="fill: #f75650;"/>
        <path d="M373.5,167.4c1.6,0,.2-2-.5-2.5-.4-.2-1.2-.2-1.2-.4v-1.8c4.9-.2,4.9,6.6,1,8.2h-.5c-.1,0-.2.4-.7.2v-1.8c.6,0,1.2-.5,1.4-1s.4-1,.4-1.1h.1Z" style="fill: #fbfbf9;"/>
        <path d="M343.8,169.4c0,.2.4,1.6.2,1.7-4.9,0-5.8-8.6-.2-8.2v1.7c-.7,0-1.6.5-1.9,1-.4.6-.8,1.9.2,1.8,0,.2.2,1.1.4,1.2.2.5.8.7,1.3.8h0Z" style="fill: #fbfbf9;"/>
        <path d="M339.2,169.4l1.4,1.7c1.1,1,2.4,1.2,3.7,1.4,0,.5.1.8.2,1.3s.7,1.7.5,1.9-.2,0-.2.1c-.2.8.2.7.7.8-.6.5-1.4.1-2,0-.2-.7,0-.6,0-1.1s-.7-.5-1.2-.6c-.1-.5-.5-.7-.6-1.2s-.2-1.1-.4-1.2-.8-.2-1.1-.5c-1.2-.8-1.1-1.8-1.2-3h0v.2Z" style="fill: #0f83b6;"/>
        <path d="M376.2,169.5h0c0,1.1-.2,1.9-1.1,2.6-.4.2-1.4.6-1.4.7s-.1.8-.2,1.2c-.2.5-.5.7-.7,1.2-.2,0-.8.2-1,.2-.4.5.1.7,0,1,0,.2-.1.2-.2.4-.7.2-1.6,0-2.3,0,0,0,0-.1.1-.2.4,0,.8,0,1-.4s-.4-.5-.4-.6c0-.2.5-1.6.6-1.8.1-.5.1-1,.4-1.4,1.2,0,2.8-.6,3.7-1.3.5-.5,1.2-1.6,1.3-1.6h.2Z" style="fill: #0f83b6;"/>
        <path d="M373,175.3c.2-.5.5-.7.7-1.2,0-.2.2-1.1.2-1.2s1.1-.5,1.4-.7c.7-.6,1-1.6,1.1-2.5h0c0-1,.5-1.7.6-2.5,1.4,2.2.7,5.3-1.3,6.8-1,.7-1.6,1-2.6,1.2h-.1Z" style="fill: #47a5fe;"/>
        <path d="M342.3,175.2c-1.8-.5-3.4-1.8-4-3.6-.4-1.1-.5-3.1.2-4.1,0,0,0-.2.2-.1.2.7.4,1.4.5,2.2.1,1.2,0,2.2,1.2,3,.2.1,1,.4,1.1.5,0,.1.2,1,.4,1.2s.5.7.6,1.2h-.2v-.2Z" style="fill: #47a5fe;"/>
        <path d="M356.1,183.9c1.2.2,2.3,0,3.5,0s.1,1,0,1.2c-.2,1.1-1.4,1.4-2.4,1.2s-1.4-1.6-1.2-2.4h.1Z" style="fill: #f75650;"/>
        <path d="M342.2,167.4c0-.5,1-1.7,1.7-1.7v3.7c-.5,0-1-.4-1.3-.8s-.4-1.1-.4-1.2h0Z" style="fill: #f75650;"/>
        <path d="M373.5,167.4s-.2,1-.4,1.1c-.2.5-.8,1.1-1.4,1,0-1.2.1-2.5,0-3.7.1-.1.8.4,1,.5s.7,1.1.7,1.2h.1Z" style="fill: #f75650;"/>
        <path d="M376.2,163.8c.8,0,1.6-.6,2-1.2s.5-.7.5-.7h.2c.2-.1.5-.4.6-.5-.1.5,0,.8-.5,1.4s-1.9,1.9-2.6,1.8-.4-.6-.5-.7h.2Z" style="fill: #fbfbf9;"/>
        <path d="M336.8,161.7c.2,1,1.6,1.8,2.5,2v.5c-.4.5-.4,0-.5,0-1.7-.7-2.3-1.1-2.9-2.9.4,0,.5.5,1,.4h-.1Z" style="fill: #fbfbf9;"/>
        <path d="M348.9,181.5c1,0,.2,1.1.4,1.4s1,1.1.4,1.4c-.6.5-.8-.6-1.4-.7,0-.8.2-1.4.7-2.2h0Z" style="fill: #fbfbf9;"/>
        <path d="M343.6,177c.7,0,1.4.4,2,0,.4.1,1.2,1,.7,1.2-.8.5-2.5-.1-2.9-1.1h.1Z" style="fill: #fbfbf9;"/>
        <path d="M371.9,177c0,.1,0,.2-.2.5-.4.5-1.6,1-2.2.8s-.6-.4-.6-.4c0-.2.5-.8.6-1,.7,0,1.6.2,2.3,0h.1Z" style="fill: #fbfbf9;"/>
        <path d="M345.8,156.1h-.4c0-.1.2,0,.4,0Z" style="fill: #47a5fe;"/>
        <path d="M356.7,140c.7,0,1.3.8,1.9.6.1,0,.4-.5.4-.5h1c2.5.5,4.4,3,4,5.6,0,0-.2.8-.2,1s-.1,0-.2,0c-.8,1.1-1.9,1.7-3.2,1.4,0-.2.5-.4.6-.6,1.1-1.3,1.2-4-1-4,.5,1.7-.5,3.1-2.3,3s-.7-.2-1-.2-.4.4-.6.5c-1.7,1-3.2.4-4.2-1.2,0-1,.1-1.6.2-2.4v-.2c.7-1,1.3-2,2.5-2.6s1.7-.6,2.3-.5h-.1Z" style="fill: #47a5fe;"/>
        <path d="M359,140.1c-.2-1.2-.1-1.2,1.1-1.1s2.5.8,3.5,1.8.7,1.1.8,1.2c.5.1,1.8-.6,2.5-.6,2.5-.2,5.3,1.3,5.3,4.2s-.1,1-.4,1.1c0-2.8-2.9-4.8-5.5-3.7-.1,0-1,.5-1.1.6s.2.7.2,1c.1,1.1-.5,2.4-1.7,2.5,0,0-.1-.2-.2-.4,0,0,.2-.8.2-1,.6-2.5-1.3-5.2-4-5.6h-1,.1Z" style="fill: #fbfbf9;"/>
        <path d="M350.7,143.2h-.4c-.6-.2-.7-.6-1.6-.6-2-.2-3.6.5-4.3,2.4s-.5,1.6-.5,1.6l-.2-.2v-.6c-.1-1.9,1.7-4.1,3.7-4.2.7,0,2.2,0,2.9.4s.2,1.2.6,1.6h0l-.2-.2Z" style="fill: #fbfbf9;"/>
        <path d="M356.7,140c-.5,0-1.8.2-2.3.5-1.2.6-1.8,1.6-2.5,2.6,0-.7-.5-.7-.1-1.4.6-1.8,3-3,4.9-2.6.6,0,0,.5,0,1h0Z" style="fill: #fbfbf9;"/>
        <path d="M376.2,150.3c-.2,0-.2-.2-.2-.5-.2-1.1-.6-2.2-1.3-2.9s-1.7-1.3-1.7-1.6.1-.6,0-.8c1.9.4,3.4,2.4,3.5,4.3,0,.6-.2,1-.4,1.4h.1Z" style="fill: #fbfbf9;"/>
        <path d="M339.2,150.3c0-.7-.2-1.1-.2-1.8.1-1.8,1.7-3.6,3.5-3.8v.7c0,.7-.8.5-1.1,1s0,.8-.1,1-.7,0-1,.4-.4.8-.5,1.1c-.1.5-.2,1.1-.5,1.6h-.1Z" style="fill: #fbfbf9;"/>
        <path d="M366.4,168.3c-.2,0-.8,0-1.1.1-1,.4-1.4,1.8-2,2.6-2.6,3.2-8.2,3.4-10.8.1-.8-1.1-1.6-3.4-3.4-2.9-2.5.6-.8,4.4.1,5.8,4,5.3,13,5.4,17,0,.8-1.1,2.3-4,1.3-5.2-.1-.2-.8-.6-1.1-.7h-.1Z" style="fill: #f75650;"/>
        <path d="M354.4,160.8c.1.2.7.6.6.8-.5.7-1,1.4-1.4,2s-.8,1.4-1.3,2c0,.1-.5.8-.7.7l-1.8-2.8c-.6-.6-1.1-1.3-1.4-2,.2-.6,3.1-4.3,3.4-4.4s.4.2.5.4c.7.8,1.6,2.2,2.3,3.1h0ZM350.9,160.9c-.6,0-2.3,1.3-1.4,1.8.5.4.8-.4,1.3-.5.5-.2,1-.2,1.4-.1.5,0,1.1,1,1.4.2s0-.8-.5-1.1c-.6-.5-1.6-.5-2.3-.4h0Z" style="fill: #0f83b6;"/>
        <path d="M361,162.1s-.2-.2-.2-.5c0-.6.7-.8.8-1.4.5-.6.8-.7,1.1-1.4.2,0,.4-.2.4-.4h0c0-.2.6-1.1.8-1s2.8,3.7,3.4,4.2v.4l-3.2,4.8c-.1,0-.4-.2-.4-.4-.7-1-1.4-2.2-2-3.2l-.6-1h0ZM362.2,161.4c-.2.2-.6,1,0,1.1.7.2,1-1.2,2.8-.4.5.2.7,1,1.2.5.7-.6-.7-1.7-1.3-1.8-.7-.1-2,0-2.6.5h0Z" style="fill: #0f83b6;"/>
        <path d="M356.8,163.6c1.8-.2,3.2,0,4.2,1.7,2.3,3.5-1.8,7.7-5.4,5.5-2.8-1.7-2.2-6.6,1.2-7.1h0ZM356.1,165.4h-.2c-.4.2-.7,1.4-.7,1.9,0,1.1,1,2.5,2,2.6,2.2.2,3.6-1,3.2-3.1-.2-1.7-2-2.5-3.5-2-.5.1-.5.2-.7.6h-.1Z" style="fill: #3b2319;"/>
        <path d="M363.6,155.7c.6,0,1.6.2,2,.6s1.2,1.2.7,1.7-1-.6-1.4-.8-1.4-.4-1.9,0c-.5.2-1,1.6-1.6,1s1.3-2.2,2.2-2.2h0v-.2Z" style="fill: #f75650;"/>
        <path d="M351.4,155.7c1,0,1.9.2,2.5,1s.6.8.2,1.2c-.6.6-1-.5-1.3-.7-.7-.6-1.8-.5-2.5,0s-.6,1.2-1.2.7.8-1.8,1.3-2,.6-.2.8-.2h.1Z" style="fill: #f75650;"/>
        <path d="M350.9,160.9c.7-.1,1.7,0,2.3.4s.7.6.5,1.1c-.4.7-1-.1-1.4-.2-.5,0-1.1,0-1.4.1-.4.2-.7.8-1.3.5-.8-.5.8-1.7,1.4-1.8h0Z" style="fill: #3b2319;"/>
        <path d="M362.2,161.4c.6-.6,1.8-.7,2.6-.5.5.1,2,1.2,1.3,1.8-.5.4-.8-.2-1.2-.5-.6-.2-1.2-.4-1.8,0s-.4.6-1,.4-.2-.8,0-1.1h0Z" style="fill: #3b2319;"/>
        <path d="M355.7,165.8c.2-.4.7-.7,1.2-.8,1.6-.5,3.2.4,3.5,2,.4,2.2-1.1,3.4-3.2,3.1-1.1-.1-2-1.6-2-2.6s.4-1.7.7-1.9.2,0,.2,0c-.5.7-.5,1.7.6,1.2.1-.5,1.3-.8.8-1.4s-1.1,0-1.4.2h0l-.5.2h.1ZM358.7,165.1c-.6-.4-1,.5-.5.7.5.4.7-.6.5-.7ZM356.3,167.8c.4-.7-.6-1-.8-.6-.4.5.5,1.1.8.6Z" style="fill: #f75650;"/>
        <path d="M356.1,165.4c.4-.2,1.1-.7,1.4-.2s-.7,1-.8,1.4c-1.1.5-1.1-.4-.6-1.2h0Z" style="fill: #fbfbf9;"/>
        <path d="M356.3,167.8c-.2.5-1.1,0-.8-.6s1.2,0,.8.6Z" style="fill: #fbfbf9;"/>
        <path d="M358.7,165.1c.2.1,0,1.1-.5.7s0-1.1.5-.7Z" style="fill: #fbfbf9;"/>
        <path d="M366.2,170.1h0c.6.2-.1,1.6-.4,1.9-3.2,5.9-12.7,5.8-16,0-.2-.5-1.2-1.9,0-1.9s.8,1.4,1.1,1.8c2.9,4.7,11.2,4.4,14-.5.2-.5.4-1.7,1.2-1.3" style="fill: #fff;"/>
      </g>
      <path d="M357.8,130.5c-18.2,0-32.9,14.8-32.9,32.9s14.8,32.9,32.9,32.9,32.9-14.8,32.9-32.9-14.8-32.9-32.9-32.9ZM357.8,192.3c-15.8,0-28.8-12.8-28.8-28.8s12.8-28.8,28.8-28.8,28.8,12.8,28.8,28.8-12.8,28.8-28.8,28.8Z" style="fill: #f75650;"/>
      <rect x="325.8" y="162" width="63.8" height="4.4" transform="translate(-11.4 301) rotate(-45)" style="fill: #f75650;"/>
    </g>
    <g>
      <rect x="109.4" y="104.4" width="87.8" height="117.9" rx="7" ry="7" style="fill: #fff; stroke: #231f20; stroke-miterlimit: 10; stroke-width: .8px;"/>
      <rect x="131.9" y="104.4" width="87.8" height="117.9" rx="7" ry="7" style="fill: #fff; stroke: #231f20; stroke-miterlimit: 10; stroke-width: .8px;"/>
      <rect x="154.5" y="104.4" width="87.8" height="117.9" rx="7" ry="7" style="fill: #fff; stroke: #231f20; stroke-miterlimit: 10; stroke-width: .8px;"/>
      <rect x="175.8" y="104.4" width="87.8" height="117.9" rx="7" ry="7" style="fill: #fff; stroke: #231f20; stroke-miterlimit: 10; stroke-width: .8px;"/>
      <rect x="197.1" y="104.4" width="87.8" height="117.9" rx="7" ry="7" style="fill: #fff; stroke: #231f20; stroke-miterlimit: 10; stroke-width: .8px;"/>
    </g>
  </g>
</svg>