<?xml version="1.0" encoding="UTF-8"?>
<svg id="Layer_1" xmlns="http://www.w3.org/2000/svg" version="1.1" viewBox="0 0 500 291.8">
  <!-- Generator: Adobe Illustrator 29.6.1, SVG Export Plug-In . SVG Version: 2.1.1 Build 9)  -->
  <g style="isolation: isolate;">
    <text transform="translate(144.4 62.5)" style="font-family: PTSans-Bold, &apos;PT Sans&apos;; font-size: 37.2px; font-weight: 700; isolation: isolate;"><tspan x="0" y="0">1x</tspan></text>
    <text transform="translate(185.1 62.5)" style="font-family: PTSans-Regular, &apos;PT Sans&apos;; font-size: 37.2px; isolation: isolate;"><tspan x="0" y="0" xml:space="preserve"> Suite de 6</tspan></text>
  </g>
  <g>
    <g>
      <rect x="109.7" y="137.7" width="87.8" height="117.9" rx="7" ry="7" style="fill: #fff; stroke: #231f20; stroke-miterlimit: 10; stroke-width: .8px;"/>
      <rect x="130.1" y="128.3" width="87.8" height="117.9" rx="7" ry="7" style="fill: #fff; stroke: #231f20; stroke-miterlimit: 10; stroke-width: .8px;"/>
      <rect x="150.5" y="118.8" width="87.8" height="117.9" rx="7" ry="7" style="fill: #fff; stroke: #231f20; stroke-miterlimit: 10; stroke-width: .8px;"/>
      <rect x="170.9" y="109.3" width="87.8" height="117.9" rx="7" ry="7" style="fill: #fff; stroke: #231f20; stroke-miterlimit: 10; stroke-width: .8px;"/>
      <rect x="191.3" y="99.9" width="87.8" height="117.9" rx="7" ry="7" style="fill: #fff; stroke: #231f20; stroke-miterlimit: 10; stroke-width: .8px;"/>
      <rect x="211.7" y="90.4" width="87.8" height="117.9" rx="7" ry="7" style="fill: #fff; stroke: #231f20; stroke-miterlimit: 10; stroke-width: .8px;"/>
    </g>
    <path d="M350.3,205.8l-.4-.7c0-.6,2.6-2.6,3.2-3.4,3.2-3.8,4.8-9.2,4.2-14.3-1.8,2.5-2.8,5.2-5.5,7-9.6,6.4-21.7-1-22.6-11.9s14.3-23.9,23-33.5c2.6-2.9,4.9-6,7.2-9,.4,0,.7.4.8.6,1.7,1.7,3.8,5,5.5,7.1,8.6,9.7,24.7,19.2,24.4,34-.4,14.3-18.7,21.5-26.5,8.5s-1.2-3.2-1.8-2.6c-.2,4.8.8,9.8,4,13.7s3.6,2.8,3.6,4.7h-19.4.2Z" style="fill: #292929;"/>
  </g>
</svg>