<?xml version="1.0" encoding="UTF-8"?>
<svg id="Layer_1" xmlns="http://www.w3.org/2000/svg" version="1.1" viewBox="0 0 500 291.8">
  <!-- Generator: Adobe Illustrator 29.6.1, SVG Export Plug-In . SVG Version: 2.1.1 Build 9)  -->
  <g style="isolation: isolate;">
    <text transform="translate(144.4 62.5)" style="font-family: PTSans-Bold, &apos;PT Sans&apos;; font-size: 37.2px; font-weight: 700; isolation: isolate;"><tspan x="0" y="0">1x</tspan></text>
    <text transform="translate(185.1 62.5)" style="font-family: PTSans-Regular, &apos;PT Sans&apos;; font-size: 37.2px; isolation: isolate;"><tspan x="0" y="0" xml:space="preserve"> Suite de 7</tspan></text>
  </g>
  <g>
    <rect x="68.2" y="137.7" width="87.8" height="117.9" rx="7" ry="7" style="fill: #fff; stroke: #231f20; stroke-miterlimit: 10; stroke-width: .8px;"/>
    <rect x="88.6" y="128.3" width="87.8" height="117.9" rx="7" ry="7" style="fill: #fff; stroke: #231f20; stroke-miterlimit: 10; stroke-width: .8px;"/>
    <rect x="109" y="118.8" width="87.8" height="117.9" rx="7" ry="7" style="fill: #fff; stroke: #231f20; stroke-miterlimit: 10; stroke-width: .8px;"/>
    <rect x="129.4" y="109.3" width="87.8" height="117.9" rx="7" ry="7" style="fill: #fff; stroke: #231f20; stroke-miterlimit: 10; stroke-width: .8px;"/>
    <rect x="149.8" y="99.9" width="87.8" height="117.9" rx="7" ry="7" style="fill: #fff; stroke: #231f20; stroke-miterlimit: 10; stroke-width: .8px;"/>
    <rect x="170.2" y="90.4" width="87.8" height="117.9" rx="7" ry="7" style="fill: #fff; stroke: #231f20; stroke-miterlimit: 10; stroke-width: .8px;"/>
  </g>
  <g>
    <path d="M396.9,203.9l-.5-.7c4.1-3.5,7-7.8,7.4-13.3.5-5.5.2-4.7-.6-4-3,9.8-15.5,12.6-23.3,6.4-13.7-10.9-1.7-32.2,14.6-26.8l-2.3-3.4c-7.7-13.1,5.2-28.6,19.6-23.4,10.9,4,13.8,17.8,6.2,26.4,12.6-3.5,24.1,8.5,19.1,21-5,12.5-23.6,12.8-28.1-.2-1.1-.8-.2,5.5-.1,6,.5,2.5,2,5.8,3.6,7.8s2.6,2,3.4,3.5l-.4.7h-18.7Z" style="fill: #292929;"/>
    <path d="M311.3,203.9l-.4-.7c0-.6,2.6-2.6,3.2-3.4,3.2-3.8,4.8-9.2,4.2-14.3-1.8,2.5-2.8,5.2-5.5,7-9.6,6.4-21.7-1-22.6-11.9-.8-10.9,14.3-23.9,23-33.5,2.6-2.9,4.9-6,7.2-9,.4,0,.7.4.8.6,1.7,1.7,3.8,5,5.5,7.1,8.6,9.7,24.7,19.2,24.4,34-.4,14.3-18.7,21.5-26.5,8.5s-1.2-3.2-1.8-2.6c-.2,4.8.8,9.8,4,13.7s3.6,2.8,3.6,4.7h-19.4.2Z" style="fill: #292929;"/>
  </g>
</svg>