<?xml version="1.0" encoding="UTF-8"?>
<svg id="Layer_1" xmlns="http://www.w3.org/2000/svg" version="1.1" viewBox="0 0 500 316.4">
  <!-- Generator: Adobe Illustrator 29.6.1, SVG Export Plug-In . SVG Version: 2.1.1 Build 9)  -->
  <g style="isolation: isolate;">
    <text transform="translate(144.4 62.5)" style="font-family: PTSans-Bold, &apos;PT Sans&apos;; font-size: 37.2px; font-weight: 700; isolation: isolate;"><tspan x="0" y="0">1x</tspan></text>
    <text transform="translate(185.1 62.5)" style="font-family: PTSans-Regular, &apos;PT Sans&apos;; font-size: 37.2px; isolation: isolate;"><tspan x="0" y="0" xml:space="preserve"> Suite de 6</tspan></text>
  </g>
  <g>
    <rect x="145.8" y="168.3" width="87.8" height="117.9" rx="7" ry="7" style="fill: #fff; stroke: #231f20; stroke-miterlimit: 10; stroke-width: .8px;"/>
    <rect x="169.9" y="158.9" width="87.8" height="117.9" rx="7" ry="7" style="fill: #fff; stroke: #231f20; stroke-miterlimit: 10; stroke-width: .8px;"/>
    <rect x="194" y="149.4" width="87.8" height="117.9" rx="7" ry="7" style="fill: #fff; stroke: #231f20; stroke-miterlimit: 10; stroke-width: .8px;"/>
    <rect x="218.2" y="139.9" width="87.8" height="117.9" rx="7" ry="7" style="fill: #fff; stroke: #231f20; stroke-miterlimit: 10; stroke-width: .8px;"/>
    <rect x="242.3" y="130.5" width="87.8" height="117.9" rx="7" ry="7" style="fill: #fff; stroke: #231f20; stroke-miterlimit: 10; stroke-width: .8px;"/>
    <rect x="266.4" y="121" width="87.8" height="117.9" rx="7" ry="7" style="fill: #fff; stroke: #231f20; stroke-miterlimit: 10; stroke-width: .8px;"/>
  </g>
  <text transform="translate(149.3 96.2)" style="font-family: PTSans-Regular, &apos;PT Sans&apos;; font-size: 25.4px;"><tspan x="0" y="0">Couleurs alternées</tspan></text>
  <g>
    <path d="M180.3,181.4v-.2c.8-.8,1.5-1.8,1.6-3s0-1.1-.1-.9c-.7,2.2-3.5,2.9-5.3,1.4-2.9-2.3-.8-6.5,2.5-6.2s.5-.3.3-.6h0s0,0,0,0c-1.7-3,1.2-6.5,4.4-5.3,2.2.8,3,3.4,1.9,5.3s0,.6.3.5c2.5-.1,4.5,2.3,3.5,4.9-1.1,2.8-5.4,2.9-6.4,0-.2-.2,0,1.3,0,1.4.1.6.5,1.3.8,1.8s.6.5.8.8v.2h-4.3Z" style="fill: #292929;"/>
    <path d="M180.2,198.8v-.2c0-.1.5-.6.7-.8.4-.5.7-1.2.9-1.9s-.4-.6-.6-.3-.3.4-.5.5c-2.2,1.4-4.9-.2-5.1-2.7s3.2-5.4,5.2-7.6c.6-.7,1.1-1.4,1.6-2,0,0,.2,0,.2.1.4.4.9,1.1,1.3,1.6,2,2.2,5.6,4.4,5.5,7.7,0,3.2-4.2,4.9-6,1.9s-.3-.7-.4-.6c0,1.1.2,2.2.9,3.1s.3.3.4.4c.2.2,0,.6-.3.6h-3.7,0Z" style="fill: #292929;"/>
  </g>
  <g>
    <path d="M228.5,162.5v-.2c.8-.8,1.5-1.8,1.6-3s0-1.1-.1-.9c-.7,2.2-3.5,2.9-5.3,1.4-2.9-2.3-.8-6.5,2.5-6.2s.5-.3.3-.6h0s0,0,0,0c-1.7-3,1.2-6.5,4.4-5.3,2.2.8,3,3.4,1.9,5.3s0,.6.3.5c2.5-.1,4.5,2.3,3.5,4.9-1.1,2.8-5.4,2.9-6.4,0-.2-.2,0,1.3,0,1.4.1.6.5,1.3.8,1.8s.6.5.8.8v.2h-4.3Z" style="fill: #292929;"/>
    <path d="M228.5,179.9v-.2c0-.1.5-.6.7-.8.4-.5.7-1.2.9-1.9s-.4-.6-.6-.3-.3.4-.5.5c-2.2,1.4-4.9-.2-5.1-2.7s3.2-5.4,5.2-7.6c.6-.7,1.1-1.4,1.6-2,0,0,.2,0,.2.1.4.4.9,1.1,1.3,1.6,2,2.2,5.6,4.4,5.5,7.7,0,3.2-4.2,4.9-6,1.9s-.3-.7-.4-.6c0,1.1.2,2.2.9,3.1s.3.3.4.4c.2.2,0,.6-.3.6h-3.7,0Z" style="fill: #292929;"/>
  </g>
  <g>
    <path d="M276.8,142.4v-.2c.8-.8,1.5-1.8,1.6-3s0-1.1-.1-.9c-.7,2.2-3.5,2.9-5.3,1.4-2.9-2.3-.8-6.5,2.5-6.2s.5-.3.3-.6h0s0,0,0,0c-1.7-3,1.2-6.5,4.4-5.3,2.2.8,3,3.4,1.9,5.3s0,.6.3.5c2.5-.1,4.5,2.3,3.5,4.9-1.1,2.8-5.4,2.9-6.4,0-.2-.2,0,1.3,0,1.4.1.6.5,1.3.8,1.8s.6.5.8.8v.2h-4.3Z" style="fill: #292929;"/>
    <path d="M276.7,159.8v-.2c0-.1.5-.6.7-.8.4-.5.7-1.2.9-1.9s-.4-.6-.6-.3-.3.4-.5.5c-2.2,1.4-4.9-.2-5.1-2.7s3.2-5.4,5.2-7.6c.6-.7,1.1-1.4,1.6-2,0,0,.2,0,.2.1.4.4.9,1.1,1.3,1.6,2,2.2,5.6,4.4,5.5,7.7,0,3.2-4.2,4.9-6,1.9s-.3-.7-.4-.6c0,1.1.2,2.2.9,3.1s.3.3.4.4c.2.2,0,.6-.3.6h-3.7,0Z" style="fill: #292929;"/>
  </g>
  <g>
    <path d="M158.4,192.5c-.5-.9-1.2-1.8-2-2.7-2.3-2.7-6.6-5.3-5.3-9.5.7-2.4,3.4-3.6,5.6-2.2s1.3,1.4,1.7,2.2c.5-1.2,1.2-2.2,2.5-2.6,3.2-1,5.4,2,5,5s-4.1,5.5-6,7.8c-.4.5-1,1.5-1.4,1.9-.4.4,0,.1-.2.1h0Z" style="fill: #f75750;"/>
    <path d="M158.3,209.7c-1.5-2.8-3.6-5.1-5.7-7.5,2.2-2.2,4.1-4.7,5.7-7.4.1,0,.1,0,.2.1.4.5.9,1.5,1.4,2.1.8,1.2,1.7,2.3,2.7,3.4.5.6,1.2,1.2,1.7,1.8-2.2,2.2-4.1,4.7-5.7,7.3h-.2c0,0,0,0,0,0Z" style="fill: #f75750;"/>
  </g>
  <g>
    <path d="M206.2,172.8c-.5-.9-1.2-1.8-2-2.7-2.3-2.7-6.6-5.3-5.3-9.5.7-2.4,3.4-3.6,5.6-2.2s1.3,1.4,1.7,2.2c.5-1.2,1.2-2.2,2.5-2.6,3.2-1,5.4,2,5,5s-4.1,5.5-6,7.8c-.4.5-1,1.5-1.4,1.9-.4.4,0,.1-.2.1h0Z" style="fill: #f75750;"/>
    <path d="M206.2,190c-1.5-2.8-3.6-5.1-5.7-7.5,2.2-2.2,4.1-4.7,5.7-7.4.1,0,.1,0,.2.1.4.5.9,1.5,1.4,2.1.8,1.2,1.7,2.3,2.7,3.4.5.6,1.2,1.2,1.7,1.8-2.2,2.2-4.1,4.7-5.7,7.3h-.2c0,0,0,0,0,0Z" style="fill: #f75750;"/>
  </g>
  <g>
    <path d="M254.5,151c-.5-.9-1.2-1.8-2-2.7-2.3-2.7-6.6-5.3-5.3-9.5.7-2.4,3.4-3.6,5.6-2.2s1.3,1.4,1.7,2.2c.5-1.2,1.2-2.2,2.5-2.6,3.2-1,5.4,2,5,5s-4.1,5.5-6,7.8c-.4.5-1,1.5-1.4,1.9-.4.4,0,.1-.2.1h0Z" style="fill: #f75750;"/>
    <path d="M254.4,168.2c-1.5-2.8-3.6-5.1-5.7-7.5,2.2-2.2,4.1-4.7,5.7-7.4.1,0,.1,0,.2.1.4.5.9,1.5,1.4,2.1.8,1.2,1.7,2.3,2.7,3.4.5.6,1.2,1.2,1.7,1.8-2.2,2.2-4.1,4.7-5.7,7.3h-.2c0,0,0,0,0,0Z" style="fill: #f75750;"/>
  </g>
</svg>