<?xml version="1.0" encoding="UTF-8"?>
<svg id="Layer_1" xmlns="http://www.w3.org/2000/svg" version="1.1" viewBox="0 0 500 286.1">
  <!-- Generator: Adobe Illustrator 29.6.1, SVG Export Plug-In . SVG Version: 2.1.1 Build 9)  -->
  <g style="isolation: isolate;">
    <text transform="translate(141.4 62.5)" style="font-family: PTSans-Bold, &apos;PT Sans&apos;; font-size: 37.2px; font-weight: 700; isolation: isolate;"><tspan x="0" y="0">2x</tspan></text>
    <text transform="translate(182.1 62.5)" style="font-family: PTSans-Regular, &apos;PT Sans&apos;; font-size: 37.2px; isolation: isolate;"><tspan x="0" y="0" xml:space="preserve"> 3 pareilles</tspan></text>
  </g>
  <g>
    <g>
      <path d="M291.1,196.2c-2.4-4.1-5.4-8.2-8.6-11.8-10.3-11.8-29-23.5-23.3-41.9,3.2-10.6,15-15.7,24.7-9.8,9.7,5.9,5.8,6,7.6,9.8,2-5.4,5.4-9.7,11-11.5,14-4.3,24,8.8,21.8,21.8s-18.2,24.1-26.4,34.3c-1.9,2.4-4.2,6.5-6,8.4-1.8,1.9-.4.6-.8.5h0Z" style="fill: #f75750;"/>
      <path d="M376.3,196.2c-6.5-12.2-15.7-22.7-25-32.9,9.6-9.8,18.2-20.6,25.1-32.6.5,0,.5.2.7.5,1.9,2.3,4.1,6.7,6,9.4,3.6,5.2,7.6,10.3,11.8,15.1,2.4,2.8,5.2,5.2,7.3,7.9-9.7,9.6-18.1,20.5-25.2,32.4l-.7.4h0Z" style="fill: #f75750;"/>
    </g>
    <g>
      <rect x="97.8" y="104.4" width="87.8" height="117.9" rx="7" ry="7" style="fill: #fff; stroke: #231f20; stroke-miterlimit: 10; stroke-width: .8px;"/>
      <rect x="120.3" y="104.4" width="87.8" height="117.9" rx="7" ry="7" style="fill: #fff; stroke: #231f20; stroke-miterlimit: 10; stroke-width: .8px;"/>
      <rect x="142.9" y="104.4" width="87.8" height="117.9" rx="7" ry="7" style="fill: #fff; stroke: #231f20; stroke-miterlimit: 10; stroke-width: .8px;"/>
    </g>
  </g>
</svg>