<?xml version="1.0" encoding="UTF-8"?>
<svg id="Layer_1" xmlns="http://www.w3.org/2000/svg" version="1.1" viewBox="0 0 500 351.5">
  <!-- Generator: Adobe Illustrator 29.6.1, SVG Export Plug-In . SVG Version: 2.1.1 Build 9)  -->
  <g style="isolation: isolate;">
    <g style="isolation: isolate;">
      <path d="M147.7,58.9c1.5,0,2.7-.4,3.5-1.2.8-.8,1.2-1.8,1.2-3s-.4-2.5-1.3-3.1c-.8-.7-2.2-1-4-1h-2.7v-2.6l4.5-6.1,2.1-1.7-2.9.3h-6.2v-4.1h14.2v2.6l-5.2,7-1.6,1v.2l1.6-.2c.9,0,1.7.3,2.5.6s1.5.8,2,1.4c.6.6,1,1.4,1.4,2.2s.5,1.9.5,3.1-.2,2.7-.7,3.8c-.5,1.1-1.2,2-2,2.7-.9.7-1.9,1.3-3,1.6-1.1.3-2.4.5-3.7.5s-2.2,0-3.4-.3c-1.2-.2-2.1-.5-2.8-.9l1.3-4c.6.3,1.4.6,2.1.8.8.2,1.7.3,2.6.3Z"/>
      <path d="M166.2,53l-5.6-9.1h5.8l2.4,4,1,2.6,1.1-2.6,2.5-4h5.2l-5.6,8.9,6,9.7h-5.6l-2.9-4.5-1.1-2.8-1.2,2.8-2.9,4.5h-5.3l6-9.5Z"/>
    </g>
    <g style="isolation: isolate;">
      <path d="M208,62.5h-15.4v-26h3.1v23.3h12.3v2.8Z"/>
      <path d="M210.5,45.3c.9-.6,2-1,3.3-1.3,1.3-.3,2.6-.4,3.9-.4s2.3.2,3.1.5c.8.3,1.4.8,1.8,1.4.4.6.7,1.2.8,1.8s.2,1.3.2,2c0,1.5,0,2.9-.1,4.4s-.1,2.8-.1,4,0,1.8.1,2.6c0,.8.2,1.6.4,2.3h-2.2l-.8-2.6h-.2c-.2.3-.5.7-.8,1-.3.3-.7.6-1.2.9-.5.3-1,.5-1.6.7-.6.2-1.3.3-2.1.3s-1.5-.1-2.2-.4c-.7-.2-1.3-.6-1.8-1.1-.5-.5-.9-1-1.2-1.7-.3-.6-.4-1.4-.4-2.2s.2-2,.7-2.7,1.1-1.3,1.9-1.7c.8-.4,1.8-.7,2.9-.9,1.1-.2,2.4-.3,3.7-.3h1c.3,0,.7,0,1,0,0-.7.1-1.4.1-2,0-1.4-.3-2.3-.8-2.9-.5-.5-1.5-.8-3-.8s-.9,0-1.4,0c-.5,0-1,.2-1.5.3-.5.1-1,.3-1.5.4s-.9.4-1.2.6l-.9-2.3ZM215.7,60.2c.7,0,1.3,0,1.9-.3.5-.2,1-.4,1.4-.7.4-.3.7-.6,1-.9.3-.3.5-.7.6-1v-3.1c-.3,0-.7,0-1.1,0-.4,0-.7,0-1.1,0-.8,0-1.5,0-2.3.1-.7,0-1.4.2-1.9.5-.6.2-1,.6-1.3,1s-.5.9-.5,1.5.3,1.6.9,2.1c.6.6,1.4.8,2.4.8Z"/>
      <path d="M239.4,36.7c.9-.2,2-.3,3.3-.4,1.2,0,2.3-.1,3.4-.1s2.2.1,3.3.4c1,.2,1.9.7,2.7,1.2.8.6,1.4,1.3,1.9,2.2.5.9.7,2,.7,3.3,0,2-.6,3.7-1.7,4.9-1.1,1.3-2.5,2.1-4.2,2.5l1.8,1.4,6.5,10.3h-3.6l-7.2-11.2-3.6-.6v11.8h-3.1v-25.8ZM246.1,38.8h-1c-.3,0-.7,0-1,0-.3,0-.6,0-.9,0-.3,0-.5,0-.7.1v9.6h2.9c1.7,0,3.1-.4,4.2-1.3,1.1-.8,1.7-2.2,1.7-3.9s-.5-2.4-1.4-3.3c-.9-.9-2.2-1.3-3.8-1.3Z"/>
      <path d="M258.4,53.2c0-3.1.7-5.6,2.1-7.2,1.4-1.7,3.4-2.5,6-2.5s2.6.2,3.6.7c1,.5,1.9,1.1,2.5,2,.7.9,1.2,1.9,1.5,3.1s.5,2.5.5,4c0,3.1-.7,5.6-2.1,7.2-1.4,1.7-3.4,2.5-6,2.5s-2.6-.2-3.6-.7c-1-.5-1.9-1.1-2.5-2-.7-.9-1.2-1.9-1.5-3.1s-.5-2.5-.5-4ZM261.5,53.2c0,.9,0,1.8.3,2.7.2.9.5,1.6.9,2.3.4.6.9,1.2,1.6,1.6.6.4,1.4.6,2.3.6,3.4,0,5.1-2.4,5.1-7.1s0-1.9-.3-2.8c-.2-.9-.5-1.6-.9-2.3-.4-.6-.9-1.2-1.6-1.5-.6-.4-1.4-.6-2.3-.6-3.4,0-5.1,2.4-5.1,7.1Z"/>
      <path d="M284.5,56l1,3.6h.2l.8-3.6,3.6-12h3l-5.5,16.7c-.4,1.2-.8,2.4-1.2,3.5s-.9,2.2-1.4,3.1c-.5.9-1.1,1.6-1.7,2.1-.6.5-1.3.8-2.2.8s-1.6-.1-2.2-.4l.5-2.6c.3.1.6.2.9.2.7,0,1.4-.4,2-1.1.6-.7,1.2-2,1.6-3.8l-7.5-18.6h3.4l4.5,12.1Z"/>
      <path d="M296,45.3c.9-.6,2-1,3.3-1.3,1.3-.3,2.6-.4,3.9-.4s2.3.2,3.1.5c.8.3,1.4.8,1.8,1.4.4.6.7,1.2.8,1.8.1.7.2,1.3.2,2,0,1.5,0,2.9-.1,4.4,0,1.4-.1,2.8-.1,4s0,1.8.1,2.6c0,.8.2,1.6.4,2.3h-2.2l-.8-2.6h-.2c-.2.3-.5.7-.8,1s-.7.6-1.2.9c-.5.3-1,.5-1.6.7s-1.3.3-2.1.3-1.5-.1-2.2-.4c-.7-.2-1.3-.6-1.8-1.1-.5-.5-.9-1-1.2-1.7-.3-.6-.4-1.4-.4-2.2s.2-2,.7-2.7c.4-.7,1.1-1.3,1.9-1.7.8-.4,1.8-.7,2.9-.9,1.1-.2,2.4-.3,3.7-.3h1c.3,0,.7,0,1,0,0-.7.1-1.4.1-2,0-1.4-.3-2.3-.8-2.9-.5-.5-1.5-.8-3-.8s-.9,0-1.4,0c-.5,0-1,.2-1.5.3s-1,.3-1.5.4-.9.4-1.2.6l-.9-2.3ZM301.3,60.2c.7,0,1.3,0,1.9-.3.5-.2,1-.4,1.4-.7.4-.3.7-.6,1-.9.3-.3.5-.7.6-1v-3.1c-.3,0-.7,0-1.1,0-.4,0-.7,0-1.1,0-.8,0-1.5,0-2.2.1-.7,0-1.4.2-1.9.5s-1,.6-1.3,1c-.3.4-.5.9-.5,1.5s.3,1.6.9,2.1c.6.6,1.4.8,2.4.8Z"/>
      <path d="M317.4,43.9v10.6c0,1,0,1.8.2,2.5.1.7.3,1.3.6,1.8s.6.8,1.1,1.1,1.1.4,1.8.4,1.3-.1,1.8-.3,1-.5,1.4-.9c.4-.4.8-.8,1.1-1.3.3-.5.6-1,.8-1.5v-12.4h3v13.3c0,.9,0,1.8,0,2.8,0,1,.2,1.8.3,2.5h-2l-.7-2.9h-.2c-.6,1-1.3,1.8-2.3,2.4s-2.2,1-3.7,1-1.9-.1-2.6-.4c-.8-.2-1.4-.7-1.9-1.2-.5-.6-.9-1.4-1.2-2.4-.3-1-.4-2.3-.4-3.8v-11.2h3Z"/>
      <path d="M332.4,43.9h2.9v-3.7l3-.9v4.5h5.1v2.6h-5.1v10.3c0,1.3.2,2.2.5,2.7s.9.8,1.6.8,1.2,0,1.6-.2c.4-.1.9-.3,1.5-.5l.7,2.3c-.7.3-1.4.6-2.2.8-.8.2-1.6.3-2.6.3-1.5,0-2.6-.4-3.2-1.3-.6-.9-.9-2.3-.9-4.3v-10.9h-2.9v-2.6Z"/>
      <path d="M360.6,61c-.7.6-1.7,1.1-2.8,1.4-1.1.3-2.3.5-3.6.5s-2.6-.2-3.7-.7c-1-.5-1.9-1.1-2.6-2-.7-.9-1.2-1.9-1.5-3.1-.3-1.2-.5-2.5-.5-4,0-3.2.7-5.6,2.1-7.3,1.4-1.7,3.4-2.5,6.1-2.5s1.7,0,2.5.3c.8.2,1.6.5,2.3,1.1.7.5,1.2,1.3,1.6,2.2.4,1,.6,2.2.6,3.8s0,1.7-.2,2.7h-11.9c0,1.1.1,2.1.3,2.9.2.8.6,1.6,1,2.1.5.6,1.1,1,1.8,1.3.8.3,1.7.5,2.8.5s1.7-.1,2.5-.4c.8-.3,1.5-.6,1.9-1l1.1,2.2ZM354.2,46.1c-1.5,0-2.6.4-3.5,1.2-.9.8-1.4,2.1-1.6,3.9h9.2c0-1.9-.4-3.2-1.1-4s-1.7-1.1-3.1-1.1ZM355,35.7h3.3v.8l-3.8,4.8h-1.7l2.2-5.5Z"/>
    </g>
  </g>
  <g>
    <g>
      <rect x="33.8" y="193.6" width="87.8" height="117.9" rx="7" ry="7" style="fill: #fff; stroke: #231f20; stroke-miterlimit: 10; stroke-width: .8px;"/>
      <rect x="56.3" y="193.6" width="87.8" height="117.9" rx="7" ry="7" style="fill: #fff; stroke: #231f20; stroke-miterlimit: 10; stroke-width: .8px;"/>
      <rect x="78.9" y="193.6" width="87.8" height="117.9" rx="7" ry="7" style="fill: #fff; stroke: #231f20; stroke-miterlimit: 10; stroke-width: .8px;"/>
    </g>
    <g>
      <rect x="333.3" y="193.6" width="87.8" height="117.9" rx="7" ry="7" style="fill: #fff; stroke: #231f20; stroke-miterlimit: 10; stroke-width: .8px;"/>
      <rect x="355.8" y="193.6" width="87.8" height="117.9" rx="7" ry="7" style="fill: #fff; stroke: #231f20; stroke-miterlimit: 10; stroke-width: .8px;"/>
      <rect x="378.4" y="193.6" width="87.8" height="117.9" rx="7" ry="7" style="fill: #fff; stroke: #231f20; stroke-miterlimit: 10; stroke-width: .8px;"/>
    </g>
    <g>
      <rect x="183.6" y="105.2" width="87.8" height="117.9" rx="7" ry="7" style="fill: #fff; stroke: #231f20; stroke-miterlimit: 10; stroke-width: .8px;"/>
      <rect x="206.1" y="105.2" width="87.8" height="117.9" rx="7" ry="7" style="fill: #fff; stroke: #231f20; stroke-miterlimit: 10; stroke-width: .8px;"/>
      <rect x="228.7" y="105.2" width="87.8" height="117.9" rx="7" ry="7" style="fill: #fff; stroke: #231f20; stroke-miterlimit: 10; stroke-width: .8px;"/>
    </g>
  </g>
  <path d="M195.5,114.5h1.9v12.4c0,1.2-.3,2.1-.8,2.8-.5.6-1.3,1-2.4,1s-.3,0-.5,0c-.2,0-.4,0-.5,0s-.4,0-.5-.1-.3,0-.4-.2l.4-1.6c.4.2.9.3,1.4.3s1.1-.2,1.3-.7c.2-.4.3-1.1.3-1.8v-11.9Z"/>
  <path d="M39.1,211.3c0-2.6.6-4.7,1.7-6.1s2.7-2.1,4.8-2.1,2.1.2,2.9.6c.8.4,1.5.9,2,1.7.5.7.9,1.6,1.2,2.6s.4,2.1.4,3.4c0,2.6-.6,4.7-1.7,6.1s-2.7,2.1-4.8,2.1-2.1-.2-2.9-.6c-.8-.4-1.5-.9-2-1.7-.5-.7-.9-1.6-1.2-2.6-.3-1-.4-2.1-.4-3.4ZM41.1,211.3c0,.9,0,1.7.3,2.5.2.8.4,1.5.8,2.1.4.6.8,1.1,1.4,1.4.6.4,1.2.5,2,.5,1.4,0,2.5-.5,3.3-1.6.8-1.1,1.2-2.7,1.2-4.9s0-1.7-.3-2.5c-.2-.8-.4-1.5-.8-2.1s-.8-1.1-1.4-1.4-1.2-.5-2-.5c-1.4,0-2.5.5-3.3,1.6-.8,1.1-1.2,2.7-1.2,4.9ZM53.8,223.1c-.4.1-.7.2-1.1.2-.3,0-.7,0-1,0-.8,0-1.5,0-2.2-.2-.7-.2-1.4-.3-2.1-.5-.7-.2-1.3-.4-1.9-.5s-1.2-.2-1.8-.2-.7,0-1,.1v-1.7c.2,0,.4,0,.6-.1s.4,0,.6,0c.6,0,1.3,0,1.9.2.6.2,1.3.3,1.9.5s1.3.4,2,.5c.7.2,1.4.2,2.1.2s1.3,0,2-.2v1.6Z"/>
  <path d="M61.4,211.3c0-2.6.6-4.7,1.7-6.1s2.7-2.1,4.8-2.1,2.1.2,2.9.6c.8.4,1.5.9,2,1.7.5.7.9,1.6,1.2,2.6s.4,2.1.4,3.4c0,2.6-.6,4.7-1.7,6.1s-2.7,2.1-4.8,2.1-2.1-.2-2.9-.6c-.8-.4-1.5-.9-2-1.7-.5-.7-.9-1.6-1.2-2.6-.3-1-.4-2.1-.4-3.4ZM63.4,211.3c0,.9,0,1.7.3,2.5.2.8.4,1.5.8,2.1.4.6.8,1.1,1.4,1.4.6.4,1.2.5,2,.5,1.4,0,2.5-.5,3.3-1.6.8-1.1,1.2-2.7,1.2-4.9s0-1.7-.3-2.5c-.2-.8-.4-1.5-.8-2.1s-.8-1.1-1.4-1.4-1.2-.5-2-.5c-1.4,0-2.5.5-3.3,1.6-.8,1.1-1.2,2.7-1.2,4.9ZM76.1,223.1c-.4.1-.7.2-1.1.2-.3,0-.7,0-1,0-.8,0-1.5,0-2.2-.2-.7-.2-1.4-.3-2.1-.5-.7-.2-1.3-.4-1.9-.5s-1.2-.2-1.8-.2-.7,0-1,.1v-1.7c.2,0,.4,0,.6-.1s.4,0,.6,0c.6,0,1.3,0,1.9.2.6.2,1.3.3,1.9.5s1.3.4,2,.5c.7.2,1.4.2,2.1.2s1.3,0,2-.2v1.6Z"/>
  <path d="M83.2,211.3c0-2.6.6-4.7,1.7-6.1s2.7-2.1,4.8-2.1,2.1.2,2.9.6c.8.4,1.5.9,2,1.7.5.7.9,1.6,1.2,2.6s.4,2.1.4,3.4c0,2.6-.6,4.7-1.7,6.1s-2.7,2.1-4.8,2.1-2.1-.2-2.9-.6c-.8-.4-1.5-.9-2-1.7-.5-.7-.9-1.6-1.2-2.6-.3-1-.4-2.1-.4-3.4ZM85.1,211.3c0,.9,0,1.7.3,2.5.2.8.4,1.5.8,2.1.4.6.8,1.1,1.4,1.4.6.4,1.2.5,2,.5,1.4,0,2.5-.5,3.3-1.6.8-1.1,1.2-2.7,1.2-4.9s0-1.7-.3-2.5c-.2-.8-.4-1.5-.8-2.1s-.8-1.1-1.4-1.4-1.2-.5-2-.5c-1.4,0-2.5.5-3.3,1.6-.8,1.1-1.2,2.7-1.2,4.9ZM97.8,223.1c-.4.1-.7.2-1.1.2-.3,0-.7,0-1,0-.8,0-1.5,0-2.2-.2-.7-.2-1.4-.3-2.1-.5-.7-.2-1.3-.4-1.9-.5s-1.2-.2-1.8-.2-.7,0-1,.1v-1.7c.2,0,.4,0,.6-.1s.4,0,.6,0c.6,0,1.3,0,1.9.2.6.2,1.3.3,1.9.5s1.3.4,2,.5c.7.2,1.4.2,2.1.2s1.3,0,2-.2v1.6Z"/>
  <path d="M343.4,211.9h-1.1v7.3h-1.9v-15.8h1.9v7.4l1-.3,5.3-7.1h2.2l-5.3,6.8-1,.7,1.2.9,5.8,7.4h-2.4l-5.8-7.3Z"/>
  <path d="M366,211.9h-1.1v7.3h-1.9v-15.8h1.9v7.4l1-.3,5.3-7.1h2.2l-5.3,6.8-1,.7,1.2.9,5.8,7.4h-2.4l-5.8-7.3Z"/>
  <path d="M388.7,211.9h-1.1v7.3h-1.9v-15.8h1.9v7.4l1-.3,5.3-7.1h2.2l-5.3,6.8-1,.7,1.2.9,5.8,7.4h-2.4l-5.8-7.3Z"/>
  <path d="M217.7,114.5h1.9v12.4c0,1.2-.3,2.1-.8,2.8-.5.6-1.3,1-2.4,1s-.3,0-.5,0c-.2,0-.4,0-.5,0-.2,0-.4,0-.5-.1-.2,0-.3,0-.4-.2l.4-1.6c.4.2.9.3,1.4.3s1.1-.2,1.3-.7c.2-.4.3-1.1.3-1.8v-11.9Z"/>
  <path d="M239.9,114.5h1.9v12.4c0,1.2-.3,2.1-.8,2.8-.5.6-1.3,1-2.4,1s-.3,0-.5,0c-.2,0-.4,0-.5,0-.2,0-.4,0-.5-.1-.2,0-.3,0-.4-.2l.4-1.6c.4.2.9.3,1.4.3s1.1-.2,1.3-.7c.2-.4.3-1.1.3-1.8v-11.9Z"/>
</svg>