<?xml version="1.0" encoding="UTF-8"?>
<svg id="Layer_1" xmlns="http://www.w3.org/2000/svg" version="1.1" viewBox="0 0 500 549.8">
  <!-- Generator: Adobe Illustrator 29.6.1, SVG Export Plug-In . SVG Version: 2.1.1 Build 9)  -->
  <g style="isolation: isolate;">
    <text transform="translate(144.7 62.5)" style="font-family: PTSans-Bold, &apos;PT Sans&apos;; font-size: 37.2px; font-weight: 700; isolation: isolate;"><tspan x="0" y="0">1x</tspan></text>
    <text transform="translate(185.4 62.5)" style="font-family: PTSans-Regular, &apos;PT Sans&apos;; font-size: 37.2px; isolation: isolate;"><tspan x="0" y="0" xml:space="preserve"> Suite de 4</tspan></text>
  </g>
  <g>
    <g>
      <path d="M299.9,206.3c-2.4-4.1-5.4-8.2-8.6-11.8-10.3-11.8-29-23.5-23.3-41.9,3.2-10.6,15-15.7,24.7-9.8,9.7,5.9,5.8,6,7.6,9.8,2-5.4,5.4-9.7,11-11.5,14-4.3,24,8.8,21.8,21.8-2.2,13.1-18.2,24.1-26.4,34.3-8.2,10.2-4.2,6.5-6,8.4s-.4.6-.8.5h0Z" style="fill: #f75750;"/>
      <path d="M385.1,206.3c-6.5-12.2-15.7-22.7-25-32.9,9.6-9.8,18.2-20.6,25.1-32.6.5,0,.5.2.7.5,1.9,2.3,4.1,6.7,6,9.4,3.6,5.2,7.6,10.3,11.8,15.1s5.2,5.2,7.3,7.9c-9.7,9.6-18.1,20.5-25.2,32.4l-.7.4h0Z" style="fill: #f75750;"/>
    </g>
    <g>
      <rect x="89" y="128.8" width="87.8" height="117.9" rx="6.9" ry="6.9" style="fill: #fff; stroke: #231f20; stroke-miterlimit: 10; stroke-width: .8px;"/>
      <rect x="109.4" y="119.3" width="87.8" height="117.9" rx="6.9" ry="6.9" style="fill: #fff; stroke: #231f20; stroke-miterlimit: 10; stroke-width: .8px;"/>
      <rect x="129.8" y="109.9" width="87.8" height="117.9" rx="6.9" ry="6.9" style="fill: #fff; stroke: #231f20; stroke-miterlimit: 10; stroke-width: .8px;"/>
      <rect x="150.2" y="100.4" width="87.8" height="117.9" rx="6.9" ry="6.9" style="fill: #fff; stroke: #231f20; stroke-miterlimit: 10; stroke-width: .8px;"/>
    </g>
  </g>
  <g style="isolation: isolate;">
    <text transform="translate(144.7 324.1)" style="font-family: PTSans-Bold, &apos;PT Sans&apos;; font-size: 37.2px; font-weight: 700; isolation: isolate;"><tspan x="0" y="0">1x</tspan></text>
    <text transform="translate(185.4 324.1)" style="font-family: PTSans-Regular, &apos;PT Sans&apos;; font-size: 37.2px; isolation: isolate;"><tspan x="0" y="0" xml:space="preserve"> Suite de 4</tspan></text>
  </g>
  <g>
    <g>
      <rect x="87.2" y="390.4" width="87.8" height="117.9" rx="6.9" ry="6.9" style="fill: #fff; stroke: #231f20; stroke-miterlimit: 10; stroke-width: .8px;"/>
      <rect x="107.6" y="380.9" width="87.8" height="117.9" rx="6.9" ry="6.9" style="fill: #fff; stroke: #231f20; stroke-miterlimit: 10; stroke-width: .8px;"/>
      <rect x="128" y="371.5" width="87.8" height="117.9" rx="6.9" ry="6.9" style="fill: #fff; stroke: #231f20; stroke-miterlimit: 10; stroke-width: .8px;"/>
      <rect x="148.4" y="362" width="87.8" height="117.9" rx="6.9" ry="6.9" style="fill: #fff; stroke: #231f20; stroke-miterlimit: 10; stroke-width: .8px;"/>
    </g>
    <g>
      <path d="M371.3,468.1l-.5-.7c4.1-3.5,7-7.8,7.4-13.3.5-5.5.2-4.7-.6-4-3,9.8-15.5,12.6-23.3,6.4-13.7-10.9-1.7-32.2,14.6-26.8l-2.3-3.4c-7.7-13.1,5.2-28.6,19.6-23.4,10.9,4,13.8,17.8,6.2,26.4,12.6-3.5,24.1,8.5,19.1,21-5,12.5-23.6,12.8-28.1-.2-1.1-.8-.2,5.5-.1,6,.5,2.5,2,5.8,3.6,7.8s2.6,2,3.4,3.5l-.4.7h-18.7Z" style="fill: #292929;"/>
      <path d="M285.7,468.1l-.4-.7c0-.6,2.6-2.6,3.2-3.4,3.2-3.8,4.8-9.2,4.2-14.3-1.8,2.5-2.8,5.2-5.5,7-9.6,6.4-21.7-1-22.6-11.9-.8-10.9,14.3-23.9,23-33.5,2.6-2.9,4.9-6,7.2-9,.4,0,.7.4.8.6,1.7,1.7,3.8,5,5.5,7.1,8.6,9.7,24.7,19.2,24.4,34-.4,14.3-18.7,21.5-26.5,8.5s-1.2-3.2-1.8-2.6c-.2,4.8.8,9.8,4,13.7s3.6,2.8,3.6,4.7h-19.4.2Z" style="fill: #292929;"/>
    </g>
  </g>
</svg>