<?xml version="1.0" encoding="UTF-8"?>
<svg id="Layer_1" xmlns="http://www.w3.org/2000/svg" version="1.1" viewBox="0 0 500 351.5">
  <!-- Generator: Adobe Illustrator 29.6.1, SVG Export Plug-In . SVG Version: 2.1.1 Build 9)  -->
  <g style="isolation: isolate;">
    <text transform="translate(138.8 62.5)" style="font-family: PTSans-Bold, &apos;PT Sans&apos;; font-size: 37.2px; font-weight: 700; isolation: isolate;"><tspan x="0" y="0">3x</tspan></text>
    <text transform="translate(179.5 62.5)" style="font-family: PTSans-Regular, &apos;PT Sans&apos;; font-size: 37.2px; isolation: isolate;"><tspan x="0" y="0" xml:space="preserve"> La Royauté</tspan></text>
  </g>
  <g>
    <g>
      <rect x="33.8" y="193.6" width="87.8" height="117.9" rx="7" ry="7" style="fill: #fff; stroke: #231f20; stroke-miterlimit: 10; stroke-width: .8px;"/>
      <rect x="56.3" y="193.6" width="87.8" height="117.9" rx="7" ry="7" style="fill: #fff; stroke: #231f20; stroke-miterlimit: 10; stroke-width: .8px;"/>
      <rect x="78.9" y="193.6" width="87.8" height="117.9" rx="7" ry="7" style="fill: #fff; stroke: #231f20; stroke-miterlimit: 10; stroke-width: .8px;"/>
    </g>
    <g>
      <rect x="333.3" y="193.6" width="87.8" height="117.9" rx="7" ry="7" style="fill: #fff; stroke: #231f20; stroke-miterlimit: 10; stroke-width: .8px;"/>
      <rect x="355.8" y="193.6" width="87.8" height="117.9" rx="7" ry="7" style="fill: #fff; stroke: #231f20; stroke-miterlimit: 10; stroke-width: .8px;"/>
      <rect x="378.4" y="193.6" width="87.8" height="117.9" rx="7" ry="7" style="fill: #fff; stroke: #231f20; stroke-miterlimit: 10; stroke-width: .8px;"/>
    </g>
    <g>
      <rect x="183.6" y="105.2" width="87.8" height="117.9" rx="7" ry="7" style="fill: #fff; stroke: #231f20; stroke-miterlimit: 10; stroke-width: .8px;"/>
      <rect x="206.1" y="105.2" width="87.8" height="117.9" rx="7" ry="7" style="fill: #fff; stroke: #231f20; stroke-miterlimit: 10; stroke-width: .8px;"/>
      <rect x="228.7" y="105.2" width="87.8" height="117.9" rx="7" ry="7" style="fill: #fff; stroke: #231f20; stroke-miterlimit: 10; stroke-width: .8px;"/>
    </g>
  </g>
  <text transform="translate(193 130.4)" style="font-family: PTSans-Regular, &apos;PT Sans&apos;; font-size: 22.6px;"><tspan x="0" y="0">J</tspan></text>
  <text transform="translate(37.9 219.2)" style="font-family: PTSans-Regular, &apos;PT Sans&apos;; font-size: 22.6px;"><tspan x="0" y="0">Q</tspan></text>
  <text transform="translate(60.2 219.2)" style="font-family: PTSans-Regular, &apos;PT Sans&apos;; font-size: 22.6px;"><tspan x="0" y="0">Q</tspan></text>
  <text transform="translate(81.9 219.2)" style="font-family: PTSans-Regular, &apos;PT Sans&apos;; font-size: 22.6px;"><tspan x="0" y="0">Q</tspan></text>
  <text transform="translate(338.5 219.2)" style="font-family: PTSans-Regular, &apos;PT Sans&apos;; font-size: 22.6px;"><tspan x="0" y="0">K</tspan></text>
  <text transform="translate(361.2 219.2)" style="font-family: PTSans-Regular, &apos;PT Sans&apos;; font-size: 22.6px;"><tspan x="0" y="0">K</tspan></text>
  <text transform="translate(383.8 219.2)" style="font-family: PTSans-Regular, &apos;PT Sans&apos;; font-size: 22.6px;"><tspan x="0" y="0">K</tspan></text>
  <text transform="translate(215.2 130.4)" style="font-family: PTSans-Regular, &apos;PT Sans&apos;; font-size: 22.6px;"><tspan x="0" y="0">J</tspan></text>
  <text transform="translate(237.4 130.4)" style="font-family: PTSans-Regular, &apos;PT Sans&apos;; font-size: 22.6px;"><tspan x="0" y="0">J</tspan></text>
</svg>