<?xml version="1.0" encoding="UTF-8"?>
<svg id="Layer_1" xmlns="http://www.w3.org/2000/svg" version="1.1" viewBox="0 0 500 399.3">
  <!-- Generator: Adobe Illustrator 29.6.1, SVG Export Plug-In . SVG Version: 2.1.1 Build 9)  -->
  <g style="isolation: isolate;">
    <g style="isolation: isolate;">
      <path d="M119,55.2h-4.1v7.3h-4.5v-7.3h-11.3v-2.8l11.8-16.2h4v15.1h4.1v3.9ZM110.4,45.7l.3-3.1h-.1l-1.3,2.7-3.9,5-1.9,1.4,2.4-.3h4.4v-5.7Z"/>
      <path d="M125.8,53l-5.6-9.1h5.8l2.4,4,1,2.6,1.1-2.6,2.5-4h5.2l-5.6,8.9,6,9.7h-5.6l-2.9-4.5-1.1-2.8-1.2,2.8-2.9,4.5h-5.3l6-9.5Z"/>
    </g>
    <g style="isolation: isolate;">
      <path d="M152.2,36.7c.9-.2,2-.4,3-.4,1.1,0,2.2-.1,3.2-.1s2.3.1,3.5.3c1.2.2,2.3.6,3.2,1.2s1.8,1.4,2.4,2.5c.6,1,.9,2.4.9,4s-.3,2.9-.9,4c-.6,1.1-1.3,2-2.3,2.7-.9.7-2,1.2-3.2,1.5-1.2.3-2.5.4-3.8.4h-.6c-.3,0-.6,0-.9,0-.3,0-.6,0-.9,0s-.5,0-.6,0v9.9h-3.1v-25.8ZM158.6,38.8c-.6,0-1.3,0-1.9,0-.6,0-1.1,0-1.4.2v10.8c.1,0,.3,0,.6,0,.3,0,.6,0,.9,0s.6,0,.9,0h.6c.8,0,1.7,0,2.5-.2.8-.2,1.6-.5,2.2-.9.7-.4,1.2-1,1.6-1.8.4-.8.6-1.7.6-2.9s-.2-1.9-.6-2.5c-.4-.7-.9-1.2-1.5-1.6-.6-.4-1.3-.7-2.1-.9s-1.6-.3-2.4-.3Z"/>
      <path d="M171.1,45.3c.9-.6,2-1,3.3-1.3,1.3-.3,2.6-.4,3.9-.4s2.3.2,3.1.5c.8.3,1.4.8,1.8,1.4.4.6.7,1.2.8,1.8.1.7.2,1.3.2,2,0,1.5,0,2.9-.1,4.4,0,1.4-.1,2.8-.1,4s0,1.8.1,2.6c0,.8.2,1.6.4,2.3h-2.2l-.8-2.6h-.2c-.2.3-.5.7-.8,1s-.7.6-1.2.9c-.5.3-1,.5-1.6.7-.6.2-1.3.3-2.1.3s-1.5-.1-2.2-.4c-.7-.2-1.3-.6-1.8-1.1-.5-.5-.9-1-1.2-1.7-.3-.6-.4-1.4-.4-2.2s.2-2,.7-2.7,1.1-1.3,1.9-1.7c.8-.4,1.8-.7,2.9-.9,1.1-.2,2.4-.3,3.7-.3h1c.3,0,.7,0,1,0,0-.7.1-1.4.1-2,0-1.4-.3-2.3-.8-2.9-.5-.5-1.5-.8-3-.8s-.9,0-1.4,0c-.5,0-1,.2-1.5.3-.5.1-1,.3-1.5.4s-.9.4-1.2.6l-.9-2.3ZM176.4,60.2c.7,0,1.3,0,1.9-.3.5-.2,1-.4,1.4-.7s.7-.6,1-.9c.3-.3.5-.7.6-1v-3.1c-.3,0-.7,0-1.1,0-.4,0-.7,0-1.1,0-.8,0-1.5,0-2.3.1-.7,0-1.4.2-1.9.5-.6.2-1,.6-1.3,1s-.5.9-.5,1.5.3,1.6.9,2.1c.6.6,1.4.8,2.4.8Z"/>
      <path d="M189.9,38.2c0-.6.2-1.1.6-1.5.4-.4.9-.6,1.5-.6s1.1.2,1.5.6.6.9.6,1.5-.2,1-.6,1.4-.9.6-1.5.6-1.1-.2-1.5-.6c-.4-.4-.6-.8-.6-1.4ZM190.5,43.9h3v18.6h-3v-18.6Z"/>
      <path d="M208.6,46.8c-.7-.2-1.5-.4-2.1-.4-1.1,0-1.9.3-2.5.9-.6.6-1,1.3-1.2,2.2v13h-3v-18.6h2.1l.6,2.3h.1c.5-.8,1-1.5,1.7-2,.7-.5,1.5-.7,2.5-.7s1.5.1,2.4.4l-.6,2.9Z"/>
      <path d="M226,61c-.7.6-1.7,1.1-2.8,1.4-1.1.3-2.3.5-3.6.5s-2.6-.2-3.7-.7c-1-.5-1.9-1.1-2.6-2-.7-.9-1.2-1.9-1.5-3.1s-.5-2.5-.5-4c0-3.2.7-5.6,2.1-7.3,1.4-1.7,3.4-2.5,6.1-2.5s1.7,0,2.5.3c.8.2,1.6.5,2.3,1.1.7.5,1.2,1.3,1.6,2.2.4,1,.6,2.2.6,3.8s0,1.7-.2,2.7h-11.9c0,1.1.1,2.1.3,2.9.2.8.6,1.6,1,2.1.5.6,1.1,1,1.8,1.3.8.3,1.7.5,2.8.5s1.7-.1,2.5-.4c.8-.3,1.5-.6,1.9-1l1.1,2.2ZM219.6,46.1c-1.5,0-2.6.4-3.5,1.2-.9.8-1.4,2.1-1.6,3.9h9.2c0-1.9-.4-3.2-1.1-4-.7-.8-1.7-1.1-3.1-1.1Z"/>
      <path d="M255.6,56.1c0,1.3,0,2.4,0,3.4,0,1,.1,2,.3,3h-2l-.7-2.6h-.1c-.5.9-1.2,1.6-2.2,2.2-.9.6-2,.9-3.3.9-2.5,0-4.3-.8-5.5-2.3-1.2-1.6-1.8-4-1.8-7.3s.8-5.6,2.3-7.2c1.5-1.6,3.6-2.5,6.2-2.5s1.6,0,2.2.1c.5,0,1.1.3,1.7.5v-7.7h3v19.6ZM248.1,60.3c1.3,0,2.3-.3,3-1,.7-.7,1.3-1.7,1.5-3v-9.2c-.4-.3-1-.6-1.5-.7-.6-.1-1.3-.2-2.3-.2-1.7,0-3.1.6-4,1.7-1,1.1-1.5,2.9-1.5,5.4s0,2,.2,2.8c.2.9.4,1.6.8,2.2s.9,1.1,1.5,1.5c.6.4,1.3.5,2.2.5Z"/>
      <path d="M259.9,38c0-.6.2-1,.5-1.3.4-.3.8-.5,1.4-.5s1.3.2,1.7.7c.4.4.7,1.1.7,2s-.1,1.5-.4,2.1c-.2.6-.5,1.1-.9,1.5-.3.4-.7.7-1.1,1-.4.2-.7.4-1,.5l-.9-1.3c.6-.3,1-.7,1.3-1.1.3-.4.5-1,.5-1.7,0,0-.2,0-.4,0-.5,0-.8-.2-1.1-.5-.3-.3-.4-.8-.4-1.3Z"/>
      <path d="M268.5,38.2c0-.6.2-1.1.6-1.5s.9-.6,1.5-.6,1.1.2,1.5.6c.4.4.6.9.6,1.5s-.2,1-.6,1.4c-.4.4-.9.6-1.5.6s-1.1-.2-1.5-.6-.6-.8-.6-1.4ZM269.2,43.9h3v18.6h-3v-18.6Z"/>
      <path d="M289.4,62.5v-10.5c0-1,0-1.9-.1-2.6,0-.7-.3-1.3-.5-1.8s-.6-.9-1.1-1.1-1.1-.4-1.8-.4c-1.1,0-2.1.3-2.8,1-.8.7-1.3,1.6-1.6,2.6v12.8h-3v-18.6h2.1l.6,2.3h.1c.7-.8,1.4-1.4,2.3-2,.9-.5,2-.8,3.4-.8s2.2.2,2.9.7c.8.5,1.3,1.3,1.8,2.4.6-1,1.4-1.7,2.4-2.3,1-.5,2.1-.8,3.4-.8s1.9.1,2.6.4c.7.2,1.3.7,1.8,1.2.5.6.8,1.4,1,2.4s.3,2.3.3,3.9v11.2h-3v-11.2c0-.9,0-1.7-.1-2.3,0-.7-.3-1.2-.5-1.6-.3-.4-.6-.8-1.1-1s-1.1-.3-1.8-.3c-1.2,0-2.2.3-2.9,1-.7.7-1.2,1.7-1.5,3v12.4h-3Z"/>
      <path d="M308.7,43.9h2l.6,2.2h.1c.6-.9,1.3-1.5,2.2-2,.9-.5,1.9-.7,3.1-.7,2.5,0,4.3.7,5.5,2.2,1.2,1.5,1.8,3.9,1.8,7.2s-.2,3-.6,4.2c-.4,1.3-1,2.3-1.7,3.2-.7.9-1.6,1.5-2.7,2-1.1.5-2.2.7-3.5.7s-1.6,0-2.2-.2c-.5-.1-1.1-.3-1.7-.6v7.7h-3v-26ZM316.2,46.1c-1.3,0-2.3.3-3,1-.7.7-1.2,1.7-1.5,3v9.2c.4.3,1,.6,1.5.8.6.2,1.3.3,2.3.3,1.7,0,3.1-.6,4.1-1.9,1-1.3,1.5-3.2,1.5-5.6s0-1.9-.3-2.8c-.2-.8-.5-1.5-.8-2.1-.4-.6-.9-1-1.5-1.4-.6-.3-1.4-.5-2.2-.5Z"/>
      <path d="M328.5,45.3c.9-.6,2-1,3.3-1.3,1.3-.3,2.6-.4,3.9-.4s2.3.2,3.1.5c.8.3,1.4.8,1.8,1.4.4.6.7,1.2.8,1.8.1.7.2,1.3.2,2,0,1.5,0,2.9-.1,4.4s-.1,2.8-.1,4,0,1.8.1,2.6c0,.8.2,1.6.4,2.3h-2.2l-.8-2.6h-.2c-.2.3-.5.7-.8,1s-.7.6-1.2.9c-.5.3-1,.5-1.6.7s-1.3.3-2.1.3-1.5-.1-2.2-.4c-.7-.2-1.3-.6-1.8-1.1-.5-.5-.9-1-1.2-1.7-.3-.6-.4-1.4-.4-2.2s.2-2,.7-2.7c.4-.7,1.1-1.3,1.9-1.7.8-.4,1.8-.7,2.9-.9,1.1-.2,2.4-.3,3.7-.3h1c.3,0,.7,0,1,0,0-.7.1-1.4.1-2,0-1.4-.3-2.3-.8-2.9-.5-.5-1.5-.8-3-.8s-.9,0-1.4,0c-.5,0-1,.2-1.5.3-.5.1-1,.3-1.5.4s-.9.4-1.2.6l-.9-2.3ZM333.8,60.2c.7,0,1.3,0,1.9-.3.5-.2,1-.4,1.4-.7.4-.3.7-.6,1-.9.3-.3.5-.7.6-1v-3.1c-.3,0-.7,0-1.1,0-.4,0-.7,0-1.1,0-.8,0-1.5,0-2.3.1-.7,0-1.4.2-1.9.5-.6.2-1,.6-1.3,1s-.5.9-.5,1.5.3,1.6.9,2.1c.6.6,1.4.8,2.4.8Z"/>
      <path d="M347.3,38.2c0-.6.2-1.1.6-1.5s.9-.6,1.5-.6,1.1.2,1.5.6c.4.4.6.9.6,1.5s-.2,1-.6,1.4c-.4.4-.9.6-1.5.6s-1.1-.2-1.5-.6-.6-.8-.6-1.4ZM347.9,43.9h3v18.6h-3v-18.6Z"/>
      <path d="M366,46.8c-.7-.2-1.5-.4-2.1-.4-1.1,0-1.9.3-2.5.9-.6.6-1,1.3-1.2,2.2v13h-3v-18.6h2.1l.6,2.3h.1c.5-.8,1-1.5,1.7-2,.7-.5,1.5-.7,2.5-.7s1.5.1,2.4.4l-.6,2.9Z"/>
      <path d="M383.5,61c-.7.6-1.7,1.1-2.8,1.4-1.1.3-2.3.5-3.6.5s-2.6-.2-3.7-.7c-1-.5-1.9-1.1-2.6-2-.7-.9-1.2-1.9-1.5-3.1-.3-1.2-.5-2.5-.5-4,0-3.2.7-5.6,2.1-7.3,1.4-1.7,3.4-2.5,6.1-2.5s1.7,0,2.5.3c.8.2,1.6.5,2.3,1.1.7.5,1.2,1.3,1.6,2.2.4,1,.6,2.2.6,3.8s0,1.7-.2,2.7h-11.9c0,1.1.1,2.1.3,2.9.2.8.6,1.6,1,2.1.5.6,1.1,1,1.8,1.3.8.3,1.7.5,2.8.5s1.7-.1,2.5-.4c.8-.3,1.5-.6,1.9-1l1.1,2.2ZM377.1,46.1c-1.5,0-2.6.4-3.5,1.2-.9.8-1.4,2.1-1.6,3.9h9.2c0-1.9-.4-3.2-1.1-4-.7-.8-1.7-1.1-3-1.1Z"/>
      <path d="M397,57.4c0-.7-.2-1.3-.7-1.7-.4-.4-1-.8-1.7-1.1-.7-.3-1.4-.6-2.2-.8-.8-.3-1.5-.6-2.2-1-.7-.4-1.2-.9-1.7-1.6-.4-.6-.7-1.5-.7-2.6,0-1.8.5-3.1,1.5-3.9,1-.8,2.4-1.2,4.2-1.2s2.5.1,3.4.4c.9.2,1.7.5,2.4.8l-.7,2.5c-.6-.3-1.3-.5-2.1-.7-.8-.2-1.7-.3-2.6-.3s-1.9.2-2.4.6c-.5.4-.8,1-.8,1.9s.2,1.1.7,1.5c.4.4,1,.7,1.7,1,.7.3,1.4.6,2.2.8.8.3,1.5.6,2.2,1.1.7.4,1.2,1,1.7,1.7.4.7.7,1.6.7,2.7s-.1,1.5-.4,2.2c-.3.7-.7,1.3-1.2,1.8s-1.2.9-2,1.2-1.8.4-2.8.4-2.6-.1-3.6-.4c-1-.3-1.8-.6-2.5-1l.9-2.5c.6.3,1.3.6,2.2.9.9.3,1.8.4,2.8.4s1.9-.2,2.6-.6c.7-.4,1-1.2,1-2.3Z"/>
    </g>
  </g>
  <g>
    <g>
      <g>
        <rect x="67.6" y="175.4" width="87.8" height="117.9" rx="7" ry="7" style="fill: #fff; stroke: #231f20; stroke-miterlimit: 10; stroke-width: .8px;"/>
        <rect x="90.1" y="175.4" width="87.8" height="117.9" rx="7" ry="7" style="fill: #fff; stroke: #231f20; stroke-miterlimit: 10; stroke-width: .8px;"/>
      </g>
      <path d="M78.5,198.8c1,0,1.9-.3,2.6-.9.7-.6,1-1.5,1-2.6s-.3-1.9-1-2.5-1.6-.8-2.8-.8h-1.9c0,.1,0-7.7,0-7.7h7.1v1.7h-5.4v4.5h1c1.5,0,2.7.4,3.5,1.2.9.8,1.3,2,1.3,3.5s-.1,1.6-.4,2.3c-.3.7-.7,1.2-1.2,1.6-.5.4-1.1.8-1.7,1-.7.2-1.4.3-2.1.3s-1.3,0-1.7-.1-.9-.2-1.3-.3l.5-1.5c.3.1.7.2,1.1.3.4,0,.9.1,1.5.1Z"/>
      <path d="M101.1,198.8c1,0,1.9-.3,2.6-.9.7-.6,1-1.5,1-2.6s-.3-1.9-1-2.5-1.6-.8-2.8-.8h-1.9c0,.1,0-7.7,0-7.7h7.1v1.7h-5.4v4.5h1c1.5,0,2.7.4,3.5,1.2.9.8,1.3,2,1.3,3.5s-.1,1.6-.4,2.3c-.3.7-.7,1.2-1.2,1.6-.5.4-1.1.8-1.7,1-.7.2-1.4.3-2.1.3s-1.3,0-1.7-.1-.9-.2-1.3-.3l.5-1.5c.3.1.7.2,1.1.3.4,0,.9.1,1.5.1Z"/>
    </g>
    <g>
      <g>
        <rect x="322.1" y="175.4" width="87.8" height="117.9" rx="7" ry="7" style="fill: #fff; stroke: #231f20; stroke-miterlimit: 10; stroke-width: .8px;"/>
        <rect x="344.6" y="175.4" width="87.8" height="117.9" rx="7" ry="7" style="fill: #fff; stroke: #231f20; stroke-miterlimit: 10; stroke-width: .8px;"/>
      </g>
      <path d="M330.8,200.1l5.7-13.3,1-1.1-1.3.2h-6.4v-1.7h9.5v.6l-6.5,15.2h-1.8Z"/>
      <path d="M353.4,200.1l5.7-13.3,1-1.1-1.3.2h-6.4v-1.7h9.5v.6l-6.5,15.2h-1.8Z"/>
    </g>
  </g>
  <g>
    <g>
      <g>
        <rect x="194.8" y="105.2" width="87.8" height="117.9" rx="7" ry="7" style="fill: #fff; stroke: #231f20; stroke-miterlimit: 10; stroke-width: .8px;"/>
        <rect x="217.3" y="105.2" width="87.8" height="117.9" rx="7" ry="7" style="fill: #fff; stroke: #231f20; stroke-miterlimit: 10; stroke-width: .8px;"/>
      </g>
      <path d="M206.3,128.6c.5,0,1,0,1.4-.2.4-.2.8-.4,1.1-.7.3-.3.6-.6.7-1.1.2-.4.3-.9.3-1.3,0-1.1-.3-1.8-.9-2.4s-1.5-.8-2.6-.8h-1.7v-.7l3.3-5,1-1-1.5.2h-4.5v-1.7h8.1v.7l-3.6,5.4-.8.7h0s.8-.1.8-.1c.6,0,1.2.1,1.7.3s1,.5,1.3.9c.4.4.7.8.9,1.4.2.5.3,1.1.3,1.8s-.1,1.5-.4,2.2c-.3.6-.7,1.2-1.2,1.6s-1.1.8-1.7,1c-.7.2-1.4.3-2.1.3s-1.3,0-1.8-.2-1-.2-1.4-.4l.5-1.6c.3.2.8.3,1.2.4.5.1,1,.2,1.6.2Z"/>
      <path d="M228.9,128.6c.5,0,1,0,1.4-.2.4-.2.8-.4,1.1-.7.3-.3.6-.6.7-1.1.2-.4.3-.9.3-1.3,0-1.1-.3-1.8-.9-2.4s-1.5-.8-2.6-.8h-1.7v-.7l3.3-5,1-1-1.5.2h-4.5v-1.7h8.1v.7l-3.6,5.4-.8.7h0s.8-.1.8-.1c.6,0,1.2.1,1.7.3s1,.5,1.3.9c.4.4.7.8.9,1.4.2.5.3,1.1.3,1.8s-.1,1.5-.4,2.2c-.3.6-.7,1.2-1.2,1.6s-1.1.8-1.7,1c-.7.2-1.4.3-2.1.3s-1.3,0-1.8-.2-1-.2-1.4-.4l.5-1.6c.3.2.8.3,1.2.4.5.1,1,.2,1.6.2Z"/>
    </g>
    <g>
      <g>
        <rect x="194.8" y="245.6" width="87.8" height="117.9" rx="7" ry="7" style="fill: #fff; stroke: #231f20; stroke-miterlimit: 10; stroke-width: .8px;"/>
        <rect x="217.3" y="245.6" width="87.8" height="117.9" rx="7" ry="7" style="fill: #fff; stroke: #231f20; stroke-miterlimit: 10; stroke-width: .8px;"/>
      </g>
      <path d="M202.1,259.2c0-.7.1-1.4.3-2,.2-.6.5-1.2.9-1.6.4-.5.9-.8,1.5-1.1.6-.3,1.3-.4,2.1-.4,1.5,0,2.7.5,3.6,1.5s1.3,2.4,1.3,4.2-.2,3.2-.6,4.5c-.4,1.3-.9,2.3-1.6,3.2-.7.9-1.5,1.6-2.4,2s-1.9.8-3,.9l-.4-1.4c.9-.1,1.7-.4,2.4-.8s1.3-.9,1.8-1.4.9-1.2,1.2-2c.3-.7.5-1.5.7-2.4-.4.5-.9.8-1.3,1s-1.1.3-1.9.3-1.2-.1-1.8-.3c-.5-.2-1-.5-1.5-.9-.4-.4-.8-.9-1-1.4-.2-.6-.4-1.2-.4-2ZM204,259.1c0,1.1.3,1.9.8,2.4s1.3.8,2.2.8,1.4-.1,1.9-.4c.5-.2.9-.6,1.1-1,0-.2,0-.4,0-.5v-.5c0-.5,0-1.1-.2-1.6-.1-.5-.3-1-.6-1.4s-.6-.7-1-.9c-.4-.2-.9-.3-1.5-.3-.9,0-1.6.3-2.1.9-.5.6-.8,1.4-.8,2.4Z"/>
      <path d="M224.8,259.2c0-.7.1-1.4.3-2,.2-.6.5-1.2.9-1.6.4-.5.9-.8,1.5-1.1.6-.3,1.3-.4,2.1-.4,1.5,0,2.7.5,3.6,1.5s1.3,2.4,1.3,4.2-.2,3.2-.6,4.5c-.4,1.3-.9,2.3-1.6,3.2-.7.9-1.5,1.6-2.4,2s-1.9.8-3,.9l-.4-1.4c.9-.1,1.7-.4,2.4-.8s1.3-.9,1.8-1.4.9-1.2,1.2-2c.3-.7.5-1.5.7-2.4-.4.5-.9.8-1.3,1s-1.1.3-1.9.3-1.2-.1-1.8-.3c-.5-.2-1-.5-1.5-.9-.4-.4-.8-.9-1-1.4-.2-.6-.4-1.2-.4-2ZM226.6,259.1c0,1.1.3,1.9.8,2.4s1.3.8,2.2.8,1.4-.1,1.9-.4c.5-.2.9-.6,1.1-1,0-.2,0-.4,0-.5v-.5c0-.5,0-1.1-.2-1.6-.1-.5-.3-1-.6-1.4s-.6-.7-1-.9c-.4-.2-.9-.3-1.5-.3-.9,0-1.6.3-2.1.9-.5.6-.8,1.4-.8,2.4Z"/>
    </g>
  </g>
</svg>