<?xml version="1.0" encoding="UTF-8"?>
<svg id="Layer_1" xmlns="http://www.w3.org/2000/svg" version="1.1" viewBox="0 0 500 291.8">
  <!-- Generator: Adobe Illustrator 29.6.1, SVG Export Plug-In . SVG Version: 2.1.1 Build 9)  -->
  <g style="isolation: isolate;">
    <g style="isolation: isolate;">
      <path d="M148.2,58.4h5.2v-14.7l.6-2.5-1.8,2.2-3.3,2.3-2-2.8,8.5-6.8h2.7v22.4h5.1v4.1h-14.8v-4.1Z"/>
      <path d="M171.8,53l-5.6-9.1h5.8l2.4,4,1,2.6,1.1-2.6,2.5-4h5.2l-5.6,8.9,6,9.7h-5.6l-2.9-4.5-1.1-2.8-1.2,2.8-2.9,4.5h-5.3l6-9.5Z"/>
    </g>
    <g style="isolation: isolate;">
      <path d="M209.9,55.9c0-1-.3-1.9-.9-2.5-.6-.7-1.4-1.2-2.3-1.7-.9-.5-1.9-1-3-1.4s-2.1-1-3-1.6c-.9-.6-1.7-1.4-2.3-2.3-.6-.9-.9-2.1-.9-3.6s.7-3.6,2.1-4.8,3.4-1.8,6-1.8,2.9.1,4.1.3c1.2.2,2.2.5,2.9.9l-.9,2.8c-.6-.3-1.4-.6-2.5-.8s-2.4-.4-3.7-.4-2.9.4-3.7,1.1-1.2,1.6-1.2,2.6.3,1.8.9,2.4c.6.6,1.4,1.2,2.3,1.7.9.5,1.9,1,3,1.5s2.1,1.1,3,1.7c.9.7,1.7,1.4,2.3,2.4.6.9.9,2.1.9,3.4s-.2,2.1-.6,3c-.4.9-1,1.7-1.7,2.3-.8.6-1.7,1.1-2.8,1.5-1.1.3-2.3.5-3.7.5s-3.4-.1-4.6-.4-2.2-.6-2.8-.9l1-2.8c.6.3,1.4.6,2.5.9,1.1.3,2.4.5,3.8.5s1.6,0,2.3-.2c.7-.2,1.3-.4,1.9-.8.5-.4.9-.8,1.2-1.4.3-.5.5-1.2.5-1.9Z"/>
      <path d="M220.3,43.9v10.6c0,1,0,1.8.2,2.5.1.7.3,1.3.6,1.8.3.5.6.8,1.1,1.1s1.1.4,1.8.4,1.3-.1,1.8-.3c.5-.2,1-.5,1.4-.9s.8-.8,1.1-1.3c.3-.5.6-1,.8-1.5v-12.4h3v13.3c0,.9,0,1.8,0,2.8,0,1,.2,1.8.3,2.5h-2l-.7-2.9h-.2c-.6,1-1.3,1.8-2.3,2.4-1,.6-2.2,1-3.7,1s-1.9-.1-2.6-.4c-.8-.2-1.4-.7-1.9-1.2-.5-.6-.9-1.4-1.2-2.4-.3-1-.4-2.3-.4-3.8v-11.2h3Z"/>
      <path d="M237.7,38.2c0-.6.2-1.1.6-1.5.4-.4.9-.6,1.5-.6s1.1.2,1.5.6c.4.4.6.9.6,1.5s-.2,1-.6,1.4c-.4.4-.9.6-1.5.6s-1.1-.2-1.5-.6c-.4-.4-.6-.8-.6-1.4ZM238.3,43.9h3v18.6h-3v-18.6Z"/>
      <path d="M245.2,43.9h2.9v-3.7l3-.9v4.5h5.1v2.6h-5.1v10.3c0,1.3.2,2.2.5,2.7.3.5.9.8,1.6.8s1.2,0,1.6-.2c.4-.1.9-.3,1.5-.5l.7,2.3c-.7.3-1.4.6-2.2.8s-1.6.3-2.6.3c-1.5,0-2.6-.4-3.2-1.3-.6-.9-.9-2.3-.9-4.3v-10.9h-2.9v-2.6Z"/>
      <path d="M273.4,61c-.7.6-1.7,1.1-2.8,1.4-1.1.3-2.3.5-3.6.5s-2.6-.2-3.7-.7c-1-.5-1.9-1.1-2.6-2-.7-.9-1.2-1.9-1.5-3.1s-.5-2.5-.5-4c0-3.2.7-5.6,2.1-7.3,1.4-1.7,3.4-2.5,6.1-2.5s1.7,0,2.5.3c.8.2,1.6.5,2.3,1.1.7.5,1.2,1.3,1.6,2.2.4,1,.6,2.2.6,3.8s0,1.7-.2,2.7h-11.9c0,1.1.1,2.1.3,2.9.2.8.6,1.6,1,2.1.5.6,1.1,1,1.8,1.3.8.3,1.7.5,2.8.5s1.7-.1,2.5-.4c.8-.3,1.5-.6,1.9-1l1.1,2.2ZM267.1,46.1c-1.5,0-2.6.4-3.5,1.2-.9.8-1.4,2.1-1.6,3.9h9.2c0-1.9-.4-3.2-1.1-4s-1.7-1.1-3-1.1Z"/>
      <path d="M303,56.1c0,1.3,0,2.4,0,3.4,0,1,.1,2,.3,3h-2l-.7-2.6h-.1c-.5.9-1.2,1.6-2.2,2.2-.9.6-2,.9-3.3.9-2.5,0-4.3-.8-5.5-2.3s-1.8-4-1.8-7.3.8-5.6,2.3-7.2c1.5-1.6,3.6-2.5,6.2-2.5s1.6,0,2.2.1c.5,0,1.1.3,1.7.5v-7.7h3v19.6ZM295.5,60.3c1.3,0,2.3-.3,3-1,.7-.7,1.3-1.7,1.5-3v-9.2c-.4-.3-1-.6-1.5-.7-.6-.1-1.3-.2-2.3-.2-1.7,0-3,.6-4,1.7-1,1.1-1.5,2.9-1.5,5.4s0,2,.2,2.8.4,1.6.8,2.2c.4.6.9,1.1,1.5,1.5.6.4,1.3.5,2.2.5Z"/>
      <path d="M322.3,61c-.7.6-1.7,1.1-2.8,1.4-1.1.3-2.3.5-3.6.5s-2.6-.2-3.7-.7c-1-.5-1.9-1.1-2.6-2-.7-.9-1.2-1.9-1.5-3.1s-.5-2.5-.5-4c0-3.2.7-5.6,2.1-7.3s3.4-2.5,6.1-2.5,1.7,0,2.5.3c.8.2,1.6.5,2.3,1.1s1.2,1.3,1.6,2.2c.4,1,.6,2.2.6,3.8s0,1.7-.2,2.7h-11.9c0,1.1.1,2.1.3,2.9s.6,1.6,1,2.1c.5.6,1.1,1,1.8,1.3.8.3,1.7.5,2.8.5s1.7-.1,2.5-.4c.8-.3,1.5-.6,1.9-1l1.1,2.2ZM315.9,46.1c-1.5,0-2.6.4-3.5,1.2-.9.8-1.4,2.1-1.6,3.9h9.2c0-1.9-.4-3.2-1.1-4-.7-.8-1.7-1.1-3-1.1Z"/>
      <path d="M353,54.6c0,1.1-.2,2.2-.5,3.2-.3,1-.9,1.9-1.5,2.6-.7.8-1.5,1.4-2.5,1.8-1,.4-2.1.7-3.4.7s-2.4-.2-3.3-.6c-1-.4-1.8-1-2.6-1.8-.7-.8-1.3-1.7-1.7-2.9-.4-1.1-.6-2.5-.6-3.9,0-2.5.3-4.7.9-6.8.6-2.1,1.5-3.9,2.6-5.4s2.4-2.8,4-3.7c1.5-1,3.2-1.6,5-1.8l.6,2.4c-1.4.2-2.7.7-3.8,1.4-1.1.7-2.1,1.6-3,2.6s-1.6,2.2-2.1,3.4c-.5,1.3-.9,2.6-1.1,3.9.4-.7,1.1-1.3,2-1.8.9-.6,2.1-.8,3.5-.8,2.3,0,4.2.7,5.5,2,1.3,1.3,2,3.2,2,5.6ZM349.9,54.9c0-1.8-.4-3.1-1.2-4s-2.1-1.3-3.8-1.3-2.3.3-3.1.9c-.9.6-1.5,1.3-1.8,2,0,.3,0,.6,0,.9v.7c0,.8.1,1.5.3,2.3s.5,1.4,1,2c.4.6,1,1.1,1.7,1.4.7.4,1.4.5,2.3.5s1.4-.1,2-.4c.6-.3,1.1-.6,1.5-1.1.4-.5.8-1,1-1.7.2-.7.4-1.4.4-2.2Z"/>
    </g>
  </g>
  <g>
    <g>
      <rect x="109.8" y="137.7" width="87.8" height="117.9" rx="7" ry="7" style="fill: #fff; stroke: #231f20; stroke-miterlimit: 10; stroke-width: .8px;"/>
      <rect x="130.2" y="128.3" width="87.8" height="117.9" rx="7" ry="7" style="fill: #fff; stroke: #231f20; stroke-miterlimit: 10; stroke-width: .8px;"/>
      <rect x="150.6" y="118.8" width="87.8" height="117.9" rx="7" ry="7" style="fill: #fff; stroke: #231f20; stroke-miterlimit: 10; stroke-width: .8px;"/>
      <rect x="171" y="109.3" width="87.8" height="117.9" rx="7" ry="7" style="fill: #fff; stroke: #231f20; stroke-miterlimit: 10; stroke-width: .8px;"/>
      <rect x="191.4" y="99.9" width="87.8" height="117.9" rx="7" ry="7" style="fill: #fff; stroke: #231f20; stroke-miterlimit: 10; stroke-width: .8px;"/>
      <rect x="211.8" y="90.4" width="87.8" height="117.9" rx="7" ry="7" style="fill: #fff; stroke: #231f20; stroke-miterlimit: 10; stroke-width: .8px;"/>
    </g>
    <path d="M348.7,206.1l-.5-.7c4.1-3.5,7-7.8,7.4-13.3.5-5.5.2-4.7-.6-4-3,9.8-15.5,12.6-23.3,6.4-13.7-10.9-1.7-32.2,14.6-26.8l-2.3-3.4c-7.7-13.1,5.2-28.6,19.6-23.4,10.9,4,13.8,17.8,6.2,26.4,12.6-3.5,24.1,8.5,19.1,21-5,12.5-23.6,12.8-28.1-.2-1.1-.8-.2,5.5-.1,6,.5,2.5,2,5.8,3.6,7.8s2.6,2,3.4,3.5l-.4.7h-18.7Z" style="fill: #292929;"/>
  </g>
</svg>