<?xml version="1.0" encoding="UTF-8"?>
<svg id="Layer_1" xmlns="http://www.w3.org/2000/svg" version="1.1" viewBox="0 0 500 291.8">
  <!-- Generator: Adobe Illustrator 29.6.1, SVG Export Plug-In . SVG Version: 2.1.1 Build 9)  -->
  <g style="isolation: isolate;">
    <text transform="translate(144.4 62.5)" style="font-family: PTSans-Bold, &apos;PT Sans&apos;; font-size: 37.2px; font-weight: 700; isolation: isolate;"><tspan x="0" y="0">1x</tspan></text>
    <text transform="translate(185.1 62.5)" style="font-family: PTSans-Regular, &apos;PT Sans&apos;; font-size: 37.2px; isolation: isolate;"><tspan x="0" y="0" xml:space="preserve"> Suite de 6</tspan></text>
  </g>
  <g>
    <g>
      <rect x="106.3" y="137.7" width="87.8" height="117.9" rx="7" ry="7" style="fill: #fff; stroke: #231f20; stroke-miterlimit: 10; stroke-width: .8px;"/>
      <rect x="126.7" y="128.3" width="87.8" height="117.9" rx="7" ry="7" style="fill: #fff; stroke: #231f20; stroke-miterlimit: 10; stroke-width: .8px;"/>
      <rect x="147.1" y="118.8" width="87.8" height="117.9" rx="7" ry="7" style="fill: #fff; stroke: #231f20; stroke-miterlimit: 10; stroke-width: .8px;"/>
      <rect x="167.5" y="109.3" width="87.8" height="117.9" rx="7" ry="7" style="fill: #fff; stroke: #231f20; stroke-miterlimit: 10; stroke-width: .8px;"/>
      <rect x="187.9" y="99.9" width="87.8" height="117.9" rx="7" ry="7" style="fill: #fff; stroke: #231f20; stroke-miterlimit: 10; stroke-width: .8px;"/>
      <rect x="208.3" y="90.4" width="87.8" height="117.9" rx="7" ry="7" style="fill: #fff; stroke: #231f20; stroke-miterlimit: 10; stroke-width: .8px;"/>
    </g>
    <path d="M360.2,205.8c-2.4-4.1-5.4-8.2-8.6-11.8-10.3-11.8-29-23.5-23.3-41.9,3.2-10.6,15-15.7,24.7-9.8,9.7,5.9,5.8,6,7.6,9.8,2-5.4,5.4-9.7,11-11.5,14-4.3,24,8.8,21.8,21.8s-18.2,24.1-26.4,34.3c-8.2,10.2-4.2,6.5-6,8.4s-.4.6-.8.5h0Z" style="fill: #f75750;"/>
  </g>
</svg>