<?xml version="1.0" encoding="UTF-8"?>
<svg id="Layer_1" xmlns="http://www.w3.org/2000/svg" version="1.1" viewBox="0 0 500 500">
  <!-- Generator: Adobe Illustrator 29.6.1, SVG Export Plug-In . SVG Version: 2.1.1 Build 9)  -->
  <rect x="-446.4" y="279.6" width="87.8" height="117.9" rx="-135.4" ry="-135.4" style="fill: #fff; stroke: #231f20; stroke-miterlimit: 10; stroke-width: .8px;"/>
  <rect x="-423.9" y="279.6" width="87.8" height="117.9" rx="-124.2" ry="-124.2" style="fill: #fff; stroke: #231f20; stroke-miterlimit: 10; stroke-width: .8px;"/>
  <rect x="-401.3" y="279.6" width="87.8" height="117.9" rx="-112.9" ry="-112.9" style="fill: #fff; stroke: #231f20; stroke-miterlimit: 10; stroke-width: .8px;"/>
  <rect x="-378.8" y="279.6" width="87.8" height="117.9" rx="-101.6" ry="-101.6" style="fill: #fff; stroke: #231f20; stroke-miterlimit: 10; stroke-width: .8px;"/>
  <g>
    <rect x="117.2" y="360.9" width="87.8" height="117.9" rx="6.9" ry="6.9" style="fill: #fff; stroke: #231f20; stroke-miterlimit: 10; stroke-width: .8px;"/>
    <rect x="139.7" y="360.9" width="87.8" height="117.9" rx="6.9" ry="6.9" style="fill: #fff; stroke: #231f20; stroke-miterlimit: 10; stroke-width: .8px;"/>
    <rect x="162.2" y="360.9" width="87.8" height="117.9" rx="6.9" ry="6.9" style="fill: #fff; stroke: #231f20; stroke-miterlimit: 10; stroke-width: .8px;"/>
    <rect x="184.8" y="360.9" width="87.8" height="117.9" rx="6.9" ry="6.9" style="fill: #fff; stroke: #231f20; stroke-miterlimit: 10; stroke-width: .8px;"/>
  </g>
  <rect x="-356.3" y="279.6" width="87.8" height="117.9" rx="-90.4" ry="-90.4" style="fill: #fff; stroke: #231f20; stroke-miterlimit: 10; stroke-width: .8px;"/>
  <rect x="-333.8" y="279.6" width="87.8" height="117.9" rx="-79.1" ry="-79.1" style="fill: #fff; stroke: #231f20; stroke-miterlimit: 10; stroke-width: .8px;"/>
  <rect x="-311.2" y="279.6" width="87.8" height="117.9" rx="-67.8" ry="-67.8" style="fill: #fff; stroke: #231f20; stroke-miterlimit: 10; stroke-width: .8px;"/>
  <rect x="-288.7" y="279.6" width="87.8" height="117.9" rx="-56.6" ry="-56.6" style="fill: #fff; stroke: #231f20; stroke-miterlimit: 10; stroke-width: .8px;"/>
  <rect x="-266.2" y="279.6" width="87.8" height="117.9" rx="-45.3" ry="-45.3" style="fill: #fff; stroke: #231f20; stroke-miterlimit: 10; stroke-width: .8px;"/>
  <g>
    <rect x="-446.4" y="113.6" width="87.8" height="117.9" rx="-135.4" ry="-135.4" style="fill: #fff; stroke: #231f20; stroke-miterlimit: 10; stroke-width: .8px;"/>
    <rect x="-426" y="104.1" width="87.8" height="117.9" rx="-125.2" ry="-125.2" style="fill: #fff; stroke: #231f20; stroke-miterlimit: 10; stroke-width: .8px;"/>
    <rect x="-405.6" y="94.6" width="87.8" height="117.9" rx="-115" ry="-115" style="fill: #fff; stroke: #231f20; stroke-miterlimit: 10; stroke-width: .8px;"/>
    <rect x="-385.2" y="85.2" width="87.8" height="117.9" rx="-104.8" ry="-104.8" style="fill: #fff; stroke: #231f20; stroke-miterlimit: 10; stroke-width: .8px;"/>
    <rect x="-364.8" y="75.7" width="87.8" height="117.9" rx="-94.6" ry="-94.6" style="fill: #fff; stroke: #231f20; stroke-miterlimit: 10; stroke-width: .8px;"/>
    <rect x="-344.4" y="66.2" width="87.8" height="117.9" rx="-84.4" ry="-84.4" style="fill: #fff; stroke: #231f20; stroke-miterlimit: 10; stroke-width: .8px;"/>
    <rect x="-324" y="56.8" width="87.8" height="117.9" rx="-74.2" ry="-74.2" style="fill: #fff; stroke: #231f20; stroke-miterlimit: 10; stroke-width: .8px;"/>
    <rect x="-303.7" y="47.3" width="87.8" height="117.9" rx="-64" ry="-64" style="fill: #fff; stroke: #231f20; stroke-miterlimit: 10; stroke-width: .8px;"/>
    <rect x="-283.3" y="37.9" width="87.8" height="117.9" rx="-53.9" ry="-53.9" style="fill: #fff; stroke: #231f20; stroke-miterlimit: 10; stroke-width: .8px;"/>
    <rect x="-262.9" y="28.4" width="87.8" height="117.9" rx="-43.7" ry="-43.7" style="fill: #fff; stroke: #231f20; stroke-miterlimit: 10; stroke-width: .8px;"/>
    <rect x="-242.5" y="18.9" width="87.8" height="117.9" rx="-33.5" ry="-33.5" style="fill: #fff; stroke: #231f20; stroke-miterlimit: 10; stroke-width: .8px;"/>
    <rect x="-222.1" y="9.5" width="87.8" height="117.9" rx="-23.3" ry="-23.3" style="fill: #fff; stroke: #231f20; stroke-miterlimit: 10; stroke-width: .8px;"/>
    <rect x="-201.7" width="87.8" height="117.9" rx="-13.1" ry="-13.1" style="fill: #fff; stroke: #231f20; stroke-miterlimit: 10; stroke-width: .8px;"/>
  </g>
  <rect x="-243.6" y="279.6" width="87.8" height="117.9" rx="-34" ry="-34" style="fill: #fff; stroke: #231f20; stroke-miterlimit: 10; stroke-width: .8px;"/>
  <rect x="-221.1" y="279.6" width="87.8" height="117.9" rx="-22.8" ry="-22.8" style="fill: #fff; stroke: #231f20; stroke-miterlimit: 10; stroke-width: .8px;"/>
  <rect x="-198.6" y="279.6" width="87.8" height="117.9" rx="-11.5" ry="-11.5" style="fill: #fff; stroke: #231f20; stroke-miterlimit: 10; stroke-width: .8px;"/>
  <g>
    <path d="M-255.5,482.1c-2-3.4-4.5-6.8-7.2-9.8-8.6-9.8-24.2-19.6-19.4-34.9,2.7-8.8,12.5-13.1,20.6-8.2s4.8,5,6.3,8.2c1.7-4.5,4.5-8.1,9.2-9.6,11.7-3.6,20,7.3,18.2,18.2s-15.2,20.1-22,28.6c-1.6,2-3.5,5.4-5,7s-.3.5-.7.4Z" style="fill: #f75750;"/>
    <path d="M-191.9,482.3l-.4-.6c3.4-2.9,5.8-6.5,6.2-11.1s.2-3.9-.5-3.3c-2.5,8.2-12.9,10.5-19.4,5.3-11.4-9.1-1.4-26.8,12.2-22.3l-1.9-2.8c-6.4-10.9,4.3-23.8,16.3-19.5,9.1,3.3,11.5,14.8,5.2,22,10.5-2.9,20.1,7.1,15.9,17.5-4.2,10.4-19.7,10.7-23.4-.2-.9-.7-.2,4.6-.1,5,.4,2.1,1.7,4.8,3,6.5s2.2,1.7,2.8,2.9l-.3.6h-15.6Z" style="fill: #292929;"/>
    <path d="M-331,482.3l-.3-.6c0-.5,2.2-2.2,2.7-2.8,2.7-3.2,4-7.7,3.5-11.9-1.5,2.1-2.3,4.3-4.6,5.8-8,5.3-18.1-.8-18.8-9.9s11.9-19.9,19.2-27.9c2.2-2.4,4.1-5,6-7.5.3,0,.6.3.7.5,1.4,1.4,3.2,4.2,4.6,5.9,7.2,8.1,20.6,16,20.3,28.3-.3,11.9-15.6,17.9-22.1,7.1s-1-2.7-1.5-2.2c-.2,4,.7,8.2,3.3,11.4s3,2.3,3,3.9h-16.2Z" style="fill: #292929;"/>
    <path d="M-120,482.1c-5.4-10.2-13.1-18.9-20.8-27.4,8-8.2,15.2-17.2,20.9-27.2.4,0,.4.2.6.4,1.6,1.9,3.4,5.6,5,7.8,3,4.3,6.3,8.6,9.8,12.6,2,2.3,4.3,4.3,6.1,6.6-8.1,8-15.1,17.1-21,27l-.6.3Z" style="fill: #f75750;"/>
  </g>
  <g>
    <path d="M-191.9,669.6l-.4-.6c3.4-2.9,5.8-6.5,6.2-11.1s.2-3.9-.5-3.3c-2.5,8.2-12.9,10.5-19.4,5.3-11.4-9.1-1.4-26.8,12.2-22.3l-1.9-2.8c-6.4-10.9,4.3-23.8,16.3-19.5,9.1,3.3,11.5,14.8,5.2,22,10.5-2.9,20.1,7.1,15.9,17.5-4.2,10.4-19.7,10.7-23.4-.2-.9-.7-.2,4.6-.1,5,.4,2.1,1.7,4.8,3,6.5s2.2,1.7,2.8,2.9l-.3.6h-15.6Z" style="fill: #292929;"/>
    <path d="M-263.2,669.6l-.3-.6c0-.5,2.2-2.2,2.7-2.8,2.7-3.2,4-7.7,3.5-11.9-1.5,2.1-2.3,4.3-4.6,5.8-8,5.3-18.1-.8-18.8-9.9s11.9-19.9,19.2-27.9c2.2-2.4,4.1-5,6-7.5.3,0,.6.3.7.5,1.4,1.4,3.2,4.2,4.6,5.9,7.2,8.1,20.6,16,20.3,28.3-.3,11.9-15.6,17.9-22.1,7.1s-1-2.7-1.5-2.2c-.2,4,.7,8.2,3.3,11.4s3,2.3,3,3.9h-16.2Z" style="fill: #292929;"/>
  </g>
  <g>
    <path d="M-255.5,575.8c-2-3.4-4.5-6.8-7.2-9.8-8.6-9.8-24.2-19.6-19.4-34.9,2.7-8.8,12.5-13.1,20.6-8.2s4.8,5,6.3,8.2c1.7-4.5,4.5-8.1,9.2-9.6,11.7-3.6,20,7.3,18.2,18.2s-15.2,20.1-22,28.6c-1.6,2-3.5,5.4-5,7s-.3.5-.7.4Z" style="fill: #f75750;"/>
    <path d="M-184.5,575.8c-5.4-10.2-13.1-18.9-20.8-27.4,8-8.2,15.2-17.2,20.9-27.2.4,0,.4.2.6.4,1.6,1.9,3.4,5.6,5,7.8,3,4.3,6.3,8.6,9.8,12.6,2,2.3,4.3,4.3,6.1,6.6-8.1,8-15.1,17.1-21,27l-.6.3Z" style="fill: #f75750;"/>
  </g>
  <g>
    <path d="M324.5,415.8c-2-3.4-4.5-6.8-7.2-9.8-8.6-9.8-24.2-19.6-19.4-34.9,2.7-8.8,12.5-13.1,20.6-8.2s4.8,5,6.3,8.2c1.7-4.5,4.5-8.1,9.2-9.6,11.7-3.6,20,7.3,18.2,18.2s-15.2,20.1-22,28.6-3.5,5.4-5,7-.3.5-.7.4Z" style="fill: #f75750;"/>
    <path d="M395.5,415.8c-5.4-10.2-13.1-18.9-20.8-27.4,8-8.2,15.2-17.2,20.9-27.2.4,0,.4.2.6.4,1.6,1.9,3.4,5.6,5,7.8,3,4.3,6.3,8.6,9.8,12.6s4.3,4.3,6.1,6.6c-8.1,8-15.1,17.1-21,27l-.6.3Z" style="fill: #f75750;"/>
  </g>
  <g>
    <circle cx="-423.9" cy="454.9" r="26.5" style="fill: #fff;"/>
    <g>
      <path d="M-420.5,444.3c2.4.6,5.1,2.5,6.6,4.5.5.6,1,1.8,1.3,2.6.2.6.3,1.3.5,2,1,0,2,.2,2.8.9.8.7.7.7.9.9s0,.6.4.6c.6,0,1.9-1,2.2-1.5s.2-.7.4-1.2c.4-1.1.6-1.3.8-2.5s.1-.9.2-1.3c0,0,.1-.2.4,0,.2,0,.2,0,.4.2.5.6,0,3-.2,3.7-.6,1.7-1.8,2.9-3.4,3.7,2.2,2.6,1,7-1.9,8.4s-1.4.5-1.4.5-.2.7-.3,1c-.6,1.2-2,1.7-3.2,1.5-.2,0-.9-.3-1-.3-.2,0-.6.6-.7.7.4.5.8,1.1,1,1.8.3.9.3,3.4.2,4.4-.3,2.4-3.5,1.8-5,1.1-.4-.2-2.3-1.3-2.5-1.3s-.7.4-1,.5c-.3,0-.8,0-1.1,0s-1-.5-1.1-.5c-.2,0-1.3.8-1.7.9-1.4.7-4,1.7-5.3.3-.2-.3-.5-.7-.5-1.1-.1-.8-.1-3,0-3.8,0-.8.7-1.7,1.2-2.3-.2-.1-.6-.7-.7-.7s-.8.3-1.1.3c-1.2.1-2.3-.4-3-1.4-.2-.3-.3-1-.4-1.1s-1-.4-1.2-.5c-3.2-1.5-4.3-5.7-2.1-8.5-.4-.3-.8-.5-1.2-.7-1.8-1.3-2.7-4.2-2.5-6.4,0-.5.3-.6.8-.6.1.6,0,.9.2,1.6.1.9.7,1.7,1,2.6.4,1.6.9,1.8,2.4,2.4,0,0,.1.4.4,0s0-.3,0-.4.4-.4.5-.5c.9-1.1,1.9-1.4,3.3-1.4.2-1.2.5-2.2,1-3.2.2-.4.6-.8.6-1.2h0c0,0,0,0,0,0,0-.1.7-.7.9-.8,1.6-1.6,3-2.6,5.1-3.4,2.1-.8.4-.2.6-.3s1.4-.2,1.6-.3c1.6-.2,3.6,0,5.2.3h0s0,0,0,0h0ZM-425.8,445c-4.1.9-8.2,3.7-8.7,8.3-.3,3.3-.1,8.6,1.4,11.7,4.1,8.3,15.1,7.8,18.8-.6,1.3-2.9,1.4-7.8,1.1-11-.5-5.6-7.2-9.1-12.3-8.4-.1,0-.2,0-.3,0h0,0ZM-412.3,459.8c0,.5-.1,1,0,1.5.4.2.5-.2.6-.2.1,0,.3,0,.4,0,3.3-1.3,3.2-6.9-.8-6.8v1.5s.6,0,1,.3c.6.4,1.7,2,.4,2.1,0-.1-.5-.9-.6-1s-.7-.5-.8-.4c0,1,0,2.1,0,3.1h0ZM-436.9,458.1c-1,.1-.6-1-.2-1.5.3-.5,1.1-.9,1.6-.8v-1.4c-4.6-.4-4,6.8.2,6.8,0,0-.2-1.2-.2-1.4,0-1,0-2.1,0-3.1-.5,0-1.4,1-1.4,1.4h0ZM-408.5,459.9c-.4.3-.7.9-1.1,1.3-.8.7-2,1.1-3.1,1.1-.2.4-.2.8-.3,1.2,0,.3-.6,1.4-.5,1.5s.4,0,.3.5-.5.3-.8.3-.1.1-.1.2c-.2.1-.6.6-.5.8s.4.3.5.3c.5,0,1.5-.4,1.8-.7s.1-.2.2-.4.2-.1.2-.3-.4-.5,0-.8.6-.2.8-.2c.9-.2,1.4-.4,2.2-1,1.6-1.3,2.3-3.9,1.1-5.7,0,.7-.4,1.3-.5,2h0ZM-436.8,464.6s0,0,0,0,.1,0,.2,0c.3,0,1,0,1,.5s-.3.4,0,.9c.2.8,1.7,1.3,2.4.9.4-.2-.3-.9-.6-1-.4-.2-.8,0-.6-.7s.2,0,.2-.1c.1-.2-.4-1.3-.4-1.6s-.2-.7-.2-1.1c-1.1-.2-2.2-.4-3.1-1.2l-1.2-1.4c0-.6-.3-1.2-.4-1.8-.2,0-.1,0-.2.1-.6.8-.5,2.5-.2,3.4.5,1.5,1.8,2.7,3.3,3h0ZM-431.3,469.9c-.4.6-.6,1.1-.6,1.8s0,1.4,0,2c0,1.2.2,1.8,1.5,1.7,1.4-.1,3-1,4.2-1.7v-.3s-2.2,0-2.2,0c-.3,0-.3-1,0-1h2c0-.2,0-.5,0-.6,0,0-1.6-.6-1.9-.7-.5-.2-1.4-.7-1.8-1s-.4-.5-.6-.5c-.3,0-.3.3-.5.4h0ZM-421.3,472.4h1.9c.4,0,.4.7,0,.9-.4.2-1.9-.1-2.1.1s0,.2,0,.3c0,.1,2.2,1.2,2.5,1.3.9.3,2.9.9,3.1-.5,0-.7.1-2.9,0-3.5-.1-.6-.7-1.7-1.1-1.5-.7.5-1.5,1.1-2.2,1.5s-1.9.6-2,.7,0,.5,0,.7h0ZM-425.3,471.9c-.3.7.2,1.8,1,2s1.8-.1,2-1c0-.2.2-.9,0-1-1,0-1.9.2-2.9,0h0Z" style="fill: #3b2319;"/>
      <path d="M-443.2,448.3c0,0-.2-.2-.2-.4-.2-1.5,1.5-3.1,2.8-3.6-.5-2.1.2-4.2,1.9-5.6.8-.6,1.6-.6,2.2-1,.2,0,.8-1.1,1.2-1.4,1.6-1.4,3.6-1.3,5.5-.8,1.1-1.8,4-3.1,5.9-1.9.2.2.4.4.7.6-.4-1.1.3-1.1,1.2-1,1.6,0,3.1,1.1,4.1,2.3,2.2-.8,4.4-.4,6,1.4.2.2.4.8.6.9.3.2.9.2,1.3.4,2.3,1.1,3.4,3.7,2.7,6.1,1.3.3,3.2,2.1,2.8,3.6,0,.2-.2.3-.2.4-1.6.2-.8-.7-1.1-1.5-.2-.4-.9-1-1.3-1.2-.7-.4-.9-.3-1.2.5-.2,0-.5,0-.7-.2.2-.6.3-1.5.4-2.2s.3-.7.3-1.2c0-1.6-1.3-3.3-2.9-3.6,0,.2-.1.5,0,.7-.3.1-.6.1-.9,0,0-2.3-2.3-3.7-4.4-3.5-.6,0-1.6.6-2.1.5,0,0-.6-.8-.7-1-.7-.8-1.7-1.4-2.9-1.5s-1.1,0-.9.9c0,0-.2.3-.3.4-.5.2-1-.4-1.6-.5-.1-.4.4-.7,0-.8-1.5-.3-3.5.6-4.1,2.2-.2.6,0,.6.1,1.2v.2c-.3.2-.4.5-.9.2s-.2-.2-.2-.2c-.3-.4-.1-1.1-.5-1.3-.5-.3-1.8-.4-2.4-.3-1.6.2-3.2,1.9-3.2,3.5-.3,0-.6,0-.9-.2,0-.2,0-.4,0-.6-1.5.2-2.7,1.8-2.9,3.2,0,.6,0,.9.2,1.5s.3,1.5.5,2.1c-.3.4-.5.2-.8.2-.3-.7-.4-.8-1.1-.5s-1.2.9-1.3,1.3c-.1.4.4.7,0,1.2-.3.3-.8.2-1.1.1h0s0,0,0,0Z" style="fill: #3b2319;"/>
      <path d="M-439.6,446.2c-.6,0-1.5,1.4-1.6,2s0,1,0,1.1-.9.3-1,.5l-.8.8c0-.6,0-.9-.2-1.6s0-.6,0-.7c.4.1.8.2,1.1-.1.4-.4,0-.8,0-1.2.1-.4,1-1.2,1.3-1.3.7-.3.8-.3,1.1.5h0Z" style="fill: #fbfbf9;"/>
      <path d="M-408.2,446.3c.3-.8.4-.9,1.2-.5s1.1.8,1.3,1.2c.3.7-.5,1.6,1.1,1.5,0,.1.1.5,0,.8s-.1.9-.2,1.3c-.3-.2-.6-.6-.9-.8s-.8-.3-.9-.4,0-.6,0-.8c0-.9-.8-1.9-1.7-2.2h0Z" style="fill: #fbfbf9;"/>
      <path d="M-429.8,438s0,.2.2.2c.4.3.5,0,.9-.2,0,.7-.2,1.2-.2,2,0,1.6.5,3,1.6,4.2-.2,0-.2.2-.6.3-2.1.8-3.6,1.8-5.1,3.4s-.7.7-.8.7,0,0,0,0-.2,0-.3,0h-1.4l-1-.4c-.9-.3-1.9-1.4-2.3-2.3-.2-.6-.4-1.5-.5-2.1.2-.4.2-.9.4-1.3s.3-.8.4-.9c.2-.3.7-.2.8-.3s0-.5.1-.8c.2-.4.9-.3.9-.8.2.2.6.2.9.2,0,0,0,.5.1.5,0,0,.2.2.2.2,0,0,.4-1.1.4-1.3.7-1.6,2-2.2,3.6-2,.6,0,.8.3,1.3.5s.3,0,.3,0h0s0,0,0,0h0Z" style="fill: #f08c06;"/>
      <path d="M-418.9,441.1c1-.1,1.5-1.2,1.4-2.1,0-.2-.3-.7-.2-.8s.7-.5.9-.5c2.2-.9,4.5.8,4.6,3.1.2,0,.3-.6.3-.9.3.1.6.1.9,0,0,.2,1.2,1,1.4,1.3.6.7.9,1.6,1.1,2.4,0,.1,0,.3.2.4-.1.6-.2,1.6-.4,2.2-.3.9-1.9,2.2-2.8,2.5-.7.2-1.5.2-2.2.2-1.4-2-4.2-3.8-6.6-4.5l1-1.3c.2-.3.6-1.6.6-1.9h0Z" style="fill: #f75650;"/>
      <path d="M-429,440c.8,1.3,2.1,1.9,3.5,1,.2-.1.3-.4.5-.4s.5.2.8.2c1.5.1,2.3-1.1,1.9-2.5,1.8,0,1.7,2.2.8,3.3s-.4.3-.5.5c1.2.2,2-.3,2.7-1.2s.2,0,.2,0c0,0,.2.2.2.3,0,.3-.4,1.6-.6,1.9l-1,1.3c-1.6-.4-3.6-.5-5.2-.3-.2,0-1.5.2-1.6.3-1.2-1.2-1.6-2.5-1.6-4.2h0Z" style="fill: #0f83b6;"/>
      <path d="M-438.8,446c.4.9,1.4,2,2.3,2.3l1,.4c-.2,0-.4,0-.6,0-.4.1-1,.8-1.1,1.2s0,.8-.2,1.2c-.4.7-1.7.9-2.4.5s-.9-1-1-1c-.2,0-.6,1-.6,1.2-.1.5,0,1.2,0,1.7-.4,0-.5-.2-.8-.3-.2-.9-.8-1.7-1-2.6l.8-.8c.2-.2.9-.4,1-.5s0-.8,0-1.1c0-.6,1.1-1.9,1.6-2s.5.2.8-.2h0Z" style="fill: #47a5fe;"/>
      <path d="M-435.5,448.8h1.7c0,.5-.4.8-.6,1.2-.5,1.1-.8,2.1-1,3.2-1.4,0-2.4.3-3.3,1.4s-.5.5-.5.5c-.8-.2-1.8-.9-2.1-1.7s-.2-1.2,0-1.7.4-1.1.6-1.2.7.8,1,1c.7.4,1.8.2,2.2-.5s.2-.9.3-1.2.8-1,1.2-1.1.4,0,.6,0h0,0Z" style="fill: #0f83b6;"/>
      <path d="M-411.7,448.6c.6.4,1,.7,1.3,1.4.1.4.1.8.3,1.1.6,1,2.2.8,2.9,0s.1-.6.4-.4c.6.4.7,2.2.5,2.8,0,0-.3.5-.4.6-.5.5-1,.9-1.7,1-.1-.2-.7-.7-.9-.9-.8-.7-1.7-.9-2.8-.9-.3-.6-.3-1.3-.5-2-.2-.8-.8-1.9-1.3-2.6.7,0,1.5,0,2.2-.2h0Z" style="fill: #0f83b6;"/>
      <path d="M-408.2,446.3c.9.3,1.6,1.3,1.7,2.2,0,.2,0,.8,0,.8,0,0,.7.3.9.4.3.2.6.6.9.8-.2,1.2-.4,1.4-.8,2.5-.2.1-.3.3-.5.4s-.2,0-.2,0c.2-.6,0-2.3-.5-2.8,0,0-.3.3-.4.4-.7.9-2.2,1.1-2.9,0s-.2-.8-.3-1.1c-.2-.7-.7-1-1.3-1.4.9-.3,2.5-1.6,2.8-2.5.2.2.5.1.7.2h0Z" style="fill: #47a5fe;"/>
      <path d="M-421.3,472.4c0-.2,0-.6,0-.7s1.7-.6,2-.7c.8-.4,1.5-1,2.2-1.5.4-.3,1.1,1.2,1.1,1.5,0,.6,0,2.9,0,3.5-.2,1.4-2.2.8-3.1.5s-2.5-1.2-2.5-1.3,0-.2,0-.3c.2-.2,1.7,0,2.1-.1.4-.2.3-.9,0-.9h-1.9Z" style="fill: #f75650;"/>
      <path d="M-431.3,469.9c.1-.2.2-.5.5-.4s.4.4.6.5c.5.3,1.3.8,1.8,1s1.8.6,1.9.7c.2.2,0,.5,0,.6h-2c-.2,0-.2,1,0,1h2.2v.3c-1.2.7-2.8,1.6-4.2,1.7-1.3.1-1.4-.5-1.5-1.7,0-.6,0-1.4,0-2,.4.1.6,1,1.2.6.5-.3-.3-.9-.3-1.2s.6-1.2-.3-1.2h0Z" style="fill: #f75650;"/>
      <path d="M-410.8,458.1c1.3,0,.2-1.7-.4-2.1-.3-.2-1-.2-1-.3v-1.5c4.1-.2,4.1,5.5.8,6.8-.1,0-.3,0-.4,0s-.2.3-.6.2c0-.5,0-1,0-1.5.5,0,1-.4,1.2-.8s.3-.8.3-.9h0Z" style="fill: #fbfbf9;"/>
      <path d="M-435.5,459.8c0,.2.3,1.3.2,1.4-4.1,0-4.8-7.2-.2-6.8v1.4c-.6,0-1.3.4-1.6.8-.3.5-.7,1.6.2,1.5,0,.2.2.9.3,1,.2.4.7.6,1.1.7h0Z" style="fill: #fbfbf9;"/>
      <path d="M-439.4,459.8l1.2,1.4c.9.8,2,1,3.1,1.2,0,.4.1.7.2,1.1s.6,1.4.4,1.6-.2,0-.2.1c-.2.7.2.6.6.7-.5.4-1.2.1-1.7,0-.2-.6,0-.5,0-.9s-.6-.4-1-.5c-.1-.4-.4-.6-.5-1s-.2-.9-.3-1-.7-.2-.9-.4c-1-.7-.9-1.5-1-2.5h0Z" style="fill: #0f83b6;"/>
      <path d="M-408.5,459.9s0,0,0,.1c0,.8-.2,1.5-.9,2.1-.3.2-1.2.5-1.2.6s-.1.7-.2,1c-.2.4-.4.6-.6,1-.2,0-.7.2-.8.2-.3.4.1.6,0,.8,0,.2-.1.2-.2.3-.6.2-1.3,0-1.9,0,0,0,0-.1.1-.2.3,0,.7,0,.8-.3s-.3-.4-.3-.5c0-.2.4-1.3.5-1.5.1-.4.1-.8.3-1.2,1,0,2.3-.5,3.1-1.1.4-.4,1-1.3,1.1-1.3h0s0,0,0,0Z" style="fill: #0f83b6;"/>
      <path d="M-411.2,464.7c.2-.4.4-.6.6-1,0-.2.2-.9.2-1s.9-.4,1.2-.6c.6-.5.8-1.3.9-2.1,0,0,0,0,0-.1,0-.7.4-1.3.5-2,1.2,1.8.6,4.4-1.1,5.7-.8.6-1.3.8-2.2,1h0Z" style="fill: #47a5fe;"/>
      <path d="M-436.8,464.6c-1.5-.4-2.8-1.5-3.3-3-.3-.9-.4-2.6.2-3.4,0,0,0-.2.2-.1.2.6.3,1.2.4,1.8.1,1,0,1.8,1,2.5.2.1.8.3.9.4,0,.1.2.8.3,1s.4.6.5,1c0,0-.1,0-.2,0,0,0,0,0,0,0h0Z" style="fill: #47a5fe;"/>
      <path d="M-425.3,471.9c1,.2,1.9,0,2.9,0,.3,0,.1.8,0,1-.2.9-1.2,1.2-2,1s-1.2-1.3-1-2h0Z" style="fill: #f75650;"/>
      <path d="M-436.9,458.1c0-.4.8-1.4,1.4-1.4,0,1,0,2.1,0,3.1-.4,0-.8-.3-1.1-.7s-.3-.9-.3-1h0Z" style="fill: #f75650;"/>
      <path d="M-410.8,458.1s-.2.8-.3.9c-.2.4-.7.9-1.2.8,0-1,.1-2.1,0-3.1.1-.1.7.3.8.4s.6.9.6,1h0Z" style="fill: #f75650;"/>
      <path d="M-408.5,455.1c.7,0,1.3-.5,1.7-1s.4-.6.4-.6.2,0,.2,0c.2-.1.4-.3.5-.4-.1.4,0,.7-.4,1.2s-1.6,1.6-2.2,1.5-.3-.5-.4-.6h0Z" style="fill: #fbfbf9;"/>
      <path d="M-441.4,453.4c.2.8,1.3,1.5,2.1,1.7,0,0,0,.2,0,.4-.3.4-.3,0-.4,0-1.4-.6-1.9-.9-2.4-2.4.3,0,.4.4.8.3h0Z" style="fill: #fbfbf9;"/>
      <path d="M-431.3,469.9c.8,0,.2.9.3,1.2s.8.9.3,1.2c-.5.4-.7-.5-1.2-.6,0-.7.2-1.2.6-1.8h0Z" style="fill: #fbfbf9;"/>
      <path d="M-435.7,466.1c.6,0,1.2.3,1.7,0,.3.1,1,.8.6,1-.7.4-2.1-.1-2.4-.9h0Z" style="fill: #fbfbf9;"/>
      <path d="M-412.1,466.1c0,.1,0,.2-.2.4-.3.4-1.3.8-1.8.7s-.5-.3-.5-.3c0-.2.4-.7.5-.8.6,0,1.3.2,1.9,0h0Z" style="fill: #fbfbf9;"/>
      <path d="M-433.9,448.7h0c0,0-.3,0-.3,0,0-.1.2,0,.3,0Z" style="fill: #47a5fe;"/>
      <path d="M-436.8,464.7s0,0,0,0c0,0,0,0,0,0Z" style="fill: #0f83b6;"/>
      <path d="M-424.8,435.3c.6,0,1.1.7,1.6.5.1,0,.3-.4.3-.4.1,0,.6,0,.8,0,2.1.4,3.7,2.5,3.3,4.7,0,0-.2.7-.2.8s-.1,0-.2,0c-.7.9-1.6,1.4-2.7,1.2,0-.2.4-.3.5-.5.9-1.1,1-3.3-.8-3.3.4,1.4-.4,2.6-1.9,2.5s-.6-.2-.8-.2-.3.3-.5.4c-1.4.8-2.7.3-3.5-1,0-.8.1-1.3.2-2v-.2c.6-.8,1.1-1.7,2.1-2.2s1.4-.5,1.9-.4h0s0,0,0,0Z" style="fill: #47a5fe;"/>
      <path d="M-422.9,435.4c-.2-1-.1-1,.9-.9s2.1.7,2.9,1.5.6.9.7,1c.4.1,1.5-.5,2.1-.5,2.1-.2,4.4,1.1,4.4,3.5,0,.2-.1.8-.3.9,0-2.3-2.4-4-4.6-3.1-.1,0-.8.4-.9.5s.2.6.2.8c.1.9-.4,2-1.4,2.1,0,0-.1-.2-.2-.3,0,0,.2-.7.2-.8.5-2.1-1.1-4.3-3.3-4.7-.2,0-.6,0-.8,0,0,0,0,0,0,0Z" style="fill: #fbfbf9;"/>
      <path d="M-429.8,438s-.2,0-.3,0c-.5-.2-.6-.5-1.3-.5-1.7-.2-3,.4-3.6,2s-.4,1.3-.4,1.3-.2-.2-.2-.2-.1-.5-.1-.5c0-1.6,1.5-3.4,3.2-3.5.6,0,1.8,0,2.4.3s.2,1,.5,1.3h0Z" style="fill: #fbfbf9;"/>
      <path d="M-424.8,435.3c-.4,0-1.5.2-1.9.4-1,.5-1.5,1.3-2.1,2.2,0-.6-.4-.6-.1-1.2.5-1.5,2.5-2.5,4.1-2.2.5,0,0,.4,0,.8h0Z" style="fill: #fbfbf9;"/>
      <path d="M-408.5,443.9c-.2,0-.2-.2-.2-.4-.2-.9-.5-1.8-1.1-2.4-.2-.2-1.4-1.1-1.4-1.3s.1-.5,0-.7c1.6.3,2.8,2,2.9,3.6,0,.5-.2.8-.3,1.2h0Z" style="fill: #fbfbf9;"/>
      <path d="M-439.4,443.9c0-.6-.2-.9-.2-1.5.1-1.5,1.4-3,2.9-3.2,0,.2,0,.4,0,.6,0,.6-.7.4-.9.8s0,.7-.1.8-.6,0-.8.3-.3.7-.4.9c-.1.4-.2.9-.4,1.3h0Z" style="fill: #fbfbf9;"/>
      <path d="M-416.7,458.9c-.2,0-.7,0-.9.1-.8.3-1.2,1.5-1.7,2.2-2.2,2.7-6.8,2.8-9,.1-.7-.9-1.3-2.8-2.8-2.4-2.1.5-.7,3.7.1,4.8,3.3,4.4,10.8,4.5,14.2,0,.7-.9,1.9-3.3,1.1-4.3-.1-.2-.7-.5-.9-.6h0Z" style="fill: #f75650;"/>
      <path d="M-426.7,452.6c.1.2.6.5.5.7-.4.6-.8,1.2-1.2,1.7s-.7,1.2-1.1,1.7c0,.1-.4.7-.6.6l-1.5-2.3c-.5-.5-.9-1.1-1.2-1.7.2-.5,2.6-3.6,2.8-3.7s.3.2.4.3c.6.7,1.3,1.8,1.9,2.6h0ZM-429.6,452.7c-.5,0-1.9,1.1-1.2,1.5.4.3.7-.3,1.1-.4.4-.2.8-.2,1.2-.1.4,0,.9.8,1.2.2s0-.7-.4-.9c-.5-.4-1.3-.4-1.9-.3h0Z" style="fill: #0f83b6;"/>
      <path d="M-421.2,453.7s-.2-.2-.2-.4c0-.5.6-.7.7-1.2.4-.5.7-.6.9-1.2.2,0,.3-.2.3-.3h0c0-.2.5-.9.7-.8s2.3,3.1,2.8,3.5v.3s-2.7,4-2.7,4c-.1,0-.3-.2-.3-.3-.6-.8-1.2-1.8-1.7-2.7l-.5-.8h0ZM-420.2,453.1c-.2.2-.5.8,0,.9.6.2.8-1,2.3-.3.4.2.6.8,1,.4.6-.5-.6-1.4-1.1-1.5-.6-.1-1.7,0-2.2.4h0Z" style="fill: #0f83b6;"/>
      <path d="M-424.7,455c1.5-.2,2.7,0,3.5,1.4,1.9,2.9-1.5,6.4-4.5,4.6-2.3-1.4-1.8-5.5,1-5.9h0ZM-425.3,456.5s-.2,0-.2,0c-.3.2-.6,1.2-.6,1.6,0,.9.8,2.1,1.7,2.2,1.8.2,3-.8,2.7-2.6-.2-1.4-1.7-2.1-2.9-1.7-.4.1-.4.2-.6.5Z" style="fill: #3b2319;"/>
      <path d="M-419,448.4c.5,0,1.3.2,1.7.5s1,1,.6,1.4-.8-.5-1.2-.7-1.2-.3-1.6,0c-.4.2-.8,1.3-1.3.8s1.1-1.8,1.8-1.8h0Z" style="fill: #f75650;"/>
      <path d="M-429.2,448.4c.8,0,1.6.2,2.1.8s.5.7.2,1c-.5.5-.8-.4-1.1-.6-.6-.5-1.5-.4-2.1,0s-.5,1-1,.6c-.5-.4.7-1.5,1.1-1.7s.5-.2.7-.2h0Z" style="fill: #f75650;"/>
      <path d="M-434.9,448.8h-.3.3Z" style="fill: #47a5fe;"/>
      <path d="M-429.6,452.7c.6-.1,1.4,0,1.9.3s.6.5.4.9c-.3.6-.8-.1-1.2-.2-.4,0-.9,0-1.2.1-.3.2-.6.7-1.1.4-.7-.4.7-1.4,1.2-1.5h0Z" style="fill: #3b2319;"/>
      <path d="M-420.2,453.1c.5-.5,1.5-.6,2.2-.4.4.1,1.7,1,1.1,1.5-.4.3-.7-.2-1-.4-.5-.2-1-.3-1.5,0s-.3.5-.8.3-.2-.7,0-.9h0Z" style="fill: #3b2319;"/>
      <path d="M-425.6,456.8c.2-.3.6-.6,1-.7,1.3-.4,2.7.3,2.9,1.7.3,1.8-.9,2.8-2.7,2.6-.9-.1-1.7-1.3-1.7-2.2s.3-1.4.6-1.6.2,0,.2,0c-.4.6-.4,1.4.5,1,.1-.4,1.1-.7.7-1.2s-.9,0-1.2.2h0l-.4.2ZM-423.1,456.2c-.5-.3-.8.4-.4.6.4.3.6-.5.4-.6ZM-425.1,458.5c.3-.6-.5-.8-.7-.5-.3.4.4.9.7.5Z" style="fill: #f75650;"/>
      <path d="M-425.3,456.5c.3-.2.9-.6,1.2-.2s-.6.8-.7,1.2c-.9.4-.9-.3-.5-1h0Z" style="fill: #fbfbf9;"/>
      <path d="M-425.1,458.5c-.2.4-.9,0-.7-.5s1,0,.7.5Z" style="fill: #fbfbf9;"/>
      <path d="M-423.1,456.2c.2.1,0,.9-.4.6-.4-.3,0-.9.4-.6Z" style="fill: #fbfbf9;"/>
      <path d="M-416.9,460.4h0c.5.2-.1,1.3-.3,1.6-2.7,4.9-10.6,4.8-13.3,0-.2-.4-1-1.6,0-1.6s.7,1.2.9,1.5c2.4,3.9,9.3,3.7,11.7-.4.2-.4.3-1.4,1-1.1" style="fill: #fff;"/>
    </g>
    <path d="M-423.9,427.4c-15.2,0-27.4,12.3-27.4,27.4s12.3,27.4,27.4,27.4,27.4-12.3,27.4-27.4-12.3-27.4-27.4-27.4ZM-423.9,478.9c-13.2,0-24-10.7-24-24s10.7-24,24-24,24,10.7,24,24-10.7,24-24,24Z" style="fill: #f75650;"/>
    <rect x="-425.8" y="428.9" width="3.7" height="53.2" transform="translate(197.9 433.2) rotate(45)" style="fill: #f75650;"/>
  </g>
  <g>
    <circle cx="362.1" cy="449.7" r="26.5" style="fill: #fff;"/>
    <g>
      <path d="M365.5,439.1c2.4.6,5.1,2.5,6.6,4.5.5.6,1,1.8,1.3,2.6.2.6.3,1.3.5,2,1,0,2,.2,2.8.9.8.7.7.7.9.9s0,.6.4.6c.6,0,1.9-1,2.2-1.5s.2-.7.4-1.2c.4-1.1.6-1.3.8-2.5s.1-.9.2-1.3c0,0,.1-.2.4,0,.2,0,.2,0,.4.2.5.6,0,3-.2,3.7-.6,1.7-1.8,2.9-3.4,3.7,2.2,2.6,1,7-1.9,8.4s-1.4.5-1.4.5-.2.7-.3,1c-.6,1.2-2,1.7-3.2,1.5-.2,0-.9-.3-1-.3-.2,0-.6.6-.7.7.4.5.8,1.1,1,1.8.3.9.3,3.4.2,4.4-.3,2.4-3.5,1.8-5,1.1-.4-.2-2.3-1.3-2.5-1.3s-.7.4-1,.5c-.3,0-.8,0-1.1,0s-1-.5-1.1-.5c-.2,0-1.3.8-1.7.9-1.4.7-4,1.7-5.3.3-.2-.3-.5-.7-.5-1.1-.1-.8-.1-3,0-3.8,0-.8.7-1.7,1.2-2.3-.2-.1-.6-.7-.7-.7s-.8.3-1.1.3c-1.2.1-2.3-.4-3-1.4-.2-.3-.3-1-.4-1.1s-1-.4-1.2-.5c-3.2-1.5-4.3-5.7-2.1-8.5-.4-.3-.8-.5-1.2-.7-1.8-1.3-2.7-4.2-2.5-6.4,0-.5.3-.6.8-.6.1.6,0,.9.2,1.6.1.9.7,1.7,1,2.6.4,1.6.9,1.8,2.4,2.4,0,0,.1.4.4,0s0-.3,0-.4.4-.4.5-.5c.9-1.1,1.9-1.4,3.3-1.4.2-1.2.5-2.2,1-3.2.2-.4.6-.8.6-1.2h0c0,0,0,0,0,0,0-.1.7-.7.9-.8,1.6-1.6,3-2.6,5.1-3.4,2.1-.8.4-.2.6-.3s1.4-.2,1.6-.3c1.6-.2,3.6,0,5.2.3h0s0,0,0,0h0ZM360.2,439.8c-4.1.9-8.2,3.7-8.7,8.3-.3,3.3-.1,8.6,1.4,11.7,4.1,8.3,15.1,7.8,18.8-.6,1.3-2.9,1.4-7.8,1.1-11-.5-5.6-7.2-9.1-12.3-8.4-.1,0-.2,0-.3,0h0,0ZM373.7,454.7c0,.5-.1,1,0,1.5.4.2.5-.2.6-.2.1,0,.3,0,.4,0,3.3-1.3,3.2-6.9-.8-6.8v1.5s.6,0,1,.3c.6.4,1.7,2,.4,2.1,0-.1-.5-.9-.6-1s-.7-.5-.8-.4c0,1,0,2.1,0,3.1h0ZM349.1,452.9c-1,.1-.6-1-.2-1.5.3-.5,1.1-.9,1.6-.8v-1.4c-4.6-.4-4,6.8.2,6.8,0,0-.2-1.2-.2-1.4,0-1,0-2.1,0-3.1-.5,0-1.4,1-1.4,1.4h0ZM377.5,454.7c-.4.3-.7.9-1.1,1.3-.8.7-2,1.1-3.1,1.1-.2.4-.2.8-.3,1.2,0,.3-.6,1.4-.5,1.5s.4,0,.3.5-.5.3-.8.3-.1.1-.1.2c-.2.1-.6.6-.5.8s.4.3.5.3c.5,0,1.5-.4,1.8-.7s.1-.2.2-.4.2-.1.2-.3-.4-.5,0-.8.6-.2.8-.2c.9-.2,1.4-.4,2.2-1,1.6-1.3,2.3-3.9,1.1-5.7,0,.7-.4,1.3-.5,2h0ZM349.1,459.4s0,0,0,0,.1,0,.2,0c.3,0,1,0,1,.5s-.3.4,0,.9c.2.8,1.7,1.3,2.4.9.4-.2-.3-.9-.6-1-.4-.2-.8,0-.6-.7s.2,0,.2-.1c.1-.2-.4-1.3-.4-1.6s-.2-.7-.2-1.1c-1.1-.2-2.2-.4-3.1-1.2l-1.2-1.4c0-.6-.3-1.2-.4-1.8-.2,0-.1,0-.2.1-.6.8-.5,2.5-.2,3.4.5,1.5,1.8,2.7,3.3,3h0ZM354.7,464.7c-.4.6-.6,1.1-.6,1.8s0,1.4,0,2c0,1.2.2,1.8,1.5,1.7,1.4-.1,3-1,4.2-1.7v-.3s-2.2,0-2.2,0c-.3,0-.3-1,0-1h2c0-.2,0-.5,0-.6,0,0-1.6-.6-1.9-.7-.5-.2-1.4-.7-1.8-1s-.4-.5-.6-.5c-.3,0-.3.3-.5.4h0ZM364.7,467.2h1.9c.4,0,.4.7,0,.9-.4.2-1.9-.1-2.1.1s0,.2,0,.3c0,.1,2.2,1.2,2.5,1.3.9.3,2.9.9,3.1-.5,0-.7.1-2.9,0-3.5-.1-.6-.7-1.7-1.1-1.5-.7.5-1.5,1.1-2.2,1.5s-1.9.6-2,.7,0,.5,0,.7h0ZM360.7,466.8c-.3.7.2,1.8,1,2s1.8-.1,2-1c0-.2.2-.9,0-1-1,0-1.9.2-2.9,0h0Z" style="fill: #3b2319;"/>
      <path d="M342.8,443.2c0,0-.2-.2-.2-.4-.2-1.5,1.5-3.1,2.8-3.6-.5-2.1.2-4.2,1.9-5.6.8-.6,1.6-.6,2.2-1,.2,0,.8-1.1,1.2-1.4,1.6-1.4,3.6-1.3,5.5-.8,1.1-1.8,4-3.1,5.9-1.9.2.2.4.4.7.6-.4-1.1.3-1.1,1.2-1,1.6,0,3.1,1.1,4.1,2.3,2.2-.8,4.4-.4,6,1.4.2.2.4.8.6.9.3.2.9.2,1.3.4,2.3,1.1,3.4,3.7,2.7,6.1,1.3.3,3.2,2.1,2.8,3.6,0,.2-.2.3-.2.4-1.6.2-.8-.7-1.1-1.5-.2-.4-.9-1-1.3-1.2-.7-.4-.9-.3-1.2.5-.2,0-.5,0-.7-.2.2-.6.3-1.5.4-2.2s.3-.7.3-1.2c0-1.6-1.3-3.3-2.9-3.6,0,.2-.1.5,0,.7-.3.1-.6.1-.9,0,0-2.3-2.3-3.7-4.4-3.5-.6,0-1.6.6-2.1.5,0,0-.6-.8-.7-1-.7-.8-1.7-1.4-2.9-1.5s-1.1,0-.9.9c0,0-.2.3-.3.4-.5.2-1-.4-1.6-.5-.1-.4.4-.7,0-.8-1.5-.3-3.5.6-4.1,2.2-.2.6,0,.6.1,1.2v.2c-.3.2-.4.5-.9.2s-.2-.2-.2-.2c-.3-.4-.1-1.1-.5-1.3-.5-.3-1.8-.4-2.4-.3-1.6.2-3.2,1.9-3.2,3.5-.3,0-.6,0-.9-.2,0-.2,0-.4,0-.6-1.5.2-2.7,1.8-2.9,3.2,0,.6,0,.9.2,1.5s.3,1.5.5,2.1c-.3.4-.5.2-.8.2-.3-.7-.4-.8-1.1-.5s-1.2.9-1.3,1.3c-.1.4.4.7,0,1.2-.3.3-.8.2-1.1.1h0s0,0,0,0Z" style="fill: #3b2319;"/>
      <path d="M346.4,441c-.6,0-1.5,1.4-1.6,2s0,1,0,1.1-.9.3-1,.5l-.8.8c0-.6,0-.9-.2-1.6s0-.6,0-.7c.4.1.8.2,1.1-.1.4-.4,0-.8,0-1.2.1-.4,1-1.2,1.3-1.3.7-.3.8-.3,1.1.5h0Z" style="fill: #fbfbf9;"/>
      <path d="M377.8,441.1c.3-.8.4-.9,1.2-.5s1.1.8,1.3,1.2c.3.7-.5,1.6,1.1,1.5,0,.1.1.5,0,.8s-.1.9-.2,1.3c-.3-.2-.6-.6-.9-.8s-.8-.3-.9-.4,0-.6,0-.8c0-.9-.8-1.9-1.7-2.2h0Z" style="fill: #fbfbf9;"/>
      <path d="M356.2,432.9s0,.2.2.2c.4.3.5,0,.9-.2,0,.7-.2,1.2-.2,2,0,1.6.5,3,1.6,4.2-.2,0-.2.2-.6.3-2.1.8-3.6,1.8-5.1,3.4s-.7.7-.8.7,0,0,0,0-.2,0-.3,0h-1.4l-1-.4c-.9-.3-1.9-1.4-2.3-2.3-.2-.6-.4-1.5-.5-2.1.2-.4.2-.9.4-1.3s.3-.8.4-.9c.2-.3.7-.2.8-.3s0-.5.1-.8c.2-.4.9-.3.9-.8.2.2.6.2.9.2,0,0,0,.5.1.5,0,0,.2.2.2.2,0,0,.4-1.1.4-1.3.7-1.6,2-2.2,3.6-2,.6,0,.8.3,1.3.5s.3,0,.3,0h0s0,0,0,0h0Z" style="fill: #f08c06;"/>
      <path d="M367.1,435.9c1-.1,1.5-1.2,1.4-2.1,0-.2-.3-.7-.2-.8s.7-.5.9-.5c2.2-.9,4.5.8,4.6,3.1.2,0,.3-.6.3-.9.3.1.6.1.9,0,0,.2,1.2,1,1.4,1.3.6.7.9,1.6,1.1,2.4,0,.1,0,.3.2.4-.1.6-.2,1.6-.4,2.2-.3.9-1.9,2.2-2.8,2.5-.7.2-1.5.2-2.2.2-1.4-2-4.2-3.8-6.6-4.5l1-1.3c.2-.3.6-1.6.6-1.9h0Z" style="fill: #f75650;"/>
      <path d="M357,434.9c.8,1.3,2.1,1.9,3.5,1,.2-.1.3-.4.5-.4s.5.2.8.2c1.5.1,2.3-1.1,1.9-2.5,1.8,0,1.7,2.2.8,3.3s-.4.3-.5.5c1.2.2,2-.3,2.7-1.2s.2,0,.2,0c0,0,.2.2.2.3,0,.3-.4,1.6-.6,1.9l-1,1.3c-1.6-.4-3.6-.5-5.2-.3-.2,0-1.5.2-1.6.3-1.2-1.2-1.6-2.5-1.6-4.2h0Z" style="fill: #0f83b6;"/>
      <path d="M347.2,440.8c.4.9,1.4,2,2.3,2.3l1,.4c-.2,0-.4,0-.6,0-.4.1-1,.8-1.1,1.2s0,.8-.2,1.2c-.4.7-1.7.9-2.4.5s-.9-1-1-1c-.2,0-.6,1-.6,1.2-.1.5,0,1.2,0,1.7-.4,0-.5-.2-.8-.3-.2-.9-.8-1.7-1-2.6l.8-.8c.2-.2.9-.4,1-.5s0-.8,0-1.1c0-.6,1.1-1.9,1.6-2s.5.2.8-.2h0Z" style="fill: #47a5fe;"/>
      <path d="M350.4,443.6h1.7c0,.5-.4.8-.6,1.2-.5,1.1-.8,2.1-1,3.2-1.4,0-2.4.3-3.3,1.4s-.5.5-.5.5c-.8-.2-1.8-.9-2.1-1.7s-.2-1.2,0-1.7.4-1.1.6-1.2.7.8,1,1c.7.4,1.8.2,2.2-.5s.2-.9.3-1.2.8-1,1.2-1.1.4,0,.6,0h0,0Z" style="fill: #0f83b6;"/>
      <path d="M374.3,443.4c.6.4,1,.7,1.3,1.4.1.4.1.8.3,1.1.6,1,2.2.8,2.9,0s.1-.6.4-.4c.6.4.7,2.2.5,2.8,0,0-.3.5-.4.6-.5.5-1,.9-1.7,1-.1-.2-.7-.7-.9-.9-.8-.7-1.7-.9-2.8-.9-.3-.6-.3-1.3-.5-2-.2-.8-.8-1.9-1.3-2.6.7,0,1.5,0,2.2-.2h0Z" style="fill: #0f83b6;"/>
      <path d="M377.8,441.1c.9.3,1.6,1.3,1.7,2.2,0,.2,0,.8,0,.8,0,0,.7.3.9.4.3.2.6.6.9.8-.2,1.2-.4,1.4-.8,2.5-.2.1-.3.3-.5.4s-.2,0-.2,0c.2-.6,0-2.3-.5-2.8,0,0-.3.3-.4.4-.7.9-2.2,1.1-2.9,0s-.2-.8-.3-1.1c-.2-.7-.7-1-1.3-1.4.9-.3,2.5-1.6,2.8-2.5.2.2.5.1.7.2h0Z" style="fill: #47a5fe;"/>
      <path d="M364.7,467.2c0-.2,0-.6,0-.7s1.7-.6,2-.7c.8-.4,1.5-1,2.2-1.5.4-.3,1.1,1.2,1.1,1.5,0,.6,0,2.9,0,3.5-.2,1.4-2.2.8-3.1.5s-2.5-1.2-2.5-1.3,0-.2,0-.3c.2-.2,1.7,0,2.1-.1.4-.2.3-.9,0-.9h-1.9Z" style="fill: #f75650;"/>
      <path d="M354.7,464.7c.1-.2.2-.5.5-.4s.4.4.6.5c.5.3,1.3.8,1.8,1s1.8.6,1.9.7c.2.2,0,.5,0,.6h-2c-.2,0-.2,1,0,1h2.2v.3c-1.2.7-2.8,1.6-4.2,1.7-1.3.1-1.4-.5-1.5-1.7,0-.6,0-1.4,0-2,.4.1.6,1,1.2.6.5-.3-.3-.9-.3-1.2s.6-1.2-.3-1.2h0Z" style="fill: #f75650;"/>
      <path d="M375.2,452.9c1.3,0,.2-1.7-.4-2.1-.3-.2-1-.2-1-.3v-1.5c4.1-.2,4.1,5.5.8,6.8-.1,0-.3,0-.4,0s-.2.3-.6.2c0-.5,0-1,0-1.5.5,0,1-.4,1.2-.8s.3-.8.3-.9h0Z" style="fill: #fbfbf9;"/>
      <path d="M350.4,454.7c0,.2.3,1.3.2,1.4-4.1,0-4.8-7.2-.2-6.8v1.4c-.6,0-1.3.4-1.6.8-.3.5-.7,1.6.2,1.5,0,.2.2.9.3,1,.2.4.7.6,1.1.7h0Z" style="fill: #fbfbf9;"/>
      <path d="M346.6,454.7l1.2,1.4c.9.8,2,1,3.1,1.2,0,.4.1.7.2,1.1s.6,1.4.4,1.6-.2,0-.2.1c-.2.7.2.6.6.7-.5.4-1.2.1-1.7,0-.2-.6,0-.5,0-.9s-.6-.4-1-.5c-.1-.4-.4-.6-.5-1s-.2-.9-.3-1-.7-.2-.9-.4c-1-.7-.9-1.5-1-2.5h0Z" style="fill: #0f83b6;"/>
      <path d="M377.5,454.7s0,0,0,.1c0,.8-.2,1.5-.9,2.1-.3.2-1.2.5-1.2.6s-.1.7-.2,1c-.2.4-.4.6-.6,1-.2,0-.7.2-.8.2-.3.4.1.6,0,.8,0,.2-.1.2-.2.3-.6.2-1.3,0-1.9,0,0,0,0-.1.1-.2.3,0,.7,0,.8-.3s-.3-.4-.3-.5c0-.2.4-1.3.5-1.5.1-.4.1-.8.3-1.2,1,0,2.3-.5,3.1-1.1.4-.4,1-1.3,1.1-1.3h0s0,0,0,0Z" style="fill: #0f83b6;"/>
      <path d="M374.7,459.5c.2-.4.4-.6.6-1,0-.2.2-.9.2-1s.9-.4,1.2-.6c.6-.5.8-1.3.9-2.1,0,0,0,0,0-.1,0-.7.4-1.3.5-2,1.2,1.8.6,4.4-1.1,5.7-.8.6-1.3.8-2.2,1h0Z" style="fill: #47a5fe;"/>
      <path d="M349.1,459.4c-1.5-.4-2.8-1.5-3.3-3-.3-.9-.4-2.6.2-3.4,0,0,0-.2.2-.1.2.6.3,1.2.4,1.8.1,1,0,1.8,1,2.5.2.1.8.3.9.4,0,.1.2.8.3,1s.4.6.5,1c0,0-.1,0-.2,0,0,0,0,0,0,0h0Z" style="fill: #47a5fe;"/>
      <path d="M360.7,466.8c1,.2,1.9,0,2.9,0,.3,0,.1.8,0,1-.2.9-1.2,1.2-2,1s-1.2-1.3-1-2h0Z" style="fill: #f75650;"/>
      <path d="M349.1,452.9c0-.4.8-1.4,1.4-1.4,0,1,0,2.1,0,3.1-.4,0-.8-.3-1.1-.7s-.3-.9-.3-1h0Z" style="fill: #f75650;"/>
      <path d="M375.2,452.9s-.2.8-.3.9c-.2.4-.7.9-1.2.8,0-1,.1-2.1,0-3.1.1-.1.7.3.8.4s.6.9.6,1h0Z" style="fill: #f75650;"/>
      <path d="M377.5,449.9c.7,0,1.3-.5,1.7-1s.4-.6.4-.6.2,0,.2,0c.2-.1.4-.3.5-.4-.1.4,0,.7-.4,1.2s-1.6,1.6-2.2,1.5-.3-.5-.4-.6h0Z" style="fill: #fbfbf9;"/>
      <path d="M344.6,448.3c.2.8,1.3,1.5,2.1,1.7,0,0,0,.2,0,.4-.3.4-.3,0-.4,0-1.4-.6-1.9-.9-2.4-2.4.3,0,.4.4.8.3h0Z" style="fill: #fbfbf9;"/>
      <path d="M354.7,464.7c.8,0,.2.9.3,1.2s.8.9.3,1.2c-.5.4-.7-.5-1.2-.6,0-.7.2-1.2.6-1.8h0Z" style="fill: #fbfbf9;"/>
      <path d="M350.3,460.9c.6,0,1.2.3,1.7,0,.3.1,1,.8.6,1-.7.4-2.1-.1-2.4-.9h0Z" style="fill: #fbfbf9;"/>
      <path d="M373.9,460.9c0,.1,0,.2-.2.4-.3.4-1.3.8-1.8.7s-.5-.3-.5-.3c0-.2.4-.7.5-.8.6,0,1.3.2,1.9,0h0Z" style="fill: #fbfbf9;"/>
      <path d="M352.1,443.5h0c0,0-.3,0-.3,0,0-.1.2,0,.3,0Z" style="fill: #47a5fe;"/>
      <path d="M349.2,459.5s0,0,0,0c0,0,0,0,0,0Z" style="fill: #0f83b6;"/>
      <path d="M361.2,430.1c.6,0,1.1.7,1.6.5.1,0,.3-.4.3-.4.1,0,.6,0,.8,0,2.1.4,3.7,2.5,3.3,4.7,0,0-.2.7-.2.8s-.1,0-.2,0c-.7.9-1.6,1.4-2.7,1.2,0-.2.4-.3.5-.5.9-1.1,1-3.3-.8-3.3.4,1.4-.4,2.6-1.9,2.5s-.6-.2-.8-.2-.3.3-.5.4c-1.4.8-2.7.3-3.5-1,0-.8.1-1.3.2-2v-.2c.6-.8,1.1-1.7,2.1-2.2s1.4-.5,1.9-.4h0s0,0,0,0Z" style="fill: #47a5fe;"/>
      <path d="M363.1,430.2c-.2-1-.1-1,.9-.9s2.1.7,2.9,1.5.6.9.7,1c.4.1,1.5-.5,2.1-.5,2.1-.2,4.4,1.1,4.4,3.5,0,.2-.1.8-.3.9,0-2.3-2.4-4-4.6-3.1-.1,0-.8.4-.9.5s.2.6.2.8c.1.9-.4,2-1.4,2.1,0,0-.1-.2-.2-.3,0,0,.2-.7.2-.8.5-2.1-1.1-4.3-3.3-4.7-.2,0-.6,0-.8,0,0,0,0,0,0,0Z" style="fill: #fbfbf9;"/>
      <path d="M356.2,432.9s-.2,0-.3,0c-.5-.2-.6-.5-1.3-.5-1.7-.2-3,.4-3.6,2s-.4,1.3-.4,1.3-.2-.2-.2-.2-.1-.5-.1-.5c0-1.6,1.5-3.4,3.2-3.5.6,0,1.8,0,2.4.3s.2,1,.5,1.3h0Z" style="fill: #fbfbf9;"/>
      <path d="M361.2,430.1c-.4,0-1.5.2-1.9.4-1,.5-1.5,1.3-2.1,2.2,0-.6-.4-.6-.1-1.2.5-1.5,2.5-2.5,4.1-2.2.5,0,0,.4,0,.8h0Z" style="fill: #fbfbf9;"/>
      <path d="M377.5,438.7c-.2,0-.2-.2-.2-.4-.2-.9-.5-1.8-1.1-2.4-.2-.2-1.4-1.1-1.4-1.3s.1-.5,0-.7c1.6.3,2.8,2,2.9,3.6,0,.5-.2.8-.3,1.2h0Z" style="fill: #fbfbf9;"/>
      <path d="M346.6,438.7c0-.6-.2-.9-.2-1.5.1-1.5,1.4-3,2.9-3.2,0,.2,0,.4,0,.6,0,.6-.7.4-.9.8s0,.7-.1.8-.6,0-.8.3-.3.7-.4.9c-.1.4-.2.9-.4,1.3h0Z" style="fill: #fbfbf9;"/>
      <path d="M369.3,453.7c-.2,0-.7,0-.9.1-.8.3-1.2,1.5-1.7,2.2-2.2,2.7-6.8,2.8-9,.1-.7-.9-1.3-2.8-2.8-2.4-2.1.5-.7,3.7.1,4.8,3.3,4.4,10.8,4.5,14.2,0,.7-.9,1.9-3.3,1.1-4.3-.1-.2-.7-.5-.9-.6h0Z" style="fill: #f75650;"/>
      <path d="M359.3,447.5c.1.2.6.5.5.7-.4.6-.8,1.2-1.2,1.7s-.7,1.2-1.1,1.7c0,.1-.4.7-.6.6l-1.5-2.3c-.5-.5-.9-1.1-1.2-1.7.2-.5,2.6-3.6,2.8-3.7s.3.2.4.3c.6.7,1.3,1.8,1.9,2.6h0ZM356.4,447.5c-.5,0-1.9,1.1-1.2,1.5.4.3.7-.3,1.1-.4.4-.2.8-.2,1.2-.1.4,0,.9.8,1.2.2s0-.7-.4-.9c-.5-.4-1.3-.4-1.9-.3h0Z" style="fill: #0f83b6;"/>
      <path d="M364.8,448.5s-.2-.2-.2-.4c0-.5.6-.7.7-1.2.4-.5.7-.6.9-1.2.2,0,.3-.2.3-.3h0c0-.2.5-.9.7-.8s2.3,3.1,2.8,3.5v.3s-2.7,4-2.7,4c-.1,0-.3-.2-.3-.3-.6-.8-1.2-1.8-1.7-2.7l-.5-.8h0ZM365.8,447.9c-.2.2-.5.8,0,.9.6.2.8-1,2.3-.3.4.2.6.8,1,.4.6-.5-.6-1.4-1.1-1.5-.6-.1-1.7,0-2.2.4h0Z" style="fill: #0f83b6;"/>
      <path d="M361.3,449.8c1.5-.2,2.7,0,3.5,1.4,1.9,2.9-1.5,6.4-4.5,4.6-2.3-1.4-1.8-5.5,1-5.9h0ZM360.7,451.4s-.2,0-.2,0c-.3.2-.6,1.2-.6,1.6,0,.9.8,2.1,1.7,2.2,1.8.2,3-.8,2.7-2.6-.2-1.4-1.7-2.1-2.9-1.7-.4.1-.4.2-.6.5Z" style="fill: #3b2319;"/>
      <path d="M366.9,443.2c.5,0,1.3.2,1.7.5s1,1,.6,1.4-.8-.5-1.2-.7-1.2-.3-1.6,0c-.4.2-.8,1.3-1.3.8s1.1-1.8,1.8-1.8h0Z" style="fill: #f75650;"/>
      <path d="M356.7,443.2c.8,0,1.6.2,2.1.8s.5.7.2,1c-.5.5-.8-.4-1.1-.6-.6-.5-1.5-.4-2.1,0s-.5,1-1,.6c-.5-.4.7-1.5,1.1-1.7s.5-.2.7-.2h0Z" style="fill: #f75650;"/>
      <path d="M351.1,443.6h-.3.3Z" style="fill: #47a5fe;"/>
      <path d="M356.4,447.5c.6-.1,1.4,0,1.9.3s.6.5.4.9c-.3.6-.8-.1-1.2-.2-.4,0-.9,0-1.2.1-.3.2-.6.7-1.1.4-.7-.4.7-1.4,1.2-1.5h0Z" style="fill: #3b2319;"/>
      <path d="M365.8,447.9c.5-.5,1.5-.6,2.2-.4.4.1,1.7,1,1.1,1.5-.4.3-.7-.2-1-.4-.5-.2-1-.3-1.5,0s-.3.5-.8.3-.2-.7,0-.9h0Z" style="fill: #3b2319;"/>
      <path d="M360.4,451.6c.2-.3.6-.6,1-.7,1.3-.4,2.7.3,2.9,1.7.3,1.8-.9,2.8-2.7,2.6-.9-.1-1.7-1.3-1.7-2.2s.3-1.4.6-1.6.2,0,.2,0c-.4.6-.4,1.4.5,1,.1-.4,1.1-.7.7-1.2s-.9,0-1.2.2h0l-.4.2ZM362.9,451c-.5-.3-.8.4-.4.6.4.3.6-.5.4-.6ZM360.9,453.3c.3-.6-.5-.8-.7-.5-.3.4.4.9.7.5Z" style="fill: #f75650;"/>
      <path d="M360.7,451.4c.3-.2.9-.6,1.2-.2s-.6.8-.7,1.2c-.9.4-.9-.3-.5-1h0Z" style="fill: #fbfbf9;"/>
      <path d="M360.9,453.3c-.2.4-.9,0-.7-.5s1,0,.7.5Z" style="fill: #fbfbf9;"/>
      <path d="M362.9,451c.2.1,0,.9-.4.6-.4-.3,0-.9.4-.6Z" style="fill: #fbfbf9;"/>
      <path d="M369,455.2h0c.5.2-.1,1.3-.3,1.6-2.7,4.9-10.6,4.8-13.3,0-.2-.4-1-1.6,0-1.6s.7,1.2.9,1.5c2.4,3.9,9.3,3.7,11.7-.4.2-.4.3-1.4,1-1.1" style="fill: #fff;"/>
    </g>
    <path d="M362.1,422.3c-15.2,0-27.4,12.3-27.4,27.4s12.3,27.4,27.4,27.4,27.4-12.3,27.4-27.4-12.3-27.4-27.4-27.4ZM362.1,473.7c-13.2,0-24-10.7-24-24s10.7-24,24-24,24,10.7,24,24-10.7,24-24,24Z" style="fill: #f75650;"/>
    <rect x="360.2" y="423.7" width="3.7" height="53.2" transform="translate(424.5 -124.1) rotate(45)" style="fill: #f75650;"/>
  </g>
  <text transform="translate(144.4 62.5)" style="font-size: 37.2px;"><tspan x="0" y="0" style="font-family: PTSans-Bold, &apos;PT Sans&apos;; font-weight: 700;">1x</tspan><tspan x="40.7" y="0" xml:space="preserve" style="font-family: PTSans-Regular, &apos;PT Sans&apos;;"> Suite de 5</tspan></text>
  <g>
    <rect x="165.3" y="128.8" width="87.8" height="117.9" rx="6.9" ry="6.9" style="fill: #fff; stroke: #231f20; stroke-miterlimit: 10; stroke-width: .8px;"/>
    <rect x="185.7" y="119.3" width="87.8" height="117.9" rx="6.9" ry="6.9" style="fill: #fff; stroke: #231f20; stroke-miterlimit: 10; stroke-width: .8px;"/>
    <rect x="206.1" y="109.9" width="87.8" height="117.9" rx="6.9" ry="6.9" style="fill: #fff; stroke: #231f20; stroke-miterlimit: 10; stroke-width: .8px;"/>
    <rect x="226.5" y="100.4" width="87.8" height="117.9" rx="6.9" ry="6.9" style="fill: #fff; stroke: #231f20; stroke-miterlimit: 10; stroke-width: .8px;"/>
    <rect x="246.9" y="90.9" width="87.8" height="117.9" rx="6.9" ry="6.9" style="fill: #fff; stroke: #231f20; stroke-miterlimit: 10; stroke-width: .8px;"/>
  </g>
  <text transform="translate(141.3 312.6)" style="font-size: 37.2px;"><tspan x="0" y="0" style="font-family: PTSans-Bold, &apos;PT Sans&apos;; font-weight: 700;">1x</tspan><tspan x="40.7" y="0" xml:space="preserve" style="font-family: PTSans-Regular, &apos;PT Sans&apos;;"> 4 pareilles</tspan></text>
</svg>