<?xml version="1.0" encoding="UTF-8"?>
<svg id="Layer_1" xmlns="http://www.w3.org/2000/svg" version="1.1" viewBox="0 0 500 375.8">
  <!-- Generator: Adobe Illustrator 29.6.1, SVG Export Plug-In . SVG Version: 2.1.1 Build 9)  -->
  <g>
    <rect x="23.3" y="206.2" width="87.8" height="117.9" rx="7" ry="7" style="fill: #fff; stroke: #231f20; stroke-miterlimit: 10; stroke-width: .8px;"/>
    <rect x="43.7" y="196.7" width="87.8" height="117.9" rx="7" ry="7" style="fill: #fff; stroke: #231f20; stroke-miterlimit: 10; stroke-width: .8px;"/>
    <rect x="64.1" y="187.2" width="87.8" height="117.9" rx="7" ry="7" style="fill: #fff; stroke: #231f20; stroke-miterlimit: 10; stroke-width: .8px;"/>
    <rect x="84.5" y="177.8" width="87.8" height="117.9" rx="7" ry="7" style="fill: #fff; stroke: #231f20; stroke-miterlimit: 10; stroke-width: .8px;"/>
    <rect x="104.9" y="168.3" width="87.8" height="117.9" rx="7" ry="7" style="fill: #fff; stroke: #231f20; stroke-miterlimit: 10; stroke-width: .8px;"/>
    <rect x="125.3" y="158.8" width="87.8" height="117.9" rx="7" ry="7" style="fill: #fff; stroke: #231f20; stroke-miterlimit: 10; stroke-width: .8px;"/>
    <rect x="145.7" y="149.4" width="87.8" height="117.9" rx="7" ry="7" style="fill: #fff; stroke: #231f20; stroke-miterlimit: 10; stroke-width: .8px;"/>
    <rect x="166" y="139.9" width="87.8" height="117.9" rx="7" ry="7" style="fill: #fff; stroke: #231f20; stroke-miterlimit: 10; stroke-width: .8px;"/>
    <rect x="186.4" y="130.5" width="87.8" height="117.9" rx="7" ry="7" style="fill: #fff; stroke: #231f20; stroke-miterlimit: 10; stroke-width: .8px;"/>
    <rect x="206.8" y="121" width="87.8" height="117.9" rx="7" ry="7" style="fill: #fff; stroke: #231f20; stroke-miterlimit: 10; stroke-width: .8px;"/>
    <rect x="227.2" y="111.5" width="87.8" height="117.9" rx="7" ry="7" style="fill: #fff; stroke: #231f20; stroke-miterlimit: 10; stroke-width: .8px;"/>
    <rect x="247.6" y="102.1" width="87.8" height="117.9" rx="7" ry="7" style="fill: #fff; stroke: #231f20; stroke-miterlimit: 10; stroke-width: .8px;"/>
    <rect x="268" y="92.6" width="87.8" height="117.9" rx="7" ry="7" style="fill: #fff; stroke: #231f20; stroke-miterlimit: 10; stroke-width: .8px;"/>
  </g>
  <g>
    <circle cx="280.4" cy="317.2" r="31.8" style="fill: #fff;"/>
    <g>
      <path d="M284.5,304.5c2.9.7,6.1,3,7.9,5.4.6.7,1.2,2.2,1.6,3.1.2.7.4,1.6.6,2.4,1.2,0,2.4.2,3.4,1.1,1,.8.8.8,1.1,1.1s0,.7.5.7c.7,0,2.3-1.2,2.6-1.8s.2-.8.5-1.4c.5-1.3.7-1.6,1-3s.1-1.1.2-1.6c0,0,.1-.2.5,0q.2,0,.5.2c.6.7,0,3.6-.2,4.4-.7,2-2.2,3.5-4.1,4.4,2.6,3.1,1.2,8.4-2.3,10.1s-1.7.6-1.7.6c0,0-.2.8-.4,1.2-.7,1.4-2.4,2-3.8,1.8-.2,0-1.1-.4-1.2-.4-.2,0-.7.7-.8.8.5.6,1,1.3,1.2,2.2.4,1.1.4,4.1.2,5.3-.4,2.9-4.2,2.2-6,1.3-.5-.2-2.8-1.6-3-1.6s-.8.5-1.2.6h-1.3c-.4,0-1.2-.6-1.3-.6-.2,0-1.6,1-2,1.1-1.7.8-4.8,2-6.4.4-.2-.4-.6-.8-.6-1.3-.1-1-.1-3.6,0-4.6,0-1,.8-2,1.4-2.8-.2-.1-.7-.8-.8-.8s-1,.4-1.3.4c-1.4.1-2.8-.5-3.6-1.7-.2-.4-.4-1.2-.5-1.3s-1.2-.5-1.4-.6c-3.8-1.8-5.2-6.8-2.5-10.2-.5-.4-1-.6-1.4-.8-2.2-1.6-3.2-5-3-7.7,0-.6.4-.7,1-.7.1.7,0,1.1.2,1.9.1,1.1.8,2,1.2,3.1.5,1.9,1.1,2.2,2.9,2.9,0,0,.1.5.5,0s0-.4,0-.5.5-.5.6-.6c1.1-1.3,2.3-1.7,4-1.7.2-1.4.6-2.6,1.2-3.8.2-.5.7-1,.7-1.4h0c0-.1.8-.8,1.1-1,1.9-1.9,3.6-3.1,6.1-4.1s.5-.2.7-.4,1.7-.2,1.9-.4c1.9-.2,4.3,0,6.2.4h0l-.5-.2ZM278.1,305.4c-4.9,1.1-9.8,4.4-10.4,10-.4,4-.1,10.3,1.7,14,4.9,10,18.1,9.4,22.6-.7,1.6-3.5,1.7-9.4,1.3-13.2-.6-6.7-8.6-10.9-14.8-10.1h-.4ZM294.3,323.1c0,.6-.1,1.2,0,1.8.5.2.6-.2.7-.2h.5c4-1.6,3.8-8.3-1-8.2v1.8s.7,0,1.2.4c.7.5,2,2.4.5,2.5,0-.1-.6-1.1-.7-1.2s-.8-.6-1-.5v3.7h-.2ZM264.8,321.1c-1.2.1-.7-1.2-.2-1.8.4-.6,1.3-1.1,1.9-1v-1.7c-5.5-.5-4.8,8.2.2,8.2,0,0-.2-1.4-.2-1.7v-3.7c-.6,0-1.7,1.2-1.7,1.7h0ZM298.9,323.2c-.5.4-.8,1.1-1.3,1.6-1,.8-2.4,1.3-3.7,1.3-.2.5-.2,1-.4,1.4,0,.4-.7,1.7-.6,1.8s.5,0,.4.6-.6.4-1,.4-.1.1-.1.2c-.2.1-.7.7-.6,1s.5.4.6.4c.6,0,1.8-.5,2.2-.8s.1-.2.2-.5.2-.1.2-.4-.5-.6,0-1,.7-.2,1-.2c1.1-.2,1.7-.5,2.6-1.2,1.9-1.6,2.8-4.7,1.3-6.8,0,.8-.5,1.6-.6,2.4h-.2ZM264.9,328.9h.2c.4,0,1.2,0,1.2.6s-.4.5,0,1.1c.2,1,2,1.6,2.9,1.1.5-.2-.4-1.1-.7-1.2-.5-.2-1,0-.7-.8s.2,0,.2-.1c.1-.2-.5-1.6-.5-1.9s-.2-.8-.2-1.3c-1.3-.2-2.6-.5-3.7-1.4l-1.4-1.7c0-.7-.4-1.4-.5-2.2-.2,0-.1,0-.2.1-.7,1-.6,3-.2,4.1.6,1.8,2.2,3.2,4,3.6h-.2ZM271.5,335.2c-.5.7-.7,1.3-.7,2.2v2.4c0,1.4.2,2.2,1.8,2,1.7-.1,3.6-1.2,5-2v-.4h-2.6c-.4,0-.4-1.2,0-1.2h2.4v-.7s-1.9-.7-2.3-.8c-.6-.2-1.7-.8-2.2-1.2s-.5-.6-.7-.6c-.4,0-.4.4-.6.5h-.1ZM283.5,338.2h2.3c.5,0,.5.8,0,1.1-.5.2-2.3-.1-2.5.1s0,.2,0,.4,2.6,1.4,3,1.6c1.1.4,3.5,1.1,3.7-.6,0-.8.1-3.5,0-4.2s-.8-2-1.3-1.8c-.8.6-1.8,1.3-2.6,1.8s-2.3.7-2.4.8,0,.6,0,.8h-.1ZM278.7,337.6c-.4.8.2,2.2,1.2,2.4s2.2-.1,2.4-1.2c0-.2.2-1.1,0-1.2-1.2,0-2.3.2-3.5,0h-.1Z" style="fill: #3b2319;"/>
      <path d="M257.3,309.3s-.2-.2-.2-.5c-.2-1.8,1.8-3.7,3.4-4.3-.6-2.5.2-5,2.3-6.7,1-.7,1.9-.7,2.6-1.2.2,0,1-1.3,1.4-1.7,1.9-1.7,4.3-1.6,6.6-1,1.3-2.2,4.8-3.7,7.1-2.3.2.2.5.5.8.7-.5-1.3.4-1.3,1.4-1.2,1.9,0,3.7,1.3,4.9,2.8,2.6-1,5.3-.5,7.2,1.7.2.2.5,1,.7,1.1.4.2,1.1.2,1.6.5,2.8,1.3,4.1,4.4,3.2,7.3,1.6.4,3.8,2.5,3.4,4.3,0,.2-.2.4-.2.5-1.9.2-1-.8-1.3-1.8-.2-.5-1.1-1.2-1.6-1.4-.8-.5-1.1-.4-1.4.6-.2,0-.6,0-.8-.2.2-.7.4-1.8.5-2.6s.4-.8.4-1.4c0-1.9-1.6-4-3.5-4.3,0,.2-.1.6,0,.8-.4.1-.7.1-1.1,0,0-2.8-2.8-4.4-5.3-4.2-.7,0-1.9.7-2.5.6,0,0-.7-1-.8-1.2-.8-1-2-1.7-3.5-1.8s-1.3,0-1.1,1.1c0,0-.2.4-.4.5-.6.2-1.2-.5-1.9-.6-.1-.5.5-.8,0-1-1.8-.4-4.2.7-4.9,2.6-.2.7,0,.7.1,1.4v.2c-.4.2-.5.6-1.1.2s-.2-.2-.2-.2c-.4-.5-.1-1.3-.6-1.6-.6-.4-2.2-.5-2.9-.4-1.9.2-3.8,2.3-3.8,4.2-.4,0-.7,0-1.1-.2v-.7c-1.8.2-3.2,2.2-3.5,3.8,0,.7,0,1.1.2,1.8s.4,1.8.6,2.5c-.4.5-.6.2-1,.2-.4-.8-.5-1-1.3-.6s-1.4,1.1-1.6,1.6c-.1.5.5.8,0,1.4-.4.4-1,.2-1.3.1h0l.5.5Z" style="fill: #3b2319;"/>
      <path d="M261.6,306.8c-.7,0-1.8,1.7-1.9,2.4s0,1.2,0,1.3-1.1.4-1.2.6l-1,1c0-.7,0-1.1-.2-1.9s0-.7,0-.8c.5.1,1,.2,1.3-.1s0-1,0-1.4c.1-.5,1.2-1.4,1.6-1.6.8-.4,1-.4,1.3.6h.1Z" style="fill: #fbfbf9;"/>
      <path d="M299.3,306.9c.4-1,.5-1.1,1.4-.6s1.3,1,1.6,1.4c.4.8-.6,1.9,1.3,1.8,0,.1.1.6,0,1s-.1,1.1-.2,1.6c-.4-.2-.7-.7-1.1-1s-1-.4-1.1-.5,0-.7,0-1c0-1.1-1-2.3-2-2.6h.1Z" style="fill: #fbfbf9;"/>
      <path d="M273.3,297s0,.2.2.2c.5.4.6,0,1.1-.2,0,.8-.2,1.4-.2,2.4,0,1.9.6,3.6,1.9,5-.2,0-.2.2-.7.4-2.5,1-4.3,2.2-6.1,4.1s-.8.8-1,.8,0,0,0,0h-2l-1.2-.5c-1.1-.4-2.3-1.7-2.8-2.8-.2-.7-.5-1.8-.6-2.5.2-.5.2-1.1.5-1.6s.4-1,.5-1.1c.2-.4.8-.2,1-.4s0-.6.1-1c.2-.5,1.1-.4,1.1-1,.2.2.7.2,1.1.2,0,0,0,.6.1.6l.2.2s.5-1.3.5-1.6c.8-1.9,2.4-2.6,4.3-2.4.7,0,1,.4,1.6.6s.4,0,.4,0h0v.2Z" style="fill: #f08c06;"/>
      <path d="M286.4,300.7c1.2-.1,1.8-1.4,1.7-2.5,0-.2-.4-.8-.2-1s.8-.6,1.1-.6c2.6-1.1,5.4,1,5.5,3.7.2,0,.4-.7.4-1.1.4.1.7.1,1.1,0,0,.2,1.4,1.2,1.7,1.6.7.8,1.1,1.9,1.3,2.9,0,.1,0,.4.2.5-.1.7-.2,1.9-.5,2.6-.4,1.1-2.3,2.6-3.4,3-.8.2-1.8.2-2.6.2-1.7-2.4-5-4.6-7.9-5.4l1.2-1.6c.2-.4.7-1.9.7-2.3h-.2Z" style="fill: #f75650;"/>
      <path d="M274.3,299.4c1,1.6,2.5,2.3,4.2,1.2.2-.1.4-.5.6-.5s.6.2,1,.2c1.8.1,2.8-1.3,2.3-3,2.2,0,2,2.6,1,4s-.5.4-.6.6c1.4.2,2.4-.4,3.2-1.4s.2,0,.2,0c0,0,.2.2.2.4,0,.4-.5,1.9-.7,2.3l-1.2,1.6c-1.9-.5-4.3-.6-6.2-.4-.2,0-1.8.2-1.9.4-1.4-1.4-1.9-3-1.9-5h0v-.2Z" style="fill: #0f83b6;"/>
      <path d="M262.5,306.6c.5,1.1,1.7,2.4,2.8,2.8l1.2.5h-.7c-.5.1-1.2,1-1.3,1.4s0,1-.2,1.4c-.5.8-2,1.1-2.9.6s-1.1-1.2-1.2-1.2c-.2,0-.7,1.2-.7,1.4-.1.6,0,1.4,0,2-.5,0-.6-.2-1-.4-.2-1.1-1-2-1.2-3.1l1-1c.2-.2,1.1-.5,1.2-.6s0-1,0-1.3c0-.7,1.3-2.3,1.9-2.4s.6.2,1-.2h.2Z" style="fill: #47a5fe;"/>
      <path d="M266.5,309.9h2c0,.6-.5,1-.7,1.4-.6,1.3-1,2.5-1.2,3.8-1.7,0-2.9.4-4,1.7s-.6.6-.6.6c-1-.2-2.2-1.1-2.5-2s-.2-1.4,0-2,.5-1.3.7-1.4.8,1,1.2,1.2c.8.5,2.2.2,2.6-.6s.2-1.1.4-1.4,1-1.2,1.4-1.3.5,0,.7,0h-.1Z" style="fill: #0f83b6;"/>
      <path d="M295.1,309.7c.7.5,1.2.8,1.6,1.7.1.5.1,1,.4,1.3.7,1.2,2.6,1,3.5,0s.1-.7.5-.5c.7.5.8,2.6.6,3.4,0,0-.4.6-.5.7-.6.6-1.2,1.1-2,1.2-.1-.2-.8-.8-1.1-1.1-1-.8-2-1.1-3.4-1.1-.4-.7-.4-1.6-.6-2.4-.2-1-1-2.3-1.6-3.1.8,0,1.8,0,2.6-.2h0Z" style="fill: #0f83b6;"/>
      <path d="M299.3,306.9c1.1.4,1.9,1.6,2,2.6v1s.8.4,1.1.5c.4.2.7.7,1.1,1-.2,1.4-.5,1.7-1,3-.2.1-.4.4-.6.5s-.2,0-.2,0c.2-.7,0-2.8-.6-3.4l-.5.5c-.8,1.1-2.6,1.3-3.5,0s-.2-1-.4-1.3c-.2-.8-.8-1.2-1.6-1.7,1.1-.4,3-1.9,3.4-3,.2.2.6.1.8.2h-.1Z" style="fill: #47a5fe;"/>
      <path d="M283.5,338.2v-.8c0-.1,2-.7,2.4-.8,1-.5,1.8-1.2,2.6-1.8.5-.4,1.3,1.4,1.3,1.8v4.2c-.2,1.7-2.6,1-3.7.6s-3-1.4-3-1.6v-.4c.2-.2,2,0,2.5-.1.5-.2.4-1.1,0-1.1h-2.3.1Z" style="fill: #f75650;"/>
      <path d="M271.5,335.2c.1-.2.2-.6.6-.5s.5.5.7.6c.6.4,1.6,1,2.2,1.2s2.2.7,2.3.8c.2.2,0,.6,0,.7h-2.4c-.2,0-.2,1.2,0,1.2h2.6v.4c-1.4.8-3.4,1.9-5,2-1.6.1-1.7-.6-1.8-2v-2.4c.5.1.7,1.2,1.4.7.6-.4-.4-1.1-.4-1.4s.7-1.4-.4-1.4h.1Z" style="fill: #f75650;"/>
      <path d="M296.1,321.1c1.6,0,.2-2-.5-2.5-.4-.2-1.2-.2-1.2-.4v-1.8c4.9-.2,4.9,6.6,1,8.2h-.5c-.1,0-.2.4-.7.2v-1.8c.6,0,1.2-.5,1.4-1s.4-1,.4-1.1h.1Z" style="fill: #fbfbf9;"/>
      <path d="M266.5,323.1c0,.2.4,1.6.2,1.7-4.9,0-5.8-8.6-.2-8.2v1.7c-.7,0-1.6.5-1.9,1-.4.6-.8,1.9.2,1.8,0,.2.2,1.1.4,1.2.2.5.8.7,1.3.8h0Z" style="fill: #fbfbf9;"/>
      <path d="M261.8,323.1l1.4,1.7c1.1,1,2.4,1.2,3.7,1.4,0,.5.1.8.2,1.3s.7,1.7.5,1.9-.2,0-.2.1c-.2.8.2.7.7.8-.6.5-1.4.1-2,0-.2-.7,0-.6,0-1.1s-.7-.5-1.2-.6c-.1-.5-.5-.7-.6-1.2s-.2-1.1-.4-1.2-.8-.2-1.1-.5c-1.2-.8-1.1-1.8-1.2-3h0v.2Z" style="fill: #0f83b6;"/>
      <path d="M298.9,323.2h0c0,1.1-.2,1.9-1.1,2.6-.4.2-1.4.6-1.4.7s-.1.8-.2,1.2c-.2.5-.5.7-.7,1.2-.2,0-.8.2-1,.2-.4.5.1.7,0,1,0,.2-.1.2-.2.4-.7.2-1.6,0-2.3,0,0,0,0-.1.1-.2.4,0,.8,0,1-.4s-.4-.5-.4-.6c0-.2.5-1.6.6-1.8.1-.5.1-1,.4-1.4,1.2,0,2.8-.6,3.7-1.3.5-.5,1.2-1.6,1.3-1.6h.2Z" style="fill: #0f83b6;"/>
      <path d="M295.7,329c.2-.5.5-.7.7-1.2,0-.2.2-1.1.2-1.2s1.1-.5,1.4-.7c.7-.6,1-1.6,1.1-2.5h0c0-1,.5-1.7.6-2.5,1.4,2.2.7,5.3-1.3,6.8-1,.7-1.6,1-2.6,1.2h-.1Z" style="fill: #47a5fe;"/>
      <path d="M264.9,328.9c-1.8-.5-3.4-1.8-4-3.6-.4-1.1-.5-3.1.2-4.1,0,0,0-.2.2-.1.2.7.4,1.4.5,2.2.1,1.2,0,2.2,1.2,3,.2.1,1,.4,1.1.5,0,.1.2,1,.4,1.2s.5.7.6,1.2h-.2v-.2Z" style="fill: #47a5fe;"/>
      <path d="M278.7,337.6c1.2.2,2.3,0,3.5,0s.1,1,0,1.2c-.2,1.1-1.4,1.4-2.4,1.2s-1.4-1.6-1.2-2.4h.1Z" style="fill: #f75650;"/>
      <path d="M264.8,321.1c0-.5,1-1.7,1.7-1.7v3.7c-.5,0-1-.4-1.3-.8s-.4-1.1-.4-1.2h0Z" style="fill: #f75650;"/>
      <path d="M296.1,321.1s-.2,1-.4,1.1c-.2.5-.8,1.1-1.4,1,0-1.2.1-2.5,0-3.7.1-.1.8.4,1,.5s.7,1.1.7,1.2h.1Z" style="fill: #f75650;"/>
      <path d="M298.9,317.5c.8,0,1.6-.6,2-1.2s.5-.7.5-.7h.2c.2-.1.5-.4.6-.5-.1.5,0,.8-.5,1.4s-1.9,1.9-2.6,1.8-.4-.6-.5-.7h.2Z" style="fill: #fbfbf9;"/>
      <path d="M259.4,315.4c.2,1,1.6,1.8,2.5,2v.5c-.4.5-.4,0-.5,0-1.7-.7-2.3-1.1-2.9-2.9.4,0,.5.5,1,.4h-.1Z" style="fill: #fbfbf9;"/>
      <path d="M271.5,335.2c1,0,.2,1.1.4,1.4s1,1.1.4,1.4c-.6.5-.8-.6-1.4-.7,0-.8.2-1.4.7-2.2h0Z" style="fill: #fbfbf9;"/>
      <path d="M266.3,330.7c.7,0,1.4.4,2,0,.4.1,1.2,1,.7,1.2-.8.5-2.5-.1-2.9-1.1h.1Z" style="fill: #fbfbf9;"/>
      <path d="M294.6,330.7c0,.1,0,.2-.2.5-.4.5-1.6,1-2.2.8s-.6-.4-.6-.4c0-.2.5-.8.6-1,.7,0,1.6.2,2.3,0h.1Z" style="fill: #fbfbf9;"/>
      <path d="M268.4,309.8h-.4c0-.1.2,0,.4,0Z" style="fill: #47a5fe;"/>
      <path d="M279.3,293.7c.7,0,1.3.8,1.9.6.1,0,.4-.5.4-.5h1c2.5.5,4.4,3,4,5.6,0,0-.2.8-.2,1s-.1,0-.2,0c-.8,1.1-1.9,1.7-3.2,1.4,0-.2.5-.4.6-.6,1.1-1.3,1.2-4-1-4,.5,1.7-.5,3.1-2.3,3s-.7-.2-1-.2-.4.4-.6.5c-1.7,1-3.2.4-4.2-1.2,0-1,.1-1.6.2-2.4v-.2c.7-1,1.3-2,2.5-2.6s1.7-.6,2.3-.5h-.1Z" style="fill: #47a5fe;"/>
      <path d="M281.6,293.8c-.2-1.2-.1-1.2,1.1-1.1s2.5.8,3.5,1.8.7,1.1.8,1.2c.5.1,1.8-.6,2.5-.6,2.5-.2,5.3,1.3,5.3,4.2s-.1,1-.4,1.1c0-2.8-2.9-4.8-5.5-3.7-.1,0-1,.5-1.1.6s.2.7.2,1c.1,1.1-.5,2.4-1.7,2.5,0,0-.1-.2-.2-.4,0,0,.2-.8.2-1,.6-2.5-1.3-5.2-4-5.6h-1,.1Z" style="fill: #fbfbf9;"/>
      <path d="M273.3,297h-.4c-.6-.2-.7-.6-1.6-.6-2-.2-3.6.5-4.3,2.4s-.5,1.6-.5,1.6l-.2-.2v-.6c-.1-1.9,1.7-4.1,3.7-4.2.7,0,2.2,0,2.9.4s.2,1.2.6,1.6h0l-.2-.2Z" style="fill: #fbfbf9;"/>
      <path d="M279.3,293.7c-.5,0-1.8.2-2.3.5-1.2.6-1.8,1.6-2.5,2.6,0-.7-.5-.7-.1-1.4.6-1.8,3-3,4.9-2.6.6,0,0,.5,0,1h0Z" style="fill: #fbfbf9;"/>
      <path d="M298.9,304c-.2,0-.2-.2-.2-.5-.2-1.1-.6-2.2-1.3-2.9s-1.7-1.3-1.7-1.6.1-.6,0-.8c1.9.4,3.4,2.4,3.5,4.3,0,.6-.2,1-.4,1.4h.1Z" style="fill: #fbfbf9;"/>
      <path d="M261.8,304c0-.7-.2-1.1-.2-1.8.1-1.8,1.7-3.6,3.5-3.8v.7c0,.7-.8.5-1.1,1s0,.8-.1,1-.7,0-1,.4-.4.8-.5,1.1c-.1.5-.2,1.1-.5,1.6h-.1Z" style="fill: #fbfbf9;"/>
      <path d="M289.1,322c-.2,0-.8,0-1.1.1-1,.4-1.4,1.8-2,2.6-2.6,3.2-8.2,3.4-10.8.1-.8-1.1-1.6-3.4-3.4-2.9-2.5.6-.8,4.4.1,5.8,4,5.3,13,5.4,17,0,.8-1.1,2.3-4,1.3-5.2-.1-.2-.8-.6-1.1-.7h-.1Z" style="fill: #f75650;"/>
      <path d="M277.1,314.5c.1.2.7.6.6.8-.5.7-1,1.4-1.4,2s-.8,1.4-1.3,2c0,.1-.5.8-.7.7l-1.8-2.8c-.6-.6-1.1-1.3-1.4-2,.2-.6,3.1-4.3,3.4-4.4s.4.2.5.4c.7.8,1.6,2.2,2.3,3.1h0ZM273.6,314.6c-.6,0-2.3,1.3-1.4,1.8.5.4.8-.4,1.3-.5.5-.2,1-.2,1.4-.1.5,0,1.1,1,1.4.2s0-.8-.5-1.1c-.6-.5-1.6-.5-2.3-.4h0Z" style="fill: #0f83b6;"/>
      <path d="M283.7,315.8s-.2-.2-.2-.5c0-.6.7-.8.8-1.4.5-.6.8-.7,1.1-1.4.2,0,.4-.2.4-.4h0c0-.2.6-1.1.8-1s2.8,3.7,3.4,4.2v.4l-3.2,4.8c-.1,0-.4-.2-.4-.4-.7-1-1.4-2.2-2-3.2l-.6-1h0ZM284.9,315.1c-.2.2-.6,1,0,1.1.7.2,1-1.2,2.8-.4.5.2.7,1,1.2.5.7-.6-.7-1.7-1.3-1.8-.7-.1-2,0-2.6.5h0Z" style="fill: #0f83b6;"/>
      <path d="M279.5,317.4c1.8-.2,3.2,0,4.2,1.7,2.3,3.5-1.8,7.7-5.4,5.5-2.8-1.7-2.2-6.6,1.2-7.1h0ZM278.7,319.2h-.2c-.4.2-.7,1.4-.7,1.9,0,1.1,1,2.5,2,2.6,2.2.2,3.6-1,3.2-3.1-.2-1.7-2-2.5-3.5-2-.5.1-.5.2-.7.6h-.1Z" style="fill: #3b2319;"/>
      <path d="M286.3,309.4c.6,0,1.6.2,2,.6s1.2,1.2.7,1.7-1-.6-1.4-.8-1.4-.4-1.9,0c-.5.2-1,1.6-1.6,1s1.3-2.2,2.2-2.2h0v-.2Z" style="fill: #f75650;"/>
      <path d="M274.1,309.4c1,0,1.9.2,2.5,1s.6.8.2,1.2c-.6.6-1-.5-1.3-.7-.7-.6-1.8-.5-2.5,0s-.6,1.2-1.2.7.8-1.8,1.3-2,.6-.2.8-.2h.1Z" style="fill: #f75650;"/>
      <path d="M273.6,314.6c.7-.1,1.7,0,2.3.4s.7.6.5,1.1c-.4.7-1-.1-1.4-.2-.5,0-1.1,0-1.4.1-.4.2-.7.8-1.3.5-.8-.5.8-1.7,1.4-1.8h0Z" style="fill: #3b2319;"/>
      <path d="M284.9,315.1c.6-.6,1.8-.7,2.6-.5.5.1,2,1.2,1.3,1.8-.5.4-.8-.2-1.2-.5-.6-.2-1.2-.4-1.8,0s-.4.6-1,.4-.2-.8,0-1.1h0Z" style="fill: #3b2319;"/>
      <path d="M278.4,319.5c.2-.4.7-.7,1.2-.8,1.6-.5,3.2.4,3.5,2,.4,2.2-1.1,3.4-3.2,3.1-1.1-.1-2-1.6-2-2.6s.4-1.7.7-1.9.2,0,.2,0c-.5.7-.5,1.7.6,1.2.1-.5,1.3-.8.8-1.4s-1.1,0-1.4.2h0l-.5.2h.1ZM281.4,318.8c-.6-.4-1,.5-.5.7.5.4.7-.6.5-.7ZM279,321.6c.4-.7-.6-1-.8-.6-.4.5.5,1.1.8.6Z" style="fill: #f75650;"/>
      <path d="M278.7,319.2c.4-.2,1.1-.7,1.4-.2s-.7,1-.8,1.4c-1.1.5-1.1-.4-.6-1.2h0Z" style="fill: #fbfbf9;"/>
      <path d="M279,321.6c-.2.5-1.1,0-.8-.6s1.2,0,.8.6Z" style="fill: #fbfbf9;"/>
      <path d="M281.4,318.8c.2.1,0,1.1-.5.7s0-1.1.5-.7Z" style="fill: #fbfbf9;"/>
      <path d="M288.8,323.8h0c.6.2-.1,1.6-.4,1.9-3.2,5.9-12.7,5.8-16,0-.2-.5-1.2-1.9,0-1.9s.8,1.4,1.1,1.8c2.9,4.7,11.2,4.4,14-.5.2-.5.4-1.7,1.2-1.3" style="fill: #fff;"/>
    </g>
    <path d="M280.4,284.2c-18.2,0-32.9,14.8-32.9,32.9s14.8,32.9,32.9,32.9,32.9-14.8,32.9-32.9-14.8-32.9-32.9-32.9ZM280.4,346c-15.8,0-28.8-12.8-28.8-28.8s12.8-28.8,28.8-28.8,28.8,12.8,28.8,28.8-12.8,28.8-28.8,28.8Z" style="fill: #f75650;"/>
    <rect x="248.4" y="315.7" width="63.8" height="4.4" transform="translate(-142.7 291.4) rotate(-45)" style="fill: #f75650;"/>
  </g>
  <g style="isolation: isolate;">
    <text transform="translate(137.2 62.5)" style="font-family: PTSans-Bold, &apos;PT Sans&apos;; font-size: 37.2px; font-weight: 700; isolation: isolate;"><tspan x="0" y="0">1x</tspan></text>
    <text transform="translate(177.9 62.5)" style="font-family: PTSans-Regular, &apos;PT Sans&apos;; font-size: 37.2px; isolation: isolate;"><tspan x="0" y="0" xml:space="preserve"> Suite de 13</tspan></text>
  </g>
  <g>
    <path d="M437.2,309.7l-.5-.7c4.1-3.5,7-7.8,7.4-13.3s.2-4.7-.6-4c-3,9.8-15.5,12.6-23.3,6.4-12.6-10.1-3.4-28.9,10.9-27.6,1.4.1,2.3-1.4,1.5-2.5h0s0,0,0-.1c-7.6-13.1,5.2-28.5,19.6-23.3,9.7,3.5,13.1,14.9,8.3,23.4-.6,1.1.2,2.4,1.5,2.4,11.1-.6,20.1,10.3,15.5,21.6-5,12.5-23.6,12.8-28.1-.2-1.1-.8-.2,5.5-.1,6,.5,2.5,2,5.8,3.6,7.8s2.6,2,3.4,3.5l-.4.7h-18.7Z" style="fill: #292929;"/>
    <path d="M351.6,309.7l-.4-.7c0-.6,2.6-2.6,3.2-3.4,2-2.3,3.3-5.2,3.9-8.2s-1.8-2.6-2.9-1.3-1.4,1.6-2.4,2.2c-9.6,6.4-21.7-1-22.6-11.9s14.3-23.9,23-33.5c2.6-2.9,4.9-6,7.2-9,.4,0,.7.4.8.6,1.7,1.7,3.8,5,5.5,7.1,8.6,9.7,24.7,19.2,24.4,34-.4,14.3-18.7,21.5-26.5,8.5-7.8-13-1.2-3.2-1.8-2.6-.2,4.8.8,9.8,4,13.7s1.3,1.5,1.7,1.9c1,1,.3,2.8-1.1,2.8h-16.4.2Z" style="fill: #292929;"/>
  </g>
</svg>