<?xml version="1.0" encoding="UTF-8"?>
<svg id="Layer_1" xmlns="http://www.w3.org/2000/svg" version="1.1" viewBox="0 0 626 626">
  <!-- Generator: Adobe Illustrator 29.6.1, SVG Export Plug-In . SVG Version: 2.1.1 Build 9)  -->
  <path d="M361.8,159.2c34.3,9.4,74.3,35.9,95.1,65.1,6.7,9.3,14.9,26.3,18.5,37.2,3.1,9.4,3.9,19.4,7.8,28.6,15-1.3,28.7,2.4,40.1,12.4,11.4,10,10.6,10.2,12.5,13.2s.2,8.2,5.7,8.8c8.6.8,27.1-15.1,31.7-22.1s3.3-10.8,5.2-16.7c5.1-15.3,9-18.7,11.3-36.3s2.1-13.2,2.5-18.8c0-.7,1.8-2.3,5.8-1.4,3.1.8,3.6,1.3,5.4,3.4,7.1,8.4,0,43-3.6,53.7-8.3,25.1-25.7,42-48.8,53.8,31.9,37.3,15.1,101.2-28,122.2s-20,6.7-20.6,7.5-2.4,10.4-4.2,13.9c-8.8,16.8-28.3,24.1-46.6,22-3.5-.4-13.2-4.6-13.9-4.5-2.7.3-8.2,8.4-10.6,10.3,6.4,7.1,11.9,16.3,14.6,25.4,3.8,12.9,4.6,49.7,2.7,63.4-4.8,35.2-50,25.7-72.4,16.4-6.1-2.5-33.9-19-35.9-19.1s-10.7,5.9-14.2,6.7c-4.7,1-11.8,1.1-16.6.3s-13.9-7-16-6.6c-3.3.6-18.9,10.9-24.1,13.4-20.8,9.9-57.8,24.3-76,4.2-3.6-4-6.7-9.8-7.4-15.2-1.5-11.1-1.5-43.8-.1-55,1.3-11.2,10.2-25.2,17.5-33.7-2.5-1.7-8.6-9.9-10.8-10.4s-12.3,4.2-16.3,4.6c-17.2,1.8-33.8-5.7-43.6-19.9-2.9-4.3-4.6-14.5-6-15.9s-14.5-5.2-17.7-6.7c-45.9-21.7-62.7-82.4-30.9-123.1-5.5-4.4-12.3-6.8-17.9-10.8-26.6-19.3-39.7-61.1-35.9-93,.8-6.9,4.6-8.6,11.3-8.1,1.9,9.3,1.4,13.7,2.5,22.5,1.6,12.5,10.3,24.5,13.8,37.5,6.1,22.7,13.5,26.2,34.1,35.1.8.3,1.7,5.2,5.8-.8s1-4.8,1.4-5.5,5.4-5.8,6.9-7.5c13.4-15.6,27.7-19.6,48-20.2,3.1-16.7,7.5-31.8,15-47,2.9-5.9,8.5-11.1,9-17.9v-1.3c1.1-.1.4,2-.5,1-1.3-1.5,9.8-10.5,12.4-12.3,22.5-23.7,43.7-37.9,74.5-49.4,30.8-11.5,6-3,8.7-4.4s20.2-3.4,23.2-3.7c23.7-2.7,52.7-1.3,75.7,5v-.3h-.1ZM284.7,170c-59.4,13.5-119,53.3-125.4,120-4.6,48.3-1.7,124.8,20,168.6,59.3,119.8,219.1,112.4,271.6-8.4,18.4-42.4,19.8-113,16-159.1-6.6-80.6-104.5-131.8-178.4-122.1-2.1.3-3.5.9-3.9,1h.1,0ZM480.7,384.4c-.4,7.1-1.6,14.1-1.3,21.3,5.2,2.2,7.6-2.2,8.4-2.4,1.9-.6,4.2,0,6.4-.9,47.8-19.1,46.6-100.4-12.3-98v21.3c0,.7,9.4.9,14.2,4,8.9,5.6,24.8,29.3,5.8,29.8,0-1.5-6.9-12.7-8.7-14.4s-9.7-7.2-11.3-5.6c.6,15.1-.3,30-1.3,45h0ZM124.1,359.4c-14.1,1.9-8.4-14.7-3.5-21.7,4.7-6.8,15.2-12.5,23.6-12.1v-20c-67.1-6-57.2,98.8,2.5,98.9,1.4-1.4-2.3-17-2.5-20-1-14.7.7-30.3,0-45-7.7-.9-19.7,13.9-20,20h0ZM535.8,385.7c-5.9,5-9.9,13.5-15.6,18.8-11.1,10.4-29.4,15.5-44.3,16.4-2.2,5.6-2.5,11.9-4.3,17.6-1.2,4-8.4,19.7-6.9,22s6.2,1.1,4.6,6.8-7.8,3.9-11.5,4.9-1.6,1.9-2.1,2.3c-2.3,1.8-8.1,9.4-7.5,11.9s6.4,4.5,6.8,4.5c6.9.6,21.3-5.3,25.7-10.7s1.6-3.6,2.5-5.7,2.5-1.8,2.5-4.5-5.1-7.2-1.4-12.3,9-2.7,11.4-3.3c13.2-3.4,20.4-5.4,31.3-14.4,23.6-19.5,33.2-57,15.6-83.2-1.3,9.8-5.8,18.9-6.9,28.8h0ZM125.3,453.2c.2.6.7,1.2,1.3,1.3s1.7-.1,2.5,0c4.8.8,14,.8,13.8,6.7s-3.7,5.2-1.2,13.3c3.6,11.8,23.9,19.3,34.2,13.5,5.3-3-4.9-13.2-9.1-14.8-5.9-2.3-11.4-.6-8.8-10.4s2.6-1.3,3.1-2.1c1.8-2.6-5.2-19.1-6.5-23.5s-2.4-10.2-3.4-15.3c-16.4-2.5-32.4-5.3-45.3-16.7l-16.7-20.8c-1.4-9.3-3.8-17.2-6.3-26.3-3-.6-2,.4-2.8,1.6-8.1,12.3-7.6,36.2-2.8,49.7,7.6,21.5,26.3,38.5,48.2,43.8h-.2ZM205.4,529.6c-6.5,8.8-8.1,15.5-8.8,26.3s-.6,20.7,0,29.5c1,16.8,2.4,26,21.8,24.2,19.9-1.8,43.2-15,60.2-24.9l.6-5h-31.9c-3.8,0-4.4-13.8-1.3-13.8h29.4c-.3-2.9,1-7.2-1.2-9.4-1.4-1.4-22.9-8.4-27.2-10.3-7.6-3.5-19.8-10-26.6-14.7s-6.5-7.4-8.5-7.9c-4.1-1.1-5,3.9-6.6,6.1h0ZM350.6,565.8h26.9c5.2,0,6.5,10.5.6,13.1-5.8,2.6-28.2-1.5-30.7,1.8s-.9,2.7-.4,3.7c1,1.8,32.4,17.7,36.5,19.2,12.9,4.7,42.3,12.9,44.7-7.1,1.1-9.5,1.8-42.2-.1-51.3-1.7-8.3-10.5-24.4-15.8-21-10,7.6-21,16.2-32.4,21.4s-28.2,9.1-29.1,10.4.3,7.4-.2,9.8h0ZM291.9,559.7c-3.9,10,3.1,26.2,13.9,29.1s25.9-1.7,28.9-14.4c.8-3.2,2.5-13.4-1.2-14.6-13.9.6-27.8,2.3-41.6,0h0Z" style="fill: #3b2319;"/>
  <path d="M32.7,218c0-1-2.2-3.4-2.4-5.7-2.5-22,22-44.7,41.1-52-6.9-30.9,2.3-61.3,27.7-80.5,12.3-9.3,22.7-8.4,32.4-13.9,2.3-1.3,12.2-16.3,17-20.6,22.6-20,52.2-19,79.8-11.2,16.1-25.4,57.5-44.9,85.1-27.4,3.5,2.2,6.3,6,9.6,8.5C317.9-.3,327.6-.4,340,.1c23.8,1.1,44.6,15.6,58.9,33.7,32.4-10.9,64.2-5.7,86.7,20.8,2.5,3,6.2,10.9,8.8,12.4,3.8,2.2,13.6,3.3,19.2,5.8,33.2,15.2,48.8,53.7,39.7,88.5,19.2,4.9,45.6,30.9,40.9,51.8-.5,2.3-3.4,4.9-3.5,5.9-22.9,2.9-11.7-10.2-16-21-2.3-5.8-13.1-14.7-18.7-17.6-10.8-5.7-12.4-4.3-16.7,7.3-2.7-.8-7.1.4-10-2.5,2.7-8.8,4.4-22,6.3-31.3s3.9-10,3.8-16.8c-.4-22.6-18.3-48.2-41.3-52,.4,3.2-1.8,7-1.3,10-4.3,1.6-8.2,1.6-12.5,0,.4-33.4-32.8-53.1-63.2-50-8.5.9-23.3,9.3-29.8,7.5-.8-.2-8.4-11.7-10.3-13.8-10.8-12.1-25-20.8-41.5-22.4s-15.5-1-13,13.6c-.4.1-3.1,4.7-5,5.6-6.9,3.2-14.5-5.9-22.5-6.9-1.8-5.1,6-9.9-.7-11.2-22.3-4.5-50.9,9.1-58.7,31.3-3.3,9.4,1.2,8.9,1.8,17.5v2.5c-4.8,3.5-6.5,6.9-12.5,3.1s-2.3-3-2.5-3.1c-4-5.1-2-16.3-6.6-19.1-7.4-4.5-25.5-5.6-34.1-4.7-23.3,2.3-46.2,27.8-45.7,51.3-4.5,0-9,1-12.5-2.5.4-2.7-.2-6,0-8.8-21.6,3-39.4,25.8-41.3,47-.8,9.4,1.1,13.6,2.5,21.9s4,22,7.5,30c-4.5,5.3-7.8,2.2-11.3,2.5-4.3-10.5-5.5-11.8-16.1-6.8s-17.6,13.4-19.5,19.4c-1.8,5.4,5.2,10.4-.6,16.8-4.1,4.6-11.1,3.5-16.3,1.8l.3.4h0Z" style="fill: #3b2319;"/>
  <path d="M85.3,186.7c-8,.8-22.2,20-23.5,28.5s.7,14-.9,16.6-12.4,4.4-14.8,7.7l-12.1,11c-1.1-8.8-.6-13.2-2.5-22.5s1.3-8.1,1.3-10c5.2,1.6,12.2,2.7,16.3-1.8,5.8-6.4-1.2-11.4.6-16.8,2-5.9,13.8-16.7,19.5-19.4,10.7-5,11.9-3.7,16.1,6.8h0Z" style="fill: #fbfbf9;"/>
  <path d="M539.5,187.9c4.3-11.6,5.9-13,16.7-7.3s16.3,11.8,18.7,17.6c4.3,10.7-6.9,23.8,16,21,0,1.9,1.5,7.2,1.3,11.3s-1.8,13.1-2.5,18.8c-4.5-3.1-8.6-8.3-13.2-11.2s-11.8-5-12.6-6.3.9-8.9.6-11.8c-1.3-13.5-11.5-28.2-24.9-32h0Z" style="fill: #fbfbf9;"/>
  <path d="M226.7,69.1c.2,0,1.2,2.3,2.5,3.1,6,3.9,7.7.4,12.5-3.1-.8,10.2-2.9,17.3-2.5,28.8.7,23.5,6.9,43,23.8,60.1-2.7,1.4-3.4,2.5-8.7,4.4-30.8,11.5-52,25.6-74.5,49.4s-9.8,9.5-11,10.3.2.9-.9,1-3.2-.5-3.8,1.3h-20.1l-14.2-6.5c-12.9-4.9-27.5-20-33.4-33.5-3.5-8-6-21.2-7.5-30,3.5-5.5,3.5-12.7,5.7-18.7s4.7-11.6,5.6-12.9c2.9-4.3,10.8-2.7,12-4.6s-.6-7.9,1.9-11.8c3.6-5.7,12.5-3.8,13.6-12,3.5,3.5,8,2.5,12.5,2.5,0,.4,1.3,7.3,1.5,7.9.3.9,2.4,3.4,2.9,3.4,1.2,0,5.2-16.2,6.3-18.7,9.5-22.8,28.4-31.3,52.4-28.6,9.1,1,11.4,4.5,18.4,7.9s4.2.4,4.9.7v-.4h.1Z" style="fill: #f08c06;"/>
  <path d="M384.4,112.9c14.8-1.7,21.5-17,20-30.7-.4-3.4-4.1-10.2-3.2-11.9s10.4-7,12.4-7.8c31.6-12.4,64.8,12.1,66,45.3,3.3-1.4,5-9.4,5-12.5,4.3,1.6,8.2,1.6,12.5,0,.5,2.5,17,14.8,20.1,18.1,9.1,9.7,12.9,22.7,16,35.3.5,2.1,0,4.6,2.7,5.4-1.9,9.3-3.5,22.5-6.3,31.3-4.2,13.4-26.9,31.8-40,36.3-10.4,3.5-21.8,2.3-32.5,2.5-20.8-29.1-60.8-55.6-95.1-65.1l14-19.2c2.6-4.7,9-22.6,8.5-27.1h0Z" style="fill: #f75650;"/>
  <path d="M239.2,97.8c11,19,30.5,26.8,50.5,14.8,2.7-1.6,4.8-5.8,7.7-6.1s7.7,2.2,11.3,2.5c21.5,1.6,32.7-16.6,26.9-36.3,25.8.6,24.5,32.5,11.3,47.8s-6.2,3.7-7.5,7.2c17,2.2,29.4-4.4,39.5-17.4s2.9-1.2,3-1.3c1.1.8,2.4,2.5,2.5,3.8.5,4.6-6,22.5-8.5,27.1l-14,19.2c-23-6.3-52-7.7-75.7-5-3,.3-22.1,3.2-23.2,3.7-16.8-17-23.1-36.6-23.8-60.1h0Z" style="fill: #0f83b6;"/>
  <path d="M96.5,184.2c5.9,13.5,20.5,28.6,33.4,33.5l14.2,6.5c-3.1,0-5.8-1.4-8.8-.7-6.3,1.5-14.1,11-16.5,17s-.7,12.2-3.5,17.1c-6.1,10.6-23.9,13.4-34.1,7.6s-12.9-14.9-14.1-14.7c-2.7.6-8.3,14-9.1,17.2-1.8,7.2-1.2,16.9.9,24.1-5.2,1.4-7-2.5-11.3-3.8-3.5-13-12.2-25.1-13.8-37.5l12.1-11c2.4-3.3,13.5-5.6,14.8-7.7s.2-12.3.9-16.6c1.3-8.5,15.4-27.7,23.5-28.5s6.8,2.8,11.3-2.5h.1Z" style="fill: #47a5fe;"/>
  <path d="M144.1,224.2h23.9c-.4,6.9-6.1,12-9,17.9-7.4,15.2-11.9,30.3-15,47-20.3.6-34.6,4.6-48,20.2s-6.6,7.1-6.9,7.5c-11.6-3.4-26.4-13-30-25s-2.7-16.8-.9-24.1,6.4-16.6,9.1-17.2,9.8,12.3,14.1,14.7c10.2,5.8,26.1,3.3,32.1-7.3s2.6-12.4,4.7-17.8,10.9-15.1,17.3-16.6,5.6.8,8.8.7h-.2,0Z" style="fill: #0f83b6;"/>
  <path d="M489.5,221.7c8.1,5.8,14.9,9.6,18.5,19.7,1.9,5.5,1.6,11.3,4.8,16.5,9.3,15.1,32,12.3,41.6-.7s2.1-8.3,5.3-6.1c8.5,5.9,10.7,31.3,7.5,40.7-1.2.7-4.6,7.4-6.3,9.4-6.9,7.7-14.3,13.3-25,14.4-1.9-2.9-9.6-10.6-12.5-13.2-11.4-10-25.1-13.7-40.1-12.4-3.9-9.2-4.7-19.2-7.8-28.6-3.6-10.9-11.8-27.9-18.5-37.2,10.8-.2,22.2,1,32.5-2.5h0Z" style="fill: #0f83b6;"/>
  <path d="M539.5,187.9c13.4,3.8,23.6,18.5,24.9,32,.3,2.9-1,11.2-.6,11.8.8,1.2,10,4.6,12.6,6.3,4.6,3,8.7,8.1,13.2,11.2-2.3,17.6-6.2,20.9-11.3,36.3-2.5,1.9-5,3.8-7.6,5.6s-3.2.4-3.6.7c3.2-9.4,0-33.3-7.5-40.7-1.3-.5-3.8,4.5-5.2,6.3-9.6,13.1-32.4,15.6-41.7.5s-2.8-11-4.8-16.5c-3.5-10.1-10.4-13.9-18.5-19.7,13.1-4.5,35.9-22.9,40-36.3,2.9,2.9,7.4,1.7,10,2.5h0Z" style="fill: #47a5fe;"/>
  <path d="M350.6,565.8c.5-2.4-.8-8.3.2-9.8s24.7-8.4,29.1-10.4c11.4-5.2,22.4-13.8,32.4-21.4,5.8-4.8,15.3,17.5,15.8,21,1.4,9.1,1.3,41.8.1,51.3-2.4,20-31.9,11.9-44.7,7.1s-35.5-17.4-36.5-19.2-.3-2.7.4-3.7c2.5-3.3,24.9.7,30.7-1.8,5.9-2.6,4.6-13.1-.6-13.1h-26.9Z" style="fill: #f75650;"/>
  <path d="M205.4,529.6c1.6-2.2,2.5-7.2,6.6-6.1s6,6.2,8.5,7.9c6.8,4.8,18.9,11.2,26.6,14.7s25.8,9,27.2,10.3c2.2,2.2.9,6.6,1.2,9.4h-29.4c-3.1,0-2.6,13.8,1.3,13.8h31.9l-.6,5c-17,9.9-40.3,23-60.2,24.9-19.5,1.8-20.8-7.4-21.8-24.2-.5-8.8-.5-20.7,0-29.5,6,2,8.7,14,16.7,8.8,6.9-4.5-3.7-12.7-4.2-17.1s8.5-17.2-3.8-18h0Z" style="fill: #f75650;"/>
  <path d="M502,359.4c19-.5,3.1-24.2-5.8-29.8-4.8-3.1-14.2-3.2-14.2-4v-21.3c58.9-2.3,60,78.9,12.3,98-2.1.9-4.5.4-6.4.9s-3.3,4.6-8.4,2.4c-.3-7.1.8-14.2,1.3-21.3,7.6.4,14.2-5.7,17.2-12.2s4.1-12.1,4.1-12.8h-.1Z" style="fill: #fbfbf9;"/>
  <path d="M144.1,384.4c.2,3,3.9,18.6,2.5,20-59.7,0-69.6-104.8-2.5-98.9v20c-8.4-.4-18.9,5.3-23.6,12.1-4.8,7-10.6,23.6,3.5,21.7,0,2.6,2.8,12.4,4.4,15,3.3,5.2,9.7,8.8,15.6,10.1h0Z" style="fill: #fbfbf9;"/>
  <path d="M89,384.4l16.7,20.8c12.9,11.3,28.9,14.1,45.3,16.7,1,5.1,1.9,10.3,3.4,15.3s8.3,20.9,6.5,23.5-2.8.8-3.1,2.1c-2.6,9.8,2.9,8.1,8.8,10.4-7.3,5.1-16.9,1.5-25,1.3-2.5-8.1,1-7.9,1.2-13.3s-9-6-13.8-6.7c-1.5-5.2-5.6-9.3-7.7-14.1s-3.4-13.4-4.6-15.1-9.6-3.2-12.6-5.3c-13.9-9.5-12.9-21.7-15.1-35.6h0Z" style="fill: #0f83b6;"/>
  <path d="M535.8,385.7c0,.1,1.2.9,1.1,1.8-1.4,11.1-3.3,22.3-12.4,30-3.7,3.1-16.7,7.7-17.2,8.5s-1.9,10.7-3,13.9c-2.2,6-5.9,9.3-8.5,14.7-2.3.6-10.6,2.2-11.4,3.3-3.7,5.1,1.5,8.7,1.4,12.3,0,2.6-2.1,3.4-2.5,4.5-8.8,3-18.6.6-27.5,0,.4-.3.5-1.8,2.1-2.3,3.7-1,9.9.9,11.5-4.9s-3.8-5.6-4.6-6.8c-1.4-2.4,5.7-18.1,6.9-22,1.8-5.8,2-12,4.3-17.6,14.9-1,33-6.8,44.2-16.6,5.5-5.6,13.8-19.2,15.7-18.6v-.2h0Z" style="fill: #0f83b6;"/>
  <path d="M495.7,454.5c2.6-5.4,6.3-8.7,8.5-14.7,1.1-3.1,2.5-13.1,3-13.9s13.5-5.3,17.2-8.5c9.1-7.7,11.1-18.9,12.4-30-.3-1-1.3-1.4-1.3-1.5,1.1-9.9,5.8-19.2,7.1-29.1,17.6,26.2,8,63.7-15.6,83.2-10.9,9-18.1,11-31.3,14.4h0Z" style="fill: #47a5fe;"/>
  <path d="M125.3,453.2c-21.9-5.3-40.6-22.3-48.2-43.8-4.8-13.5-5.3-37.4,2.8-49.7.8-1.2-.2-2.2,2.8-1.6,2.4,9.1,4.8,17,6.3,26.3,2.1,13.9,1.2,26.1,15.1,35.6,3,2,12,4.5,12.6,5.3,1.2,1.7,3.1,11.5,4.6,15.1s6.2,8.9,7.7,14.1c-.8-.1-1.7.1-2.5,0-.2-.5-.7-1.1-1.3-1.3h0Z" style="fill: #47a5fe;"/>
  <path d="M291.9,559.7c13.8,2.4,27.7.7,41.6,0,3.7,1.2,2,11.4,1.2,14.6-3.1,12.7-17.2,17.5-28.9,14.4s-17.8-19-13.9-29.1h0Z" style="fill: #f75650;"/>
  <path d="M124.1,359.4c.3-6.1,12.3-20.9,20-20,.7,14.8-1,30.4,0,45-5.9-1.3-12.2-4.9-15.6-10.1s-4.6-12.4-4.4-15h0Z" style="fill: #f75650;"/>
  <path d="M502,359.4c0,.7-3.4,11.3-4.1,12.8-3,6.5-9.6,12.6-17.2,12.2.9-15,1.8-29.9,1.3-45,1.6-1.6,9.8,4.2,11.3,5.6s8.7,13,8.7,14.4h0Z" style="fill: #f75650;"/>
  <path d="M535.8,315.6c10.7-1.1,18.1-6.7,25-14.4s5.1-8.6,6.3-9.4,2.4.2,3.6-.7c2.6-1.8,5.1-3.7,7.6-5.6-1.9,5.8-1,10.2-5.2,16.7s-23.1,23-31.7,22.1-4.6-7.1-5.7-8.8h.1Z" style="fill: #fbfbf9;"/>
  <path d="M59,291.8c3.6,12.1,18.4,21.6,30,25-.4.6,0,3.6-1.4,5.5-4.1,6.1-5,1.2-5.8.8-20.6-8.9-28-12.4-34.1-35.1,4.3,1.2,6,5.2,11.3,3.8h0Z" style="fill: #fbfbf9;"/>
  <path d="M205.4,529.6c12.3.9,3.2,12.6,3.8,18s11.1,12.6,4.2,17.1c-7.9,5.2-10.7-6.8-16.7-8.8.7-10.8,2.3-17.5,8.8-26.3h-.1Z" style="fill: #fbfbf9;"/>
  <path d="M141.6,474.5c8.1.2,17.8,3.9,25-1.3,4.2,1.6,14.4,11.8,9.1,14.8-10.3,5.8-30.5-1.7-34.2-13.5h0Z" style="fill: #fbfbf9;"/>
  <path d="M483.2,474.5c-.9,2-.7,3.4-2.5,5.7-4.4,5.5-18.8,11.3-25.7,10.7s-6.7-4.1-6.8-4.5c-.6-2.4,5.2-10,7.5-11.9,8.9.6,18.7,3,27.5,0h0Z" style="fill: #fbfbf9;"/>
  <path d="M167.9,223v1.3h-3.8c.6-1.7,2.4-1.1,3.8-1.3Z" style="fill: #47a5fe;"/>
  <path d="M126.6,454.5c-.6,0-1.1-.7-1.3-1.3.5.1,1,.7,1.3,1.3Z" style="fill: #0f83b6;"/>
  <path d="M299.3,29c8,.9,15.6,10,22.5,6.9,1.9-.9,4.7-5.5,5-5.6,2-.7,8.8.1,11.3.6,30.6,5.1,54.1,36.5,47.1,67.3-.3,1.4-3.1,10.5-3.4,11s-2.1,0-3,1.3c-10.1,13-22.6,19.7-39.5,17.4,1.3-3.5,5.4-4.7,7.5-7.2,13.2-15.4,14.5-47.2-11.3-47.8,5.8,19.7-5.4,37.9-26.9,36.3s-8.4-2.8-11.3-2.5-5,4.4-7.7,6.1c-20,12-39.5,4.2-50.5-14.8-.4-11.5,1.7-18.6,2.5-28.8v-2.5c9.4-11.8,16.4-24.2,30.6-31.3s20.9-6.9,26.9-6.2l.2-.2h0Z" style="fill: #47a5fe;"/>
  <path d="M326.8,30.3c-2.5-14.7-1.8-15,13-13.6s30.7,10.2,41.5,22.4,9.4,13.6,10.3,13.8c6.5,1.8,21.3-6.7,29.8-7.5,30.4-3,63.6,16.6,63.2,50,0,3.1-1.7,11.1-5,12.5-1.2-33.2-34.4-57.7-66-45.3-1.9.8-11.7,6.5-12.4,7.8s2.8,8.5,3.2,11.9c1.5,13.7-5.2,29-20,30.7-.1-1.3-1.5-2.9-2.5-3.8.3-.5,3.1-9.6,3.4-11,7-30.8-16.6-62.2-47.1-67.3-2.6-.4-9.3-1.3-11.3-.6,0,0-.1,0-.1,0Z" style="fill: #fbfbf9;"/>
  <path d="M226.7,69.1c-.7-.3-3,.2-4.9-.7-7-3.5-9.3-6.9-18.4-7.9-24-2.7-42.9,5.9-52.4,28.6s-5.1,18.8-6.3,18.7-2.6-2.4-2.9-3.4-1.5-7.5-1.5-7.9c-.5-23.5,22.4-49,45.7-51.3,8.6-.9,26.6.2,34.1,4.7s2.6,13.9,6.6,19.1h0Z" style="fill: #fbfbf9;"/>
  <path d="M299.3,29c-6.1-.7-21.3,3.4-26.9,6.2-14.2,7.1-21.2,19.5-30.6,31.3-.6-8.6-5.2-8.1-1.8-17.5,7.9-22.1,36.5-35.7,58.7-31.3,6.7,1.3-1.1,6.1.7,11.2h-.1Z" style="fill: #fbfbf9;"/>
  <path d="M535.8,154.1c-2.8-.8-2.2-3.3-2.7-5.4-3.1-12.6-6.9-25.6-16-35.3-3-3.3-19.6-15.6-20.1-18.1s1.7-6.8,1.3-10c23,3.8,41,29.4,41.3,52,0,6.8-2.7,11.6-3.8,16.8h0Z" style="fill: #fbfbf9;"/>
  <path d="M89,154.1c-1.4-8.2-3.3-12.5-2.5-21.9,1.8-21.2,19.6-43.9,41.3-47-.2,2.8.4,6.1,0,8.8-1.1,8.2-10.1,6.3-13.6,12s-.4,9.6-1.9,11.8-9.1.2-12,4.6-4.8,10.8-5.6,12.9c-2.1,6-2.2,13.2-5.7,18.7h0Z" style="fill: #fbfbf9;"/>
  <path d="M416.8,370.9c-2.7-.4-10.3.7-12.8,1.6-11.8,4.1-17.3,21.9-25,31.3-31.9,38.9-98,40.3-130.8,1.9-10.8-12.7-18.4-40.1-40.7-34.5-30.7,7.8-10.3,53.2,2,69.4,48,63,156.9,64.8,205,1.3,10.4-13.7,28-47.3,15.6-62.9-2.1-2.6-10.1-7.6-13.3-8.1h0Z" style="fill: #f75650;"/>
  <path d="M272.2,280.1c1.9,2.6,8,6.7,6.9,10.8-5.5,8.6-11.9,16.7-17.6,25.1s-10.5,17-16.3,25c-1.3,1.8-6.4,9.8-8.5,8.4l-21.5-33c-7-6.7-12.8-16.5-17.2-25.2,3.5-6.7,37.5-52.5,40.8-53.1s4.3,3,5.4,4.3c9.4,10.7,19.4,25.9,28,37.7h0ZM230.1,280.8c-6.9,1.3-26.8,15.8-17.2,21.6,6.3,3.8,10.4-3.9,15.2-6.1,5.1-2.4,12.3-2.8,17.7-1.7,5.5,1.1,13.3,12.1,17.5,3.2s-1.4-9.5-5.7-12.4c-7.6-5.2-18.5-6.1-27.5-4.5h0Z" style="fill: #0f83b6;"/>
  <path d="M351.8,295.4s-2.9-3.2-2.6-5.4c1-7.2,8.5-10.5,10-17.1,5.4-6.6,10.1-9.2,12.6-17.6,3.4.2,3.7-2.8,5-5v.2c1.4-2.4,7.1-13.5,10.6-12.5s33.9,45,40.1,50.1v3.7c.1,0-39,57.5-39,57.5-1.8.3-3.8-2.5-4.8-3.8-8.7-11.5-17.1-26.2-24.5-38.7l-7.4-11.4h0ZM366,287.2c-3.5,3.4-7.1,11.2-.8,13.1,9.2,3.1,11.9-13.8,33-4.2,5.2,2.7,9,11.2,14.9,6.3,9.4-7.7-9.3-20.1-15.9-21.6-8.9-2-24.3-.1-31.2,6.4h0Z" style="fill: #0f83b6;"/>
  <path d="M301.5,314.6c21.2-3.1,38.9,1.3,50.9,19.8,26.8,41.6-21.1,92.3-64.7,66-33.6-20.3-26-80,13.9-85.8h-.1ZM293,336.8c-.4.2-2.2-.5-3.4.3-4.3,2.7-9.1,17.6-9.2,22.9-.2,12.5,11.4,30.3,24.5,31.9,25.7,3.1,43.3-11.2,39.1-37.9-3.1-19.7-24.3-30.4-42.6-24.4-5.8,1.9-5.8,2.7-8.4,7.2Z" style="fill: #3b2319;"/>
  <path d="M382.9,218.3c7.9-.6,18.3,2.5,24.6,7.2s14.8,14.6,8.8,20-12.2-7.5-17-10.6-17.4-4.7-23.6-1.2c-5.8,3.3-11.9,18.3-18.9,11.2s16.1-25.8,26.1-26.6h0Z" style="fill: #f75650;"/>
  <path d="M235.2,218.3c11.2-.9,23.7,3.5,30.8,12.3s7.4,9.7,3.3,14.4c-6.8,7.6-11.8-5.9-15.9-9.3-8.4-6.8-21.7-6.2-29.7,1.2s-6.9,14.4-14.1,8.7c-7.8-6.2,9.8-21.8,15.7-24.6s6.9-2.5,9.9-2.7h0Z" style="fill: #f75650;"/>
  <path d="M152.9,224.2h-3.8,3.8Z" style="fill: #47a5fe;"/>
  <path d="M230.1,280.8c9-1.6,19.9-.7,27.5,4.5s8.4,6.7,5.7,12.4c-4.2,9-12.1-2-17.5-3.2-5.5-1.1-12.7-.6-17.7,1.7-4.8,2.2-8.9,9.9-15.2,6.1-9.7-5.8,10.3-20.4,17.2-21.6h0Z" style="fill: #3b2319;"/>
  <path d="M366,287.2c6.9-6.6,22.3-8.4,31.2-6.4,6.5,1.5,25.3,13.9,15.9,21.6-6,4.9-9.7-3.6-14.9-6.3-6.8-3.5-14.8-3.8-21.7-.3s-4.5,6.6-11.3,4.5-2.7-9.7.8-13.1h0Z" style="fill: #3b2319;"/>
  <path d="M287.5,340.1c2.6-4.5,8.1-8.6,13.9-10.5,18.3-6,39.5,4.7,42.6,24.4,4.2,26.7-13.4,41-39.1,37.9-13.1-1.6-24.6-19.4-24.5-31.9s4.9-20.1,9.2-22.9,3,0,3.4-.3c-5.4,9.2-6,19.8,7.4,14.3,2-6,15.8-10.5,10.2-17.5s-13.7.8-17.6,3.3h0l-5.5,3.2ZM324.1,332c-6.6-4.2-12.3,5.5-6.1,9.2,6.4,3.9,9.2-7.2,6.1-9.2ZM295.2,365.4c4.7-8.1-7.2-10.9-9.5-7.1-4.1,6.5,5.9,13.2,9.5,7.1Z" style="fill: #f75650;"/>
  <path d="M293,336.8c4-2.4,13.1-8.9,17.6-3.3s-8.2,11.6-10.2,17.5c-13.4,5.6-12.8-5-7.4-14.3h0Z" style="fill: #fbfbf9;"/>
  <path d="M295.2,365.4c-3.6,6.2-13.6-.6-9.5-7.1s14.3-1,9.5,7.1Z" style="fill: #fbfbf9;"/>
  <path d="M324.1,332c3.1,2,.3,13.1-6.1,9.2-6.2-3.8-.5-13.4,6.1-9.2Z" style="fill: #fbfbf9;"/>
  <path d="M413.3,392.1h0c7.4,2.6-1.6,18.8-4,23.2-38.8,71.1-153.5,69.8-193.1,0-3.5-6.1-14.2-22.6.8-23.4s9.9,17.3,13,22.2c35.4,56.6,135,53.1,169-5.5,3.4-5.9,4.9-19.8,14.4-16.5" style="fill: #fff;"/>
</svg>